<svg xmlns="http://www.w3.org/2000/svg" width="411.957" height="382" viewBox="0 0 411.957 382">
  <g id="Group_2744" data-name="Group 2744" transform="translate(-228.615 -188)">
    <g id="Group_2742" data-name="Group 2742" transform="translate(-2982.037 -581.026)">
      <path id="Path_2379" data-name="Path 2379" d="M35.252,0C54.721,0,70.5,4.46,70.5,9.963s-15.783,9.963-35.252,9.963S0,15.465,0,9.963,15.783,0,35.252,0Z" transform="translate(3215.926 1109.281)" fill="#dedede"/>
      <ellipse id="Ellipse_16" data-name="Ellipse 16" cx="22.432" cy="6.34" rx="22.432" ry="6.34" transform="translate(3568.157 1116.526)" fill="#d1d1d1"/>
      <g id="Group_2700" data-name="Group 2700" transform="translate(3318.293 1015.676)">
        <path id="Path_2115" data-name="Path 2115" d="M3618.412,1704.256l-53.947,6.961-54.159-7.89-2.961,1.41-2.328,4.984,59.457,14.122,59.457-14.122-2.351-4.3Z" transform="translate(-3500.081 -1636.417)" fill="#f6e3d3"/>
        <path id="Path_2116" data-name="Path 2116" d="M3621.583,1707.705l-57.119,7.558-57.1-8.228-2.346,4.976,59.457,14.151,59.457-14.151Z" transform="translate(-3500.081 -1638.707)" fill="#bc7e55"/>
        <path id="Path_2117" data-name="Path 2117" d="M3619.444,1744.138l-56.37-23.094a16.626,16.626,0,0,0-13.157,0l-56.716,23.093-1.089,11.2,3.31.963,57.647-20.812a10.155,10.155,0,0,1,6.87,0l57.6,20.769,3.353-.921Z" transform="translate(-3492.112 -1646.52)" fill="#f6e3d3"/>
        <path id="Path_2118" data-name="Path 2118" d="M3621.43,1749.929l-53.641-21.976a15.82,15.82,0,0,0-12.52,0l-53.97,21.976-1.036,10.653,58.006-20.847a9.666,9.666,0,0,1,6.537,0l58.005,20.847Z" transform="translate(-3497.146 -1650.828)" fill="#bc7e55"/>
        <path id="Path_2119" data-name="Path 2119" d="M3650.133,1607.406h0a6.409,6.409,0,0,1-6.409-6.409v-69.876a2.752,2.752,0,0,1,2.752-2.752h7.314a2.752,2.752,0,0,1,2.752,2.752V1601A6.409,6.409,0,0,1,3650.133,1607.406Z" transform="translate(-3585.742 -1528.369)" fill="#bc7e55"/>
      </g>
      <g id="Group_2704" data-name="Group 2704" transform="translate(3281.171 864.624)">
        <g id="Group_2703" data-name="Group 2703" transform="translate(0 0)">
          <g id="Group_2701" data-name="Group 2701">
            <path id="Path_2120" data-name="Path 2120" d="M3395.325,1205.733c1.316-6.7,4.408-9.215,5.85-10.238,6.023-4.273,14.227-1.583,16.381-.877,10.351,3.393,15.872,12.546,17.258,14.918,4.7,8.047,4.427,12.986,11.147,22.816,2.294,3.355,3.852,2.765,4.084,2.633,1.681-.956-2.643-11.848-3.51-13.456-8.27-15.346-17.065-24.943-27.225-45.047a24.276,24.276,0,0,1-2.654-15.21,19.938,19.938,0,0,1,5.85-11.116c10.122-8.765,31.132-13.9,53.524-15.764a212.583,212.583,0,0,1,41.055,0c22.388,1.9,43.4,7,53.523,15.764a19.941,19.941,0,0,1,5.85,11.116,24.276,24.276,0,0,1-2.654,15.21c-10.16,20.1-18.955,29.7-27.225,45.047-.867,1.608-5.191,12.5-3.511,13.456.233.132,1.792.722,4.085-2.633,6.72-9.829,6.444-14.769,11.147-22.816,1.386-2.372,6.907-11.525,17.258-14.918,2.153-.706,10.357-3.4,16.38.877,1.442,1.023,4.535,3.539,5.85,10.238,2.192,11.162-8.881,37.133-18.428,51.189-6.307,9.285-9.586,14.023-15.8,18.721a55.992,55.992,0,0,1-30.714,11.408c-12.973.838-59.618.838-72.591,0a55.993,55.993,0,0,1-30.714-11.408c-6.209-4.7-9.49-9.436-15.8-18.721C3404.206,1242.866,3393.132,1216.895,3395.325,1205.733Z" transform="translate(-3395.044 -1133.399)" fill="#dcdcdc"/>
          </g>
          <g id="Group_2702" data-name="Group 2702" transform="translate(4.448 60.588)">
            <path id="Path_2121" data-name="Path 2121" d="M3599.879,1303.154c1.356,9.111-12.347,40.459-29.5,50.563-7.311,4.308-12.98,7.219-24.159,8.147-34.528,2.867-55.67,4.456-90.456-.56-11.78-1.7-17.983-3.568-23.878-8.15-14.885-11.569-20.155-27.083-21.909-32.021-1.768-4.978-6.757-22.119.573-27.278,8.988-6.326,22.175,3.949,24.343,6.083,6.156,6.059,9.42,13.788,10.581,16.885,1.715,4.575,4.4,13.613,11.307,17.409,10.919,6,69.17,16.974,94.431-.524,4.737-3.281,8.022-12.507,8.022-12.507,1.267-2.717,3.933-11.08,8.029-16.885,0,0,5.789-9.056,16.677-11.673C3594.569,1290.087,3598.8,1295.937,3599.879,1303.154Z" transform="translate(-3406.676 -1291.824)" fill="#989898"/>
          </g>
        </g>
      </g>
      <path id="Path_2122" data-name="Path 2122" d="M3925.86,1537.63" transform="translate(-441.686 -518.413)" fill="none" stroke="#000" stroke-miterlimit="10" stroke-width="1"/>
      <g id="Group_2720" data-name="Group 2720" transform="translate(3561.161 878.779)">
        <path id="Path_2334" data-name="Path 2334" d="M4175.269,1197.088c-3.624-5.41-.893-15,7.784-19.417,2.042-1.04,4.8-3.023,5.716-5.772.265-.792.028-1.5.232-1.487.255.018.33,1.723.35,2.186a31.009,31.009,0,0,1-.962,8.134c-1.105,5.558.7,12.879-4.347,17.842C4180.409,1202.146,4177.068,1199.774,4175.269,1197.088Z" transform="translate(-4155.91 -1170.411)" fill="#3a4a1d"/>
        <path id="Path_2335" data-name="Path 2335" d="M4153.616,1183.356c.19.018-.234.265-.039.889a5.124,5.124,0,0,0,1.456,1.9,8.32,8.32,0,0,1,1.841,6.292c-.082,1.679-1.364,4.11-2.563,3.268-5.742-4.031-1.773-9.759-1.307-10.766C4153.571,1183.708,4153.371,1183.333,4153.616,1183.356Z" transform="translate(-4142.029 -1178.405)" fill="#3a4a1d"/>
        <path id="Path_2336" data-name="Path 2336" d="M4143.989,1219.619c2.695-2.664-.86-17.676-13.032-25.076-1.258-.765-3.319-2.216-3.7-1.92-.193.149,1.13.39.73,1.662-4.39,13.986,10.3,13.986,11.055,22.928C4139.262,1219.855,4142.473,1221.119,4143.989,1219.619Z" transform="translate(-4127.166 -1184.105)" fill="#516123"/>
        <path id="Path_2337" data-name="Path 2337" d="M4206,1201.025c-.8.745-3.272.455-5.579,1.466-2.156.944-3.083,3.089-4.036,6.172-1.638,5.294-6.3,13.384-12.838,13.441-10.575.094-1.006-11.922,8.446-18.42,4.081-2.806,9.7-2.858,12.219-2.891C4205.706,1200.774,4206.371,1200.678,4206,1201.025Z" transform="translate(-4159.125 -1189.158)" fill="#516123"/>
        <path id="Path_2338" data-name="Path 2338" d="M4163.412,1170.589c.805-.389-.273,2.811,3.761,6.91,8.605,8.743,6.827,26.4-2.187,27.288-3.581.353-16.9-13.91-2.536-30.612C4164.147,1172.2,4163.113,1170.734,4163.412,1170.589Z" transform="translate(-4144.927 -1170.501)" fill="#516123"/>
        <path id="Path_2339" data-name="Path 2339" d="M4178.209,1205.4c.052-.616,2.194,5.713,2.449,8.808.554,6.715-.313,10.411-2.921,13.207-3.035,3.255-8.19,4.59-11.247,1.662-2.733-2.618-2.887-7.259-.525-10.5,1.684-2.308,2.261-2.4,6.909-7.347C4175.747,1208.18,4177.97,1208.243,4178.209,1205.4Z" transform="translate(-4150.103 -1191.995)" fill="#9fbc50"/>
        <path id="Path_2340" data-name="Path 2340" d="M4172.848,1257.849a1.634,1.634,0,0,0-1.628-1.5h-22.935a1.634,1.634,0,0,0-1.627,1.5l-1.021,11.5v1.647c0,6.261,5.075,11.909,11.335,11.909h5.56c6.261,0,11.336-5.648,11.336-11.909v-1.647Z" transform="translate(-4138.573 -1223.486)" fill="#f6891f"/>
      </g>
      <g id="Group_2724" data-name="Group 2724" transform="translate(3311.651 931.686)">
        <path id="Path_2341" data-name="Path 2341" d="M3705.922,1515.323" transform="translate(-3617.511 -1436.323)" fill="none" stroke="#000" stroke-miterlimit="10" stroke-width="1"/>
        <path id="Path_2342" data-name="Path 2342" d="M3843.188,1739.326c.935,2.5.868,4.215.931,9.767a42.747,42.747,0,0,0,.465,7.906,10.058,10.058,0,0,0,1.86,4.651,10.743,10.743,0,0,0,2.79,2.325c2.658,1.914,2.851,3.853,5.581,8.371,2.008,3.324,3.146,5.206,5.116,6.976,2.822,2.536,5.7,3.357,10.231,4.651a49.7,49.7,0,0,0,13.487,1.86c8.085.02,10.622-1.877,11.627-2.79a5.674,5.674,0,0,0,1.86-2.791c.626-2.592-1.317-5.064-3.255-7.441-4.477-5.489-6.715-8.234-8.372-9.766a131.782,131.782,0,0,1-14.417-16.277c-8.091-10.891-7.208-15.308-12.092-16.743-6.69-1.965-16.458,3.943-16.278,7.906C3842.743,1738.36,3842.865,1738.46,3843.188,1739.326Z" transform="translate(-3701.993 -1568.674)" fill="#fcbc92"/>
        <path id="Path_2343" data-name="Path 2343" d="M3652.87,1322.157c3.049-3.55,9.149-.793,21.734-1.114,4.96-.127,10.552-1.2,21.735-3.344,9.28-1.779,10.537-2.432,27.865-6.13a112.579,112.579,0,0,1,21.735-2.786c7.332-.184,10.493.516,13.375,2.229,5.862,3.486,7.863,9.561,8.36,11.146.508,1.624,2.138,6.825,0,12.261-1.586,4.032-4.494,6.284-7.245,8.36-13.433,10.135-20.149,15.2-27.308,18.391-5.344,2.38-11.17,4.975-18.391,6.13-24.373,3.9-52.115-10.594-60.746-30.652C3653,1334.352,3649.459,1326.129,3652.87,1322.157Z" transform="translate(-3583.852 -1308.753)" fill="#232323"/>
        <path id="Path_2344" data-name="Path 2344" d="M3475.157,1335.958c-1.37,6.755.984,12.547,2.57,16.448a33.865,33.865,0,0,0,8.224,12.336c4.991,4.512,10.224,5.6,25.7,7.709,18.041,2.454,27.061,3.681,37.521,4.112a255.29,255.29,0,0,0,25.7,0c.644-.038,2.723-.175,3.6,1.028,1.051,1.446,0,4.626-.612,6.954-1.45,5.517-.076,11.25,2.154,20.287,2.92,11.834,1.327,8.69,6.168,23.129,6.124,18.264,9.766,32.9,9.766,32.9,3.974,15.966,4.152,21.348,9.252,24.157,4.511,2.485,9.861,1.142,20.56-1.542,6.219-1.561,11.1-4.256,11.822-6.682a5.983,5.983,0,0,0-.514-4.112c-4.613-10.316-19.457-98.187-22.1-109.993-2-8.925-4.339-11.9-5.14-12.85-4.106-4.892-9.155-6.107-19.017-9.252-7.434-2.371-14.6-5.566-22.1-7.71-12.764-3.647-16.981-3.991-36.493-10.583-9.239-3.121-14.548-4.8-22.1-5.14-5.3-.242-10.739-.434-16.961,2.056C3491.1,1320.026,3477.71,1323.374,3475.157,1335.958Z" transform="translate(-3474.745 -1313.857)" fill="#232323"/>
        <path id="Path_2345" data-name="Path 2345" d="M3785.663,1367a43.463,43.463,0,0,1,7.029-7.482,50.893,50.893,0,0,1,18.009-9.865,41.756,41.756,0,0,1,10.105-1.823c-3.267,1.01-6.462,2.079-9.571,3.336a87.91,87.91,0,0,0-17.564,9.615C3790.932,1362.724,3788.3,1364.823,3785.663,1367Z" transform="translate(-3666.757 -1332.889)" fill="#e5e5e5"/>
        <g id="Group_2721" data-name="Group 2721" transform="translate(137.234 173.52)">
          <path id="Path_2346" data-name="Path 2346" d="M3837.462,1764.226c-1.413.122-5.64,12.908-3.06,17.622.9,1.649,13.526,12.138,19.5,16.678a52.179,52.179,0,0,0,8.527,5.241,37.431,37.431,0,0,0,17.254,4.519,29.351,29.351,0,0,0,12.59-3.089,7.885,7.885,0,0,0,3.237-2.7c1.632-2.433-.37-6.969-.805-7.827-1.913-3.771-4.572-4.755-9.751-8.339-8.442-5.844-12.925-12.207-17.752-19.514-1.339-2.028-.488-3.172-1.75-4.033-2.092-1.427-8.4,2.333-14.118,7.112-1.618,1.352-3.858,2.767-7.015,1.481C3839.458,1769.392,3839.132,1764.083,3837.462,1764.226Z" transform="translate(-3833.585 -1762.475)" fill="#1e1735"/>
          <path id="Path_2347" data-name="Path 2347" d="M3837.608,1797.631c2.257,1.751,4.582,3.392,6.907,5.04l6.979,4.931,6.982,4.924c2.325,1.643,4.641,3.3,6.981,4.907.578.4,1.167.819,1.735,1.189a9.3,9.3,0,0,0,.849.517c.293.161.6.313.909.462a33.527,33.527,0,0,0,12.005,3.085,25.456,25.456,0,0,0,8.257-.878c.339-.084.671-.2,1-.3s.661-.217.984-.35c.649-.259,1.287-.562,1.923-.871s1.261-.648,1.874-1.005a11.313,11.313,0,0,0,1.768-1.185,17.648,17.648,0,0,1-3.377,2.658q-.906.588-1.876,1.087c-.322.169-.66.323-.993.462s-.667.291-1.01.412a24.325,24.325,0,0,1-8.6,1.487,31.37,31.37,0,0,1-12.772-2.883c-.335-.158-.669-.318-1-.5a11.222,11.222,0,0,1-.982-.583c-.631-.4-1.207-.8-1.8-1.21q-3.509-2.477-6.951-5.017c-2.279-1.719-4.57-3.422-6.807-5.2q-3.374-2.638-6.659-5.392A85.4,85.4,0,0,1,3837.608,1797.631Z" transform="translate(-3836.07 -1784.186)" fill="#e2be2d"/>
          <path id="Path_2348" data-name="Path 2348" d="M3900.408,1791.162a29.606,29.606,0,0,1,2.787-1.411l2.7-1.231c.89-.408,1.776-.813,2.656-1.245a19.837,19.837,0,0,0,2.653-1.482,4.076,4.076,0,0,1-.685,1.513,7.486,7.486,0,0,1-1.1,1.225,10.6,10.6,0,0,1-2.719,1.755,11.874,11.874,0,0,1-3.071.923A9.1,9.1,0,0,1,3900.408,1791.162Z" transform="translate(-3874.852 -1776.875)" fill="#e2be2d"/>
          <path id="Path_2349" data-name="Path 2349" d="M3907.944,1800.163a29.75,29.75,0,0,1,2.788-1.411l2.7-1.231c.891-.407,1.776-.813,2.657-1.245a19.816,19.816,0,0,0,2.653-1.482,4.074,4.074,0,0,1-.686,1.513,7.466,7.466,0,0,1-1.1,1.226,10.6,10.6,0,0,1-2.719,1.754,11.861,11.861,0,0,1-3.07.923A9.093,9.093,0,0,1,3907.944,1800.163Z" transform="translate(-3879.506 -1782.434)" fill="#e2be2d"/>
          <path id="Path_2350" data-name="Path 2350" d="M3915.48,1809.165a29.515,29.515,0,0,1,2.788-1.411l2.7-1.231c.891-.408,1.776-.813,2.657-1.245a19.875,19.875,0,0,0,2.652-1.482,4.083,4.083,0,0,1-.685,1.512,7.465,7.465,0,0,1-1.1,1.225,10.589,10.589,0,0,1-2.719,1.755,11.875,11.875,0,0,1-3.071.923A9.1,9.1,0,0,1,3915.48,1809.165Z" transform="translate(-3884.16 -1787.993)" fill="#e2be2d"/>
          <path id="Path_2351" data-name="Path 2351" d="M3923.016,1818.166a29.656,29.656,0,0,1,2.787-1.41l2.7-1.231c.89-.408,1.776-.813,2.656-1.246a19.782,19.782,0,0,0,2.652-1.482,4.07,4.07,0,0,1-.686,1.513,7.445,7.445,0,0,1-1.1,1.226,10.616,10.616,0,0,1-2.719,1.755,11.891,11.891,0,0,1-3.071.923A9.1,9.1,0,0,1,3923.016,1818.166Z" transform="translate(-3888.814 -1793.552)" fill="#e2be2d"/>
          <path id="Path_2352" data-name="Path 2352" d="M3892.871,1782.16a29.683,29.683,0,0,1,2.787-1.41l2.7-1.231c.89-.407,1.775-.813,2.656-1.245a19.815,19.815,0,0,0,2.653-1.482,4.074,4.074,0,0,1-.686,1.512,7.464,7.464,0,0,1-1.1,1.226,10.613,10.613,0,0,1-2.719,1.755,11.874,11.874,0,0,1-3.071.923A9.1,9.1,0,0,1,3892.871,1782.16Z" transform="translate(-3870.198 -1771.316)" fill="#e2be2d"/>
        </g>
        <g id="Group_2723" data-name="Group 2723" transform="translate(59.84 56.666)">
          <path id="Path_2353" data-name="Path 2353" d="M3654.334,1459.038a32.684,32.684,0,0,1-7.573-.776c-3.474-.842-8.484-2.906-12.427.788-4.939,4.627-2.941,12.339-1.233,15.579a10.317,10.317,0,0,0,3.3,3.582c2.056,1.448,3.571,1.44,6.591,2.164,4.452,1.067,14.507,7.023,17.549,8.458a28.669,28.669,0,0,0,13.788,2.882c2.743-.142,8.333-.432,13.379-4.488,1.687-1.355,6.13-4.927,6.67-10.9a15.32,15.32,0,0,0-3.388-10.518c-3.945-5.274-9.78-6.688-11.97-7.218-4.331-1.049-8.533-.667-16.936.1A60.777,60.777,0,0,1,3654.334,1459.038Z" transform="translate(-3631.216 -1456.924)" fill="#1e1735"/>
          <path id="Path_2354" data-name="Path 2354" d="M3656.123,1466.243a27.041,27.041,0,0,1-7.343-2.279c-6.794-3.349-11.1-.3-11.561.152-3,2.96-3.356,7.714-2.1,11.215a10.1,10.1,0,0,0,4.888,5.749c1.623.739,7.458,1.527,14.946,5.367,5.2,2.666,7.764,4.069,10.437,4.676a26.144,26.144,0,0,0,10.751.109c3.817-.758,8.27-1.642,11.24-5.585.481-.639,3.605-4.926,2.306-10.031-1.154-4.532-5.049-6.774-7.23-8.03-6.005-3.457-12.534-2.891-14.973-2.679C3661.886,1465.391,3661.007,1466.991,3656.123,1466.243Z" transform="translate(-3633.205 -1460.313)" fill="#bc7e55"/>
          <g id="Group_2722" data-name="Group 2722" transform="translate(1.911 3.65)">
            <path id="Path_2355" data-name="Path 2355" d="M3705.615,1470.091a19.419,19.419,0,0,0-3.911-1.9,22.09,22.09,0,0,0-4.252-1.03,27.341,27.341,0,0,0-4.375-.257,38.141,38.141,0,0,0-4.365.361c-1.45.223-2.874.62-4.254.967a12.646,12.646,0,0,1-2.08.357,14.663,14.663,0,0,1-2.113-.012,26.146,26.146,0,0,1-4.222-.745,27.378,27.378,0,0,1-4.1-1.359,24.192,24.192,0,0,0,8.264,2.694,13.03,13.03,0,0,0,2.217.086,13.325,13.325,0,0,0,2.2-.321c.716-.159,1.411-.35,2.108-.51s1.4-.293,2.1-.407a35.2,35.2,0,0,1,8.552-.269A23.72,23.72,0,0,1,3705.615,1470.091Z" transform="translate(-3658.278 -1466.469)" fill="#7764a6"/>
            <path id="Path_2356" data-name="Path 2356" d="M3636.214,1496.191a11.428,11.428,0,0,0,1.679,3.273,8.642,8.642,0,0,0,2.774,2.463,4.838,4.838,0,0,0,.864.388c.3.1.592.191.888.28l1.771.5c1.177.333,2.346.687,3.5,1.078a60.8,60.8,0,0,1,6.774,2.736c2.184,1.07,4.339,2.259,6.542,3.348a35.871,35.871,0,0,0,3.406,1.482,18.346,18.346,0,0,0,3.632.891,26.529,26.529,0,0,0,3.71.288,23.808,23.808,0,0,0,3.709-.245c1.233-.169,2.432-.449,3.629-.72a25.876,25.876,0,0,0,3.549-1.056,12.539,12.539,0,0,0,5.833-4.391,12.011,12.011,0,0,1-2.695,2.458,14.3,14.3,0,0,1-3.268,1.583,26.125,26.125,0,0,1-3.522.937c-1.2.236-2.4.479-3.6.609a27.326,27.326,0,0,1-7.239-.146,17.6,17.6,0,0,1-3.489-.89,35.671,35.671,0,0,1-3.321-1.481c-2.2-1.062-4.351-2.223-6.58-3.29a51.481,51.481,0,0,0-6.892-2.667c-1.177-.362-2.366-.685-3.556-.985l-1.781-.45a7.878,7.878,0,0,1-1.694-.586,8.351,8.351,0,0,1-2.787-2.257A12.3,12.3,0,0,1,3636.214,1496.191Z" transform="translate(-3636.214 -1484.824)" fill="#7764a6"/>
          </g>
        </g>
      </g>
      <g id="Group_2731" data-name="Group 2731" transform="translate(3311.61 769.026)">
        <path id="Path_2357" data-name="Path 2357" d="M3731.677,1129.409c-.271-3.782-17.92-10.206-25.7-10.206-4.158,0-4.914-38.554-12.483-58.835-3.854-10.328-9.339-19-19.3-12.277-9.041,6.1-6.112,24.035-3.875,36.287,2.771,15.171,7.678,39.069,13.354,46.165,3.023,3.78,11.142,7.858,25.325,9.828C3722.6,1142.26,3732.055,1134.7,3731.677,1129.409Z" transform="translate(-3594.063 -983.654)" fill="#65c8c7"/>
        <path id="Path_2358" data-name="Path 2358" d="M3526.32,1027.377a53.712,53.712,0,0,0-16.953,4.238c-28.608,12.714-27.93,36.43-28.608,43.971-1.241,13.806-2.138,27.02-1.589,33.905a44.108,44.108,0,0,1,0,7.947c-.5,5.457-1.833,8.436-2.649,11.655-1.319,5.2-3.729,21.746.53,24.9,5.131,3.8,9.037-6.884,25.958-9.006,9.974-1.251,13.694,1.284,33.408,4.238,16.678,2.5,20.272-24.028,21.159-34.748.832-10.045,3.469-19.675,3.708-30.944.53-24.9,7.089-31.281,5.3-34.435-.983-1.731-13.86-8.116-20.131-13.774C3545.189,1034.184,3538.173,1026.285,3526.32,1027.377Z" transform="translate(-3474.639 -972.261)" fill="#65c8c7"/>
        <path id="Path_2359" data-name="Path 2359" d="M3698.012,1145.032a57.307,57.307,0,0,1-.205-7.944c.023-1.327.162-2.647.262-3.971.147-1.319.308-2.638.518-3.951q.159-.984.359-1.961c.131-.652.249-1.306.411-1.952s.312-1.293.491-1.934l.261-.962.3-.952a70.318,70.318,0,0,1,2.856-7.416c-.181,1.319-.508,2.607-.788,3.894-.3,1.283-.593,2.562-.869,3.84s-.551,2.556-.776,3.842q-.19.96-.357,1.925c-.121.642-.223,1.286-.319,1.932-.437,2.574-.783,5.167-1.116,7.769S3698.42,1142.406,3698.012,1145.032Z" transform="translate(-3612.425 -1025.813)" fill="#fff"/>
        <path id="Path_2360" data-name="Path 2360" d="M3598.694,965.042c-.02-4.019,2.384-5.033,5.828-13.774a82.768,82.768,0,0,0,5.827-29.668c0-1,2.423-.205,5.828,2.649a33.543,33.543,0,0,1,11.655,19.072c2.719,13.247-1.7,31.892-11.655,33.376C3608.906,977.781,3598.725,971.336,3598.694,965.042Z" transform="translate(-3551.25 -906.747)" fill="#f5a46f"/>
        <path id="Path_2361" data-name="Path 2361" d="M3637,933.854s-1.726,1.649-3.139.53c-2.4-1.9-2.557-6.455-2.6-7.417-.057-1.275-.1-4.873,2.08-6.357,3.119-2.119,3.627,1.625,4.159,1.589s1.107-1.13,1.04-2.119c-.1-1.451-1.52-2.141-2.6-3.179-2.562-2.463-2.958-6.648-2.6-9.006.669-4.414,4.663-6.947,6.239-7.947,7.6-4.823,16.605-1.775,18.718-1.06,2.406.815,8.106,2.745,11.959,8.477a26.846,26.846,0,0,1,4.7,12.715c.329,3.987-.3,9.212-2.619,12.185a24.129,24.129,0,0,0-2.6,5.828,20.663,20.663,0,0,1-1.04,6.357,35.826,35.826,0,0,1-7.8,13.244c-3.04,3.141-4.712,3.586-5.719,3.708a8.23,8.23,0,0,1-4.679-1.059c-2.334-1.149-13.258-8.212-14.038-18.012A48.607,48.607,0,0,1,3637,933.854Z" transform="translate(-3571.354 -891.983)" fill="#fcbc92"/>
        <path id="Path_2362" data-name="Path 2362" d="M3672.148,900.021a38.8,38.8,0,0,0-11.646-11.277c-9.4-5.566-20.681-6.691-22.78-3.708a5.77,5.77,0,0,1-2.119,2.119c-1.48.79-2.722.436-3.708.53-3.516.337-7.027,6.707-6.887,12.714a16.464,16.464,0,0,0,9,14.515,3.347,3.347,0,0,1,1.529,4.188,54.421,54.421,0,0,1-5.229,9.9c-4.284,6.569,4.431,20.444,6.357,22.781a25.019,25.019,0,0,0,9.536,6.887c2.649,1.059,4.758,1.573,6.357.53,5.7-3.715,7.257-12.234,7.188-13.376a.329.329,0,0,1,.066-.225c.6-.791,1.226-1.685,1.835-2.661a.389.389,0,0,0,.029-.355,5.852,5.852,0,0,0-2.762-2.985c-3.531-1.869-8.04-.891-10.885,1.1a3.958,3.958,0,0,1-5.132-.579c-3.133-3.555-5.228-8.835-4.645-16.417.795-10.331,6.093-16.158,9.536-16.953.52-.12.665.351,1.59,1.059a19.921,19.921,0,0,0,6.887,3.179c.8.244,10.79,2.5,14.833-.53,2.119-1.589,2.832,1.232,3.179,1.06C3674.793,911.268,3675.866,905.7,3672.148,900.021Zm-24.115,43.561c1.555-.317,3.729.163,6.111-.272,2.311-.421,2.378-1.193,3.179-.53.252.209.794,1.324,1.589,2.119.182.182.373.311.511.467a.351.351,0,0,1-.078.537c-.985.645-4.406,1.909-9.439-.475-.369-.174-1.325-.772-1.984-1.177A.366.366,0,0,1,3648.034,943.582Z" transform="translate(-3567.498 -883.426)" fill="#202020"/>
        <path id="Path_2363" data-name="Path 2363" d="M3697.765,987.18a3.961,3.961,0,0,1-2-.214,5.628,5.628,0,0,1-1.708-1.062c-.227-.212-.4-.3-.573-.465-.084-.076-.187-.134-.279-.2a2.165,2.165,0,0,0-.286-.212,4.6,4.6,0,0,0-1.381-.672,10.112,10.112,0,0,0-1.64-.318c-.566-.085-1.155-.122-1.745-.161l-1.8-.12a9.193,9.193,0,0,1-1.817-.275l.033-.21a27.768,27.768,0,0,0,3.542-.454,14.094,14.094,0,0,1,3.76-.124,8.539,8.539,0,0,1,2.006.467,4.588,4.588,0,0,1,.951.533,5.218,5.218,0,0,1,.752.74c.375.484.635.872.992,1.283s.787.8,1.257,1.267Z" transform="translate(-3604.264 -944.677)" fill="#1e1735"/>
        <path id="Path_2364" data-name="Path 2364" d="M3697.212,994.176a4.429,4.429,0,0,0-2.123-.272,20.931,20.931,0,0,1-2.256.131,5.111,5.111,0,0,1-2.45-.649,3.935,3.935,0,0,1-1.647-1.859,16.057,16.057,0,0,0,2.121.7,10.507,10.507,0,0,0,2.029.217,11.681,11.681,0,0,1,2.329.218,3.173,3.173,0,0,1,.619.2,2.8,2.8,0,0,1,.58.319,3.115,3.115,0,0,1,.478.444A3.053,3.053,0,0,1,3697.212,994.176Z" transform="translate(-3606.857 -950.185)" fill="#1e1735"/>
        <g id="Group_2729" data-name="Group 2729" transform="translate(60.362 147.429)">
          <path id="Path_2365" data-name="Path 2365" d="M3636.585,1272.442c1.75-1.672,4.223-1.54,5.729-1.324,9.29,1.333,11.307,1.305,14.2.228,1.485-.554,6.162-2.6,8.731-2.409,5.555.412,27.128,10.129,27.344,12.76,0,0,.164,2.089-.713,2.46a3.683,3.683,0,0,0-.356.151c-.5.384.522,1.233-.256,2.144-.318.373-.82.471-1.656.555-1.7.171-3.047-.3-4.255-.09-.883.157-1,.515-2.044,1.011a5.065,5.065,0,0,1-3.345.688c-.649-.042-1.382.038-6.143-2.49-4.877-2.59-13.065-4.069-13.032-3.647s9.132,2.679,11.376,4.2a1.435,1.435,0,0,1,.522,1.233c-.114.8-.785.862-1.621,1-2.411.4-8.189-1.2-14.2-2.3a32.125,32.125,0,0,0-9.388-.535c-3.924.385-5.081.313-7.6.6C3633.77,1287.369,3628.527,1280.135,3636.585,1272.442Z" transform="translate(-3632.473 -1268.925)" fill="#fcbc92"/>
          <g id="Group_2726" data-name="Group 2726" transform="translate(32.85 8.282)">
            <g id="Group_2725" data-name="Group 2725">
              <path id="Path_2366" data-name="Path 2366" d="M3737.957,1300.1a.619.619,0,0,0,.3-1.129,41.9,41.9,0,0,0-5.862-3.411,102.192,102.192,0,0,0-13.22-4.949.619.619,0,0,0-.368,1.181,101.027,101.027,0,0,1,13.043,4.878,40.856,40.856,0,0,1,5.713,3.324A.616.616,0,0,0,3737.957,1300.1Z" transform="translate(-3718.371 -1290.581)" fill="#d66730"/>
            </g>
          </g>
          <g id="Group_2728" data-name="Group 2728" transform="translate(38.108 5.036)">
            <g id="Group_2727" data-name="Group 2727">
              <path id="Path_2367" data-name="Path 2367" d="M3750.989,1293.082a.618.618,0,0,0,.338-1.1,41.889,41.889,0,0,0-5.573-3.865,102.217,102.217,0,0,0-12.787-5.98.619.619,0,1,0-.46,1.148,101.046,101.046,0,0,1,12.615,5.9,40.891,40.891,0,0,1,5.432,3.766A.614.614,0,0,0,3750.989,1293.082Z" transform="translate(-3732.118 -1282.094)" fill="#d66730"/>
            </g>
          </g>
        </g>
        <path id="Path_2368" data-name="Path 2368" d="M3561.677,1146.636c-9.262-.627-15.225-3.61-25.111-7.192a43.291,43.291,0,0,0-8.239-1.911,9.528,9.528,0,0,1-.044-3.028,139.736,139.736,0,0,0,1.043-16.913,135.787,135.787,0,0,1,2.289-18.469,44.759,44.759,0,0,0-.962-15.908c-.567-2.246-2.737-10.882-10.742-12.184-10.993-1.788-15.827,5.948-17.556,8.736-3.794,6.118-4.664,11.992-5.429,20.511,0,0-2.487,17.5,4.331,46.01,2.01,8.4,5.7,14.336,7.539,15.533.056.036.111.067.167.1.012-.034.026-.068.039-.1,4.3,2.991,17.356,1.122,36.935,2.614,7.644.583,14.156,2.5,13.581-.625-1.812-9.863,1.968-16.288,4.547-15.5.426.13.241.349.444.349.378,0,.372-.1.378-.378C3564.911,1147.245,3564.049,1146.8,3561.677,1146.636Z" transform="translate(-3488.129 -999.12)" fill="#65c8c7"/>
        <g id="Group_2730" data-name="Group 2730" transform="translate(8.001 84.095)">
          <path id="Path_2369" data-name="Path 2369" d="M3612.046,1166.739a40.667,40.667,0,0,1-4.349-.24c-.726-.064-1.445-.186-2.169-.281-.716-.135-1.439-.249-2.15-.412a74.19,74.19,0,0,1-8.4-2.4c-2.744-.945-5.461-1.924-8.189-2.847a36.674,36.674,0,0,0-4.066-1.107,41.682,41.682,0,0,0-4.162-.7l-.769-.088-.181-.744a7.6,7.6,0,0,1-.173-2.013c.013-.61.062-1.216.117-1.784l.331-3.4c.21-2.257.4-4.507.531-6.756.055-1.124.111-2.249.136-3.371.018-.562.017-1.122.025-1.683l0-.844v-.43l.011-.469c.056-1.2.176-2.327.295-3.475s.259-2.278.4-3.414c.281-2.272.646-4.531,1.039-6.791.21-1.13.407-2.259.678-3.389.064-.282.143-.567.214-.85l.053-.21.041-.177c.031-.112.05-.25.074-.38.091-.528.153-1.085.2-1.64a53.943,53.943,0,0,0,.146-6.754,49.682,49.682,0,0,0-.705-6.77,38.957,38.957,0,0,1,1.478,6.7,45.994,45.994,0,0,1,.407,6.9c-.014.582-.037,1.161-.1,1.761-.017.152-.027.3-.057.463l-.079.45c-.049.273-.1.541-.147.819-.184,1.1-.341,2.222-.487,3.342-.288,2.244-.5,4.5-.734,6.756-.107,1.127-.212,2.256-.3,3.381s-.167,2.263-.185,3.339l0,.385.007.424.018.865c0,.577.01,1.156,0,1.732,0,1.155-.05,2.306-.106,3.456s-.135,2.3-.224,3.441-.21,2.285-.329,3.422l-.363,3.393c-.06.564-.106,1.094-.124,1.622a5.767,5.767,0,0,0,.083,1.383l-.95-.831a42.548,42.548,0,0,1,4.37.86,38.619,38.619,0,0,1,4.264,1.3c2.709,1.051,5.384,2.167,8.056,3.251s5.343,2.134,8.086,2.974A53.93,53.93,0,0,0,3612.046,1166.739Z" transform="translate(-3546.121 -1103.318)" fill="#fff"/>
          <path id="Path_2370" data-name="Path 2370" d="M3496.733,1147.933c-.058,2.68.01,5.344.141,8,.1,2.658.324,5.308.544,7.953.267,2.642.507,5.284.87,7.913q.485,3.949,1.13,7.877l.65,3.927.721,3.917.172.981.2.976.4,1.953c.268,1.3.517,2.61.81,3.881.313,1.274.658,2.542,1.059,3.794s.827,2.5,1.337,3.714a33.888,33.888,0,0,0,1.673,3.583c.155.292.316.581.49.86s.351.558.535.832a6.17,6.17,0,0,0,1.316,1.47l-.016.005.049-.1-.029.105,0,.012-.012-.006a5.919,5.919,0,0,1-1.594-1.253c-.228-.251-.461-.5-.67-.767s-.427-.528-.628-.8a30.847,30.847,0,0,1-2.166-3.444c-.645-1.195-1.208-2.431-1.738-3.682s-.957-2.543-1.378-3.838c-.19-.651-.393-1.308-.564-1.958l-.483-1.955-.482-1.956-.241-.978-.215-.985-.823-3.946-.684-3.974c-.39-2.66-.767-5.324-1.015-8-.142-1.337-.215-2.682-.312-4.022-.116-1.339-.127-2.688-.176-4.031-.029-.671-.019-1.345-.028-2.017s-.019-1.344,0-2.017c.041-1.345.067-2.688.156-4.031A55.743,55.743,0,0,1,3496.733,1147.933Z" transform="translate(-3495.56 -1130.871)" fill="#fff"/>
        </g>
      </g>
      <g id="Group_2733" data-name="Group 2733" transform="translate(3210.652 938.01)">
        <g id="Group_2732" data-name="Group 2732" transform="translate(30.85 0.096)">
          <path id="Path_2371" data-name="Path 2371" d="M4125.574,1510.18h-3.131a1.551,1.551,0,0,1-1.5-1.119l-43.288-180.353a2.512,2.512,0,0,1,2.457-3.17h6.515a2.541,2.541,0,0,1,2.475,1.9l37.979,180.847A1.533,1.533,0,0,1,4125.574,1510.18Z" transform="translate(-3776.874 -1325.539)" fill="#343434"/>
          <path id="Path_2372" data-name="Path 2372" d="M3292.875,1510.18h3.131a1.551,1.551,0,0,0,1.5-1.119l43.288-180.353a2.513,2.513,0,0,0-2.458-3.17h-6.515a2.542,2.542,0,0,0-2.475,1.9l-37.98,180.847A1.533,1.533,0,0,0,3292.875,1510.18Z" transform="translate(-3291.319 -1325.539)" fill="#343434"/>
        </g>
        <path id="Path_2373" data-name="Path 2373" d="M3616.256,1337.993H3217a6.353,6.353,0,0,1-6.353-6.353h0a6.353,6.353,0,0,1,6.353-6.353h399.251a6.353,6.353,0,0,1,6.353,6.353h0A6.353,6.353,0,0,1,3616.256,1337.993Z" transform="translate(-3210.652 -1325.287)" fill="#212121"/>
      </g>
      <path id="Path_2374" data-name="Path 2374" d="M3633.792,1319.646h99.824v-4.7h-97.585c-.683,0-3.062,3.151-3.062,3.151a.951.951,0,0,0,.8,1.549Z" transform="translate(-260.668 -380.891)" fill="#f4efff"/>
      <path id="Path_2375" data-name="Path 2375" d="M3782.772,1202.766h79.079a7.45,7.45,0,0,0,7.172-5.433l18.671-66.374a3.459,3.459,0,0,0-3.331-4.4H3804.39a7.514,7.514,0,0,0-7.233,5.479l-18.4,65.419A4.175,4.175,0,0,0,3782.772,1202.766Z" transform="translate(-350.741 -264.553)" fill="#fff"/>
      <path id="Path_2376" data-name="Path 2376" d="M3785.631,1207.024h79.344a7.366,7.366,0,0,0,7.091-5.372l18.557-65.967a2.443,2.443,0,0,0-2.352-3.1h-79.344a7.366,7.366,0,0,0-7.091,5.372l-18.557,65.967A2.443,2.443,0,0,0,3785.631,1207.024Z" transform="translate(-353.576 -268.269)" fill="#f4efff"/>
    </g>
  </g>
</svg>
