<svg xmlns="http://www.w3.org/2000/svg" width="410.177" height="419.449" viewBox="0 0 410.177 419.449">
  <g id="illustration_2" data-name="illustration 2" transform="translate(-111.865 -168.281)">
    <g id="Group_3074" data-name="Group 3074" transform="matrix(1, 0.017, -0.017, 1, 150.438, 168.281)">
      <path id="blob_2_" data-name="blob (2)" d="M275.093,25.386c25.156,18.76,42,48.179,58.2,77.386,16.415,29.206,32.617,58.2,34.749,88.684,2.132,30.272-9.806,61.823-26.222,91.029C325.4,311.478,304.3,338.126,276.8,356.034c-27.287,17.907-60.97,27.074-91.456,21.745S127.57,352.623,98.79,335.355C70.223,318.3,40.591,303.8,22.257,279.927,4.136,256.264-2.686,223.22.939,192.1c3.411-30.912,17.268-59.9,33.683-86.552C51.25,78.9,70.65,54.806,95.805,35.619,120.961,16.646,151.659,3,183.85.444S249.724,6.413,275.093,25.386Z" transform="translate(0 0)" fill="#3e69b3" opacity="0.14"/>
      <g id="Shadow" transform="translate(55.01 368.932)">
        <ellipse id="Ellipse_5" data-name="Ellipse 5" cx="158.552" cy="20.67" rx="158.552" ry="20.67" transform="translate(0 0)" fill="#ebebeb"/>
      </g>
      <g id="Group_1223" data-name="Group 1223" transform="matrix(0.996, 0.087, -0.087, 0.996, 98.779, 42.477)">
        <g id="Group_1145" data-name="Group 1145" transform="translate(14.287)">
          <g id="Group_1142" data-name="Group 1142">
            <path id="Path_2005" data-name="Path 2005" d="M16.307,64.7A13.649,13.649,0,0,1,6.433,51.075c.17-2.735,1.188-5.4,1.071-8.135-.182-4.251-3-7.843-5.124-11.529S-1.167,22.863,1.307,19.4c1.6-2.245,4.438-3.257,6.381-5.215,1.9-1.918,2.805-4.575,3.824-7.075S13.852,2.03,16.2.694s5.946-.742,6.9,1.785" transform="translate(0 25.637)" fill="#263238"/>
            <path id="Path_2006" data-name="Path 2006" d="M16.907,21.384c-4.186-2.658-5.2-8.824-2.928-13.234S21.063,1.062,25.959.272A22.827,22.827,0,0,1,45.625,6.789c2.7,2.783,4.891,6.413,8.554,7.688,3.222,1.121,6.785.109,10.166.548,4.533.587,8.419,3.81,10.743,7.746s3.283,8.525,3.82,13.065c.493,4.167.819,8.739,3.71,11.779,2.818,2.966,7.271,3.594,10.777,5.7,6.595,3.97,8.732,13.8,4.381,20.148-1.388,2.024-3.38,3.88-3.54,6.329-.147,2.236,1.3,4.227,1.975,6.363,1.743,5.5-2.759,12.033-8.518,12.363-2.907.168-6.023-.966-8.63.334-2.589,1.291-3.552,4.413-5.208,6.785a12.448,12.448,0,0,1-15.179,3.921c-2.139-1.048-4.158-2.78-6.534-2.619s-4.239,2.185-6.572,2.636c-3.055.591-5.957-1.659-7.773-4.186s-3.083-5.5-5.408-7.57c-3.044-2.707-7.321-3.377-11.174-4.7a31.519,31.519,0,0,1-17.8-44.153" transform="translate(24.79)" fill="#263238"/>
            <g id="Group_1141" data-name="Group 1141" transform="translate(26.525 17.75)">
              <g id="Group_1140" data-name="Group 1140">
                <g id="Group_1139" data-name="Group 1139">
                  <g id="Group_1138" data-name="Group 1138">
                    <g id="Group_1125" data-name="Group 1125">
                      <g id="Group_1124" data-name="Group 1124">
                        <g id="Group_1123" data-name="Group 1123">
                          <g id="Group_1068" data-name="Group 1068">
                            <g id="Group_1067" data-name="Group 1067">
                              <g id="Group_1066" data-name="Group 1066">
                                <g id="Group_1065" data-name="Group 1065">
                                  <g id="Group_1064" data-name="Group 1064">
                                    <g id="Group_1063" data-name="Group 1063">
                                      <path id="Path_2007" data-name="Path 2007" d="M5.976,9.133A6.7,6.7,0,0,0,0,15.934H0l3.993,90.395c.168,10.676,15.773,16.675,27.2,16.41h0c11.543-.268,11.916-5.929,12.06-16.087.24-16.969.221-23.338.226-23.242,0,0,14.581-2.454,17.561-21.492,1.482-9.467.971-24.983.144-37.665C60.445,12.838,52.85-1.153,41.477.076Z" fill="#ffbe9d"/>
                                    </g>
                                  </g>
                                </g>
                              </g>
                            </g>
                          </g>
                          <g id="Group_1082" data-name="Group 1082" transform="translate(48.195 29.778)">
                            <g id="Group_1074" data-name="Group 1074" transform="translate(3.937 4.596)">
                              <g id="Group_1073" data-name="Group 1073">
                                <g id="Group_1072" data-name="Group 1072">
                                  <g id="Group_1071" data-name="Group 1071">
                                    <g id="Group_1070" data-name="Group 1070">
                                      <g id="Group_1069" data-name="Group 1069">
                                        <path id="Path_2008" data-name="Path 2008" d="M4.87,2.2A2.441,2.441,0,0,1,2.522,4.668,2.335,2.335,0,0,1,0,2.473,2.442,2.442,0,0,1,2.347,0,2.335,2.335,0,0,1,4.87,2.2Z" fill="#263238"/>
                                      </g>
                                    </g>
                                  </g>
                                </g>
                              </g>
                            </g>
                            <g id="Group_1081" data-name="Group 1081" transform="translate(0)">
                              <g id="Group_1080" data-name="Group 1080">
                                <g id="Group_1079" data-name="Group 1079">
                                  <g id="Group_1078" data-name="Group 1078">
                                    <g id="Group_1077" data-name="Group 1077">
                                      <g id="Group_1076" data-name="Group 1076">
                                        <g id="Group_1075" data-name="Group 1075">
                                          <path id="Path_2009" data-name="Path 2009" d="M9.647,2.555c-.3.319-2.154-1.046-4.78-1.033C2.243,1.5.318,2.853.033,2.533-.108,2.39.2,1.816,1.038,1.2A6.7,6.7,0,0,1,4.906,0,6.43,6.43,0,0,1,8.712,1.22C9.521,1.838,9.795,2.413,9.647,2.555Z" fill="#263238"/>
                                        </g>
                                      </g>
                                    </g>
                                  </g>
                                </g>
                              </g>
                            </g>
                          </g>
                          <g id="Group_1096" data-name="Group 1096" transform="translate(22.38 30.326)">
                            <g id="Group_1088" data-name="Group 1088" transform="translate(3.573 4.048)">
                              <g id="Group_1087" data-name="Group 1087">
                                <g id="Group_1086" data-name="Group 1086">
                                  <g id="Group_1085" data-name="Group 1085">
                                    <g id="Group_1084" data-name="Group 1084">
                                      <g id="Group_1083" data-name="Group 1083">
                                        <path id="Path_2010" data-name="Path 2010" d="M4.87,2.2A2.441,2.441,0,0,1,2.522,4.668,2.335,2.335,0,0,1,0,2.473,2.441,2.441,0,0,1,2.347,0,2.335,2.335,0,0,1,4.87,2.2Z" fill="#263238"/>
                                      </g>
                                    </g>
                                  </g>
                                </g>
                              </g>
                            </g>
                            <g id="Group_1095" data-name="Group 1095" transform="translate(0)">
                              <g id="Group_1094" data-name="Group 1094">
                                <g id="Group_1093" data-name="Group 1093">
                                  <g id="Group_1092" data-name="Group 1092">
                                    <g id="Group_1091" data-name="Group 1091">
                                      <g id="Group_1090" data-name="Group 1090">
                                        <g id="Group_1089" data-name="Group 1089">
                                          <path id="Path_2011" data-name="Path 2011" d="M9.648,2.555c-.3.319-2.157-1.046-4.782-1.033C2.243,1.5.318,2.853.033,2.531c-.14-.141.164-.717,1-1.329A6.694,6.694,0,0,1,4.905,0,6.43,6.43,0,0,1,8.711,1.219C9.518,1.837,9.794,2.411,9.648,2.555Z" fill="#263238"/>
                                        </g>
                                      </g>
                                    </g>
                                  </g>
                                </g>
                              </g>
                            </g>
                          </g>
                          <g id="Group_1103" data-name="Group 1103" transform="translate(40.323 30.455)">
                            <g id="Group_1102" data-name="Group 1102" transform="translate(0)">
                              <g id="Group_1101" data-name="Group 1101">
                                <g id="Group_1100" data-name="Group 1100">
                                  <g id="Group_1099" data-name="Group 1099">
                                    <g id="Group_1098" data-name="Group 1098">
                                      <g id="Group_1097" data-name="Group 1097">
                                        <path id="Path_2012" data-name="Path 2012" d="M1.278,21.88c-.013-.15,1.62-.435,4.265-.779.671-.071,1.3-.205,1.417-.664a3.415,3.415,0,0,0-.453-1.986q-.952-2.432-1.995-5.1C1.742,6.084-.265.111.028,0S2.807,5.693,5.576,12.957c.667,1.792,1.306,3.5,1.912,5.133a3.892,3.892,0,0,1,.354,2.632,1.689,1.689,0,0,1-1.1.983,4.593,4.593,0,0,1-1.138.161C2.94,22.015,1.289,22.03,1.278,21.88Z" fill="#263238"/>
                                      </g>
                                    </g>
                                  </g>
                                </g>
                              </g>
                            </g>
                          </g>
                          <g id="Group_1109" data-name="Group 1109" transform="translate(17.984 76.668)">
                            <g id="Group_1108" data-name="Group 1108">
                              <g id="Group_1107" data-name="Group 1107">
                                <g id="Group_1106" data-name="Group 1106">
                                  <g id="Group_1105" data-name="Group 1105">
                                    <g id="Group_1104" data-name="Group 1104">
                                      <path id="Path_2013" data-name="Path 2013" d="M25.5,6.743A48.4,48.4,0,0,1,0,0S6.459,13.417,25.5,11.594Z" fill="#eb996e"/>
                                    </g>
                                  </g>
                                </g>
                              </g>
                            </g>
                          </g>
                          <g id="Group_1115" data-name="Group 1115" transform="translate(32.674 56.89)">
                            <g id="Group_1114" data-name="Group 1114" transform="translate(0)">
                              <g id="Group_1113" data-name="Group 1113">
                                <g id="Group_1112" data-name="Group 1112">
                                  <g id="Group_1111" data-name="Group 1111">
                                    <g id="Group_1110" data-name="Group 1110">
                                      <path id="Path_2014" data-name="Path 2014" d="M7.831,1.777A4.733,4.733,0,0,0,3.585.029,4.324,4.324,0,0,0,.6,1.636,2.737,2.737,0,0,0,.4,4.767a3.174,3.174,0,0,0,3.444.862A9.935,9.935,0,0,0,7.2,3.619a2.909,2.909,0,0,0,.748-.779.877.877,0,0,0-.006-.977" fill="#e8505b"/>
                                    </g>
                                  </g>
                                </g>
                              </g>
                            </g>
                          </g>
                          <g id="Group_1122" data-name="Group 1122" transform="translate(33.453 54.169)">
                            <g id="Group_1121" data-name="Group 1121">
                              <g id="Group_1120" data-name="Group 1120">
                                <g id="Group_1119" data-name="Group 1119">
                                  <g id="Group_1118" data-name="Group 1118">
                                    <g id="Group_1117" data-name="Group 1117">
                                      <g id="Group_1116" data-name="Group 1116">
                                        <path id="Path_2015" data-name="Path 2015" d="M.424,0C.85-.025.863,2.825,3.308,4.843s5.478,1.7,5.5,2.1c.041.179-.675.556-1.957.594A7.1,7.1,0,0,1,2.258,5.943,6.185,6.185,0,0,1,.023,1.883C-.088.691.228-.015.424,0Z" fill="#263238"/>
                                      </g>
                                    </g>
                                  </g>
                                </g>
                              </g>
                            </g>
                          </g>
                        </g>
                      </g>
                    </g>
                    <g id="Group_1131" data-name="Group 1131" transform="translate(21.216 26.322)">
                      <g id="Group_1130" data-name="Group 1130">
                        <g id="Group_1129" data-name="Group 1129">
                          <g id="Group_1128" data-name="Group 1128">
                            <g id="Group_1127" data-name="Group 1127">
                              <g id="Group_1126" data-name="Group 1126">
                                <path id="Path_2016" data-name="Path 2016" d="M11.982,1.958c-.257.714-2.879.382-5.96.76C2.933,3.034.451,3.942.041,3.3-.142,3,.29,2.324,1.292,1.631A9.977,9.977,0,0,1,5.723.068,9.975,9.975,0,0,1,10.39.606C11.522,1.059,12.094,1.618,11.982,1.958Z" fill="#263238"/>
                              </g>
                            </g>
                          </g>
                        </g>
                      </g>
                    </g>
                    <g id="Group_1137" data-name="Group 1137" transform="translate(47.915 22.024)">
                      <g id="Group_1136" data-name="Group 1136" transform="translate(0)">
                        <g id="Group_1135" data-name="Group 1135">
                          <g id="Group_1134" data-name="Group 1134">
                            <g id="Group_1133" data-name="Group 1133">
                              <g id="Group_1132" data-name="Group 1132">
                                <path id="Path_2017" data-name="Path 2017" d="M8.944,2.71c-.46.6-2.271-.018-4.446-.042-2.175-.1-4.017.41-4.443-.214-.186-.3.1-.9.907-1.466A6.149,6.149,0,0,1,4.575,0,6.14,6.14,0,0,1,8.123,1.194C8.894,1.8,9.147,2.418,8.944,2.71Z" fill="#263238"/>
                              </g>
                            </g>
                          </g>
                        </g>
                      </g>
                    </g>
                  </g>
                </g>
              </g>
            </g>
            <path id="Path_2018" data-name="Path 2018" d="M35.982,3.417C31.622.483,25.975-.867,20.9.592s-9.284,6.033-9.456,11.2c-.11,3.362,1.34,6.936-.151,9.967-1.42,2.885-4.919,4.059-7.4,6.149A11.357,11.357,0,0,0,1.262,41.644c2.077,3.814,6.446,6.611,6.813,10.918C8.42,56.613,5,60.032,4.173,64.017c-.918,4.394,1.515,8.941,5,11.857s7.892,4.522,12.2,6.072c3.359,1.209,6.957,2.436,10.444,1.645a10.692,10.692,0,0,0,7.827-8.926,14.549,14.549,0,0,0-3.963-11.488c-2.445-2.691-5.872-4.979-6.459-8.532C28.308,49.112,34.9,44.564,34.5,38.973c-.21-2.884-2.243-5.271-3.936-7.641s-3.169-5.353-2.13-8.061c1.35-3.518,5.974-4.435,8.768-7.015A8.544,8.544,0,0,0,39.532,7.6a8.811,8.811,0,0,0-6.9-5.882" transform="translate(9.011 17.277)" fill="#263238"/>
            <path id="Path_2019" data-name="Path 2019" d="M1.279,5.544A13.208,13.208,0,0,0,5.942,15.577,13.21,13.21,0,0,0,16.64,18.4c2.907-.531,6.093-2,8.61-.451,2.647,1.628,2.756,5.619,5.1,7.657,3.355,2.911,8.688.179,12.947,1.442,3.289.976,5.344,4.119,7.528,6.764s5.458,5.159,8.747,4.183a38.588,38.588,0,0,0-1.306-8.775,12.97,12.97,0,0,0-4.983-7.149,48.391,48.391,0,0,1-4.206-2.447c-2.73-2.2-3.363-6.04-5.049-9.117a14.265,14.265,0,0,0-10.87-7.211c-3.743-.383-7.6.741-11.25-.18-2.7-.679-5.053-2.431-7.787-2.949C8.806-.847,3.858,2.972,0,6.775" transform="translate(41.667 10.859)" fill="#263238"/>
          </g>
          <g id="Group_1143" data-name="Group 1143" transform="translate(7.476 20.597)">
            <path id="Path_2020" data-name="Path 2020" d="M.71,41.3A4.128,4.128,0,0,1,.287,39.1a5.525,5.525,0,0,1,3.831-4.378A28.286,28.286,0,0,1,8.3,33.6a12.243,12.243,0,0,0,4.738-1.953,6.675,6.675,0,0,0,2.466-5.091,53.718,53.718,0,0,0-.294-5.992,13.69,13.69,0,0,1,.15-2.928,6.252,6.252,0,0,1,1.122-2.5,9.561,9.561,0,0,1,4.582-2.629A20.631,20.631,0,0,0,25.732,10.5a16.143,16.143,0,0,0,3.44-2.809,16.055,16.055,0,0,0,3.36-5.422A11.1,11.1,0,0,0,33.02.6,1.884,1.884,0,0,0,33.1,0c-.066-.018-.254.794-.836,2.161A16.939,16.939,0,0,1,28.8,7.331a17.175,17.175,0,0,1-7.946,4.541,10.106,10.106,0,0,0-4.923,2.816A6.927,6.927,0,0,0,14.652,17.5a14.241,14.241,0,0,0-.166,3.1,56.59,56.59,0,0,1,.309,5.91,6.008,6.008,0,0,1-2.167,4.61,11.844,11.844,0,0,1-4.466,1.894A27.3,27.3,0,0,0,3.922,34.25,6.685,6.685,0,0,0,.972,36.465,5.064,5.064,0,0,0,.005,39.08,3.322,3.322,0,0,0,.349,40.8,1.337,1.337,0,0,0,.71,41.3Z" fill="#455a64"/>
          </g>
          <g id="Group_1144" data-name="Group 1144" transform="translate(42.864 3.961)">
            <path id="Path_2021" data-name="Path 2021" d="M77.416,69.81a1.206,1.206,0,0,0,.312-.147,2.111,2.111,0,0,0,.714-.72,3.844,3.844,0,0,0-.389-3.759,5,5,0,0,0-2.038-1.95,26.243,26.243,0,0,0-3.06-1.292,9.439,9.439,0,0,1-3.2-1.814,6.846,6.846,0,0,1-1.828-3.609c-.321-1.43-.415-2.99-.674-4.614a10.129,10.129,0,0,0-1.888-4.8c-2.217-2.921-5.848-4.473-8.558-7.211a13.183,13.183,0,0,1-2.973-5.04,34.69,34.69,0,0,1-1.346-6.094c-.589-4.181-1.181-8.866-4-12.691a9.271,9.271,0,0,0-5.742-3.71,20.143,20.143,0,0,0-6.627.166,24.064,24.064,0,0,1-6.192.362,8.06,8.06,0,0,1-5.06-2.612c-2.6-2.8-4.09-6.574-7.282-8.5A12.161,12.161,0,0,0,7.975.45,10.659,10.659,0,0,0,1.646,5.369,11.982,11.982,0,0,0,0,11.238a10.306,10.306,0,0,0,.608,3.807,6.377,6.377,0,0,0,.562,1.22C1.209,16.249,1,15.832.75,15a10.815,10.815,0,0,1-.464-3.753A11.831,11.831,0,0,1,2,5.578,10.253,10.253,0,0,1,8.114.946a11.66,11.66,0,0,1,9.152,1.338,13.383,13.383,0,0,1,3.672,3.791,42.388,42.388,0,0,0,3.447,4.666,9.476,9.476,0,0,0,2.431,1.9,9.007,9.007,0,0,0,3.026.936,24.567,24.567,0,0,0,6.378-.345,19.624,19.624,0,0,1,6.389-.162,8.545,8.545,0,0,1,5.3,3.438,17.606,17.606,0,0,1,2.72,5.966,58.674,58.674,0,0,1,1.153,6.395,35.109,35.109,0,0,0,1.393,6.213,13.833,13.833,0,0,0,3.151,5.283c2.87,2.843,6.466,4.361,8.557,7.108A9.539,9.539,0,0,1,66.7,52c.27,1.585.379,3.156.727,4.636a7.311,7.311,0,0,0,2.011,3.831,9.788,9.788,0,0,0,3.376,1.859,26.641,26.641,0,0,1,3.041,1.216,4.742,4.742,0,0,1,1.958,1.79,3.725,3.725,0,0,1,.5,3.542A3.1,3.1,0,0,1,77.416,69.81Z" fill="#455a64"/>
          </g>
        </g>
        <g id="Group_1196" data-name="Group 1196" transform="translate(0 104.283)">
          <path id="Path_2022" data-name="Path 2022" d="M96.731,71.079,62.972,67.985S42.2,13.269,16.588,0L0,28.977,35.51,95.7h69.336Z" transform="translate(84.536 29.426)" fill="#e8505b"/>
          <path id="Path_2023" data-name="Path 2023" d="M96.731,71.079,62.972,67.985S42.2,13.269,16.588,0L0,28.977,35.51,95.7h69.336Z" transform="translate(84.536 29.426)" fill="#65c8c7"/>
          <g id="Group_1146" data-name="Group 1146" transform="translate(161.598 105.393)">
            <path id="Path_2024" data-name="Path 2024" d="M6.33,10.565c.172-.1-1.1-2.551-2.844-5.468S.189-.1.016,0s1.1,2.549,2.846,5.468S6.159,10.668,6.33,10.565Z" fill="#fafafa"/>
          </g>
          <g id="Group_1147" data-name="Group 1147" transform="translate(144.001 105.733)">
            <path id="Path_2025" data-name="Path 2025" d="M.011,9.562c.157.126,2-1.912,4.125-4.55S7.849.131,7.693.006s-2,1.911-4.125,4.551S-.146,9.436.011,9.562Z" fill="#fafafa"/>
          </g>
          <g id="Group_1148" data-name="Group 1148" transform="translate(139.495 93.896)">
            <path id="Path_2026" data-name="Path 2026" d="M.363,8.852c.2,0,.363-1.982.363-4.425S.565,0,.363,0,0,1.981,0,4.427.162,8.852.363,8.852Z" fill="#fafafa"/>
          </g>
          <g id="Group_1149" data-name="Group 1149" transform="translate(151.733 118.332)">
            <path id="Path_2027" data-name="Path 2027" d="M.007,3.983c.11.168,1.556-.581,3.227-1.676S6.173.191,6.063.024,4.509.605,2.836,1.7-.1,3.816.007,3.983Z" fill="#fafafa"/>
          </g>
          <g id="Group_1150" data-name="Group 1150" transform="translate(132.336 72.016)">
            <path id="Path_2028" data-name="Path 2028" d="M.021,0C-.162.084.882,2.814,2.352,6.1s2.814,5.882,3,5.8S4.488,9.086,3.016,5.8.2-.081.021,0Z" fill="#fafafa"/>
          </g>
          <g id="Group_1151" data-name="Group 1151" transform="translate(118.666 49.827)">
            <path id="Path_2029" data-name="Path 2029" d="M.008.019C-.113.18,1.094,1.3,2.7,2.518S5.717,4.6,5.838,4.437s-1.085-1.279-2.695-2.5S.13-.14.008.019Z" fill="#fafafa"/>
          </g>
          <path id="Path_2030" data-name="Path 2030" d="M64.55,88.491,47.141,18.175A23.92,23.92,0,0,0,19.68.383h0A23.918,23.918,0,0,0,.286,27.588L10.945,96.313a34.383,34.383,0,0,0,28.528,27.819l13.84,2.16Z" transform="translate(3.631 32.307)" fill="#65c8c7"/>
          <g id="Group_1152" data-name="Group 1152" transform="translate(13.312 24.012)">
            <path id="Path_2031" data-name="Path 2031" d="M0,4.135a15.714,15.714,0,0,1,6.21-3.121,16.557,16.557,0,0,1,7.493.052,20.329,20.329,0,0,1,8.146,4.248c5.1,4.277,7.879,9.835,9.766,13.727.932,1.978,1.642,3.6,2.15,4.72a9.708,9.708,0,0,0,.85,1.709,9.452,9.452,0,0,0-.588-1.817c-.426-1.152-1.065-2.809-1.943-4.826a52.235,52.235,0,0,0-3.58-6.862,30.525,30.525,0,0,0-6.189-7.212A20.489,20.489,0,0,0,13.858.411a16.567,16.567,0,0,0-7.769.1A13.227,13.227,0,0,0,1.372,2.791a8.906,8.906,0,0,0-1.057.956C.091,3.985-.016,4.117,0,4.135Z" fill="#263238"/>
          </g>
          <g id="Group_1153" data-name="Group 1153" transform="translate(111.946 43.969)">
            <path id="Path_2032" data-name="Path 2032" d="M0,0A3.371,3.371,0,0,0,.488.654l1.49,1.784C3.265,3.987,5.1,6.255,7.2,9.183,11.362,15,16.607,23.7,19.088,34.416c2.428,10.722,2.548,20.763,2.96,27.955.173,3.606.342,6.525.5,8.539.084.942.151,1.708.205,2.317a3.456,3.456,0,0,0,.122.805,3.354,3.354,0,0,0,.024-.813c-.017-.611-.041-1.381-.069-2.324-.066-2.116-.157-5.011-.266-8.544-.282-7.191-.315-17.269-2.766-28.1A69.481,69.481,0,0,0,7.616,8.879c-2.161-2.9-4.067-5.13-5.425-6.628C1.519,1.5.965.939.6.555A3.435,3.435,0,0,0,0,0Z" fill="#263238"/>
          </g>
          <path id="Path_2033" data-name="Path 2033" d="M.378,43.817C2.288,31.245,9.233,28.226,16.424,24.31c2.352-1.279,13.688-4.189,22.676-6.381.858-5.447,2.4-15.193,2.735-17.252C42.309-2.213,87.62,5.015,88.193,6.1c.382.718,1.424,12.009,2.084,19.535l10.848,3.792,14.159,18,7.369,10.465a56.4,56.4,0,0,1,9.127,20.09c1.785,8.016,2.031,15.835,2.031,24.349L136,148.493,41.2,175.3l-7.34-46.761L9.4,95.246C7.311,81.781-1.971,59.278.378,43.817Z" fill="#65c8c7"/>
          <g id="Group_1154" data-name="Group 1154" transform="translate(81.239 5.3)">
            <path id="Path_2034" data-name="Path 2034" d="M.05,21.787a14.668,14.668,0,0,0,.63-3.2c.3-1.99.657-4.744,1.011-7.791q.245-2.262.47-4.3a30.212,30.212,0,0,0,.25-3.554A4.266,4.266,0,0,0,1.736.577C1.37.1,1.057-.026,1.037,0,1,.052,1.24.259,1.5.728a4.549,4.549,0,0,1,.4,2.215c-.025.969-.243,2.151-.4,3.473C1.328,7.77,1.152,9.2.967,10.71c-.352,3.047-.632,5.81-.8,7.815A14.582,14.582,0,0,0,.05,21.787Z" fill="#263238"/>
          </g>
          <g id="Group_1155" data-name="Group 1155" transform="translate(69.177 3.386)">
            <path id="Path_2035" data-name="Path 2035" d="M.025,20.843a10.958,10.958,0,0,0,1.008-2.931,46.224,46.224,0,0,0,1.279-7.367A46.384,46.384,0,0,0,2.4,3.067,11.031,11.031,0,0,0,1.95,0c-.225.018.186,4.719-.362,10.477C1.072,16.238-.193,20.784.025,20.843Z" fill="#263238"/>
          </g>
          <g id="Group_1156" data-name="Group 1156" transform="translate(45.855 0.627)">
            <path id="Path_2036" data-name="Path 2036" d="M.85,20.333c.24-.025-.765-4.723.259-10.426C2.065,4.191,4.592.1,4.374,0A9.421,9.421,0,0,0,2.713,2.632,26.476,26.476,0,0,0,.171,17.3,9.414,9.414,0,0,0,.85,20.333Z" fill="#263238"/>
          </g>
          <g id="Group_1157" data-name="Group 1157" transform="translate(102.758 50.987)">
            <path id="Path_2037" data-name="Path 2037" d="M8.323,11.088c.165-.106-1.4-2.8-3.712-5.873S.159-.123.009.005,1.741,2.6,4.028,5.651,8.151,11.2,8.323,11.088Z" fill="#fafafa"/>
          </g>
          <g id="Group_1158" data-name="Group 1158" transform="translate(89.715 35.594)">
            <path id="Path_2038" data-name="Path 2038" d="M.012,9.112c.161.123,1.848-1.817,3.77-4.332S7.132.127,6.973.006,5.127,1.823,3.2,4.339-.147,8.99.012,9.112Z" fill="#fafafa"/>
          </g>
          <g id="Group_1159" data-name="Group 1159" transform="translate(67.404 33.783)">
            <path id="Path_2039" data-name="Path 2039" d="M.006.01C-.126.169,1.968,2.082,4.465,4.52S8.933,9,9.091,8.861,7.5,6.457,4.973,4,.127-.143.006.01Z" fill="#fafafa"/>
          </g>
          <g id="Group_1160" data-name="Group 1160" transform="translate(73.668 14.607)">
            <path id="Path_2040" data-name="Path 2040" d="M.009,5.883c.136.148,1.7-1.046,3.485-2.665S6.626.162,6.491.013,4.8,1.057,3.006,2.678-.125,5.734.009,5.883Z" fill="#fafafa"/>
          </g>
          <g id="Group_1161" data-name="Group 1161" transform="translate(54.123 10)">
            <path id="Path_2041" data-name="Path 2041" d="M0,.061c-.042.2,2.064.813,4.7,1.38s4.815.864,4.857.668S7.5,1.293,4.858.727.043-.136,0,.061Z" fill="#fafafa"/>
          </g>
          <g id="Group_1162" data-name="Group 1162" transform="translate(50.02 31.233)">
            <path id="Path_2042" data-name="Path 2042" d="M.192,9.783c.2.01.475-2.172.611-4.873S.888.01.686,0,.213,2.171.076,4.873-.008,9.773.192,9.783Z" fill="#fafafa"/>
          </g>
          <g id="Group_1163" data-name="Group 1163" transform="translate(57.315 44.347)">
            <path id="Path_2043" data-name="Path 2043" d="M.028,11.558c.189.068,1.285-2.463,2.447-5.652S4.43.071,4.24,0,2.955,2.464,1.792,5.655-.162,11.489.028,11.558Z" fill="#fafafa"/>
          </g>
          <g id="Group_1164" data-name="Group 1164" transform="translate(76.684 54.3)">
            <path id="Path_2044" data-name="Path 2044" d="M.025,12.1c.187.073,1.391-2.577,2.689-5.917S4.913.074,4.725,0,3.333,2.578,2.035,5.918-.163,12.026.025,12.1Z" fill="#fafafa"/>
          </g>
          <g id="Group_1165" data-name="Group 1165" transform="translate(94.889 66.435)">
            <path id="Path_2045" data-name="Path 2045" d="M.052,11.86c.2.041.9-2.582,1.571-5.857S2.677.041,2.479,0,1.579,2.582.91,5.857-.145,11.82.052,11.86Z" fill="#fafafa"/>
          </g>
          <g id="Group_1166" data-name="Group 1166" transform="translate(116.578 68.089)">
            <path id="Path_2046" data-name="Path 2046" d="M.021,10.681c.18.088,1.491-2.232,2.928-5.18S5.4.09,5.223,0,3.73,2.233,2.295,5.182-.16,10.593.021,10.681Z" fill="#fafafa"/>
          </g>
          <g id="Group_1167" data-name="Group 1167" transform="translate(117.063 92.637)">
            <path id="Path_2047" data-name="Path 2047" d="M0,.019C-.087.2,2.455,1.636,5.679,3.229s5.911,2.737,6,2.557S9.226,4.169,6,2.577.092-.162,0,.019Z" fill="#fafafa"/>
          </g>
          <g id="Group_1168" data-name="Group 1168" transform="translate(116.763 104.145)">
            <path id="Path_2048" data-name="Path 2048" d="M.033,10.483c.182.07,1.2-2.168,1.974-5.088S3.021.03,2.828,0,2.075,2.328,1.3,5.208-.161,10.411.033,10.483Z" fill="#fafafa"/>
          </g>
          <g id="Group_1169" data-name="Group 1169" transform="translate(121.269 122.15)">
            <path id="Path_2049" data-name="Path 2049" d="M.007,7.912c.137.148,2.179-1.5,4.564-3.682S8.779.157,8.644.009,6.465,1.51,4.08,3.692-.129,7.764.007,7.912Z" fill="#fafafa"/>
          </g>
          <g id="Group_1170" data-name="Group 1170" transform="translate(92.737 119.5)">
            <path id="Path_2050" data-name="Path 2050" d="M0,.031C-.052.24,3.157,1.156,6.9,2.809,10.658,4.442,13.508,6.181,13.626,6c.109-.151-2.607-2.193-6.431-3.858C3.38.46.037-.152,0,.031Z" fill="#fafafa"/>
          </g>
          <g id="Group_1171" data-name="Group 1171" transform="translate(101.051 102.065)">
            <path id="Path_2051" data-name="Path 2051" d="M.035,9.812c.189.067,1.108-2.076,2.052-4.784S3.641.067,3.452,0,2.342,2.078,1.4,4.787-.155,9.747.035,9.812Z" fill="#fafafa"/>
          </g>
          <g id="Group_1172" data-name="Group 1172" transform="translate(84.142 92.979)">
            <path id="Path_2052" data-name="Path 2052" d="M.012,0C-.158.111,1.555,3.134,3.839,6.757s4.273,6.473,4.442,6.365S6.737,9.991,4.454,6.368.182-.1.012,0Z" fill="#fafafa"/>
          </g>
          <g id="Group_1173" data-name="Group 1173" transform="translate(65.957 81.359)">
            <path id="Path_2053" data-name="Path 2053" d="M.01,13.436c.152.117,2.408-2.61,4.645-6.347S8.243.08,8.068,0C7.878-.088,6.254,3.018,4.03,6.714S-.159,13.31.01,13.436Z" fill="#fafafa"/>
          </g>
          <g id="Group_1174" data-name="Group 1174" transform="translate(55.07 76.772)">
            <path id="Path_2054" data-name="Path 2054" d="M0,.072c-.039.189,2.326.8,5.321.945S10.729.8,10.71.6C10.693.4,8.3.443,5.357.29S.037-.133,0,.072Z" fill="#fafafa"/>
          </g>
          <g id="Group_1175" data-name="Group 1175" transform="translate(29.199 56.378)">
            <path id="Path_2055" data-name="Path 2055" d="M0,.016C-.084.2,2.983,1.84,6.853,3.684s7.077,3.192,7.164,3.011-2.98-1.824-6.85-3.668S.088-.164,0,.016Z" fill="#fafafa"/>
          </g>
          <g id="Group_1176" data-name="Group 1176" transform="translate(21.908 32.187)">
            <path id="Path_2056" data-name="Path 2056" d="M5.572,11.2c.18-.089-.917-2.67-2.45-5.761S.2-.087.019,0,.936,2.671,2.471,5.764,5.392,11.292,5.572,11.2Z" fill="#fafafa"/>
          </g>
          <g id="Group_1177" data-name="Group 1177" transform="translate(10.999 40.798)">
            <path id="Path_2057" data-name="Path 2057" d="M.04,12.8c.2.046,1.018-2.839,2.123-6.358S4.234.078,4.043,0,2.577,2.664,1.468,6.22-.152,12.754.04,12.8Z" fill="#fafafa"/>
          </g>
          <g id="Group_1178" data-name="Group 1178" transform="translate(8.463 67.098)">
            <path id="Path_2058" data-name="Path 2058" d="M0,.028C-.067.209,2.63,1.377,6.135,2.27s6.428,1.176,6.456.984-2.814-.8-6.276-1.69S.073-.167,0,.028Z" fill="#fafafa"/>
          </g>
          <g id="Group_1179" data-name="Group 1179" transform="translate(35.311 68.272)">
            <path id="Path_2059" data-name="Path 2059" d="M1.32,15.378C1.531,15.336.932,11.934.763,7.7.573,3.465.88.025.666,0,.483-.032-.157,3.422.036,7.73.209,12.038,1.14,15.426,1.32,15.378Z" fill="#fafafa"/>
          </g>
          <g id="Group_1180" data-name="Group 1180" transform="translate(42.243 89.699)">
            <path id="Path_2060" data-name="Path 2060" d="M.007,10.952c.129.141,2.587-1.946,5.113-5S9.254.1,9.092,0C8.915-.112,7.065,2.479,4.559,5.487S-.14,10.8.007,10.952Z" fill="#fafafa"/>
          </g>
          <g id="Group_1181" data-name="Group 1181" transform="translate(13.999 97.05)">
            <path id="Path_2061" data-name="Path 2061" d="M0,.023C-.077.207,2.534,1.474,5.83,2.851s6.033,2.343,6.109,2.158S9.408,3.556,6.111,2.18.079-.163,0,.023Z" fill="#fafafa"/>
          </g>
          <g id="Group_1182" data-name="Group 1182" transform="translate(23.673 113.696)">
            <path id="Path_2062" data-name="Path 2062" d="M.449,15.375c.2,0,.33-3.445.288-7.692S.5,0,.295,0-.035,3.444.008,7.692.249,15.378.449,15.375Z" fill="#fafafa"/>
          </g>
          <g id="Group_1183" data-name="Group 1183" transform="translate(41.909 111.78)">
            <path id="Path_2063" data-name="Path 2063" d="M3.9,15.454c.19-.025-.159-3.608-1.241-7.9S.2-.066.024,0c-.2.07.867,3.472,1.928,7.729S3.691,15.485,3.9,15.454Z" fill="#fafafa"/>
          </g>
          <g id="Group_1184" data-name="Group 1184" transform="translate(44.81 135.525)">
            <path id="Path_2064" data-name="Path 2064" d="M0,.106C-.011.316,3.473.65,7.721,1.357s7.657,1.5,7.714,1.3c.055-.183-3.3-1.312-7.6-2.016S.007-.085,0,.106Z" fill="#fafafa"/>
          </g>
          <g id="Group_1185" data-name="Group 1185" transform="translate(59.976 121.116)">
            <path id="Path_2065" data-name="Path 2065" d="M8.821,9.13c.144-.14-1.711-2.3-4.144-4.814S.153-.133.008.007,1.719,2.3,4.152,4.822,8.677,9.27,8.821,9.13Z" fill="#fafafa"/>
          </g>
          <g id="Group_1186" data-name="Group 1186" transform="translate(84.279 134.443)">
            <path id="Path_2066" data-name="Path 2066" d="M.052,10.919c.207.039.827-2.475,1.888-5.469S4.08.1,3.894,0c-.166-.1-1.57,2.144-2.64,5.205S-.137,10.889.052,10.919Z" fill="#fafafa"/>
          </g>
          <g id="Group_1187" data-name="Group 1187" transform="translate(59.254 147.886)">
            <path id="Path_2067" data-name="Path 2067" d="M0,6.112C.084,6.3,3.223,5.081,7.014,3.4S13.813.2,13.73.018,10.51,1.05,6.718,2.733-.079,5.929,0,6.112Z" fill="#fafafa"/>
          </g>
          <g id="Group_1188" data-name="Group 1188" transform="translate(99.607 141.465)">
            <path id="Path_2068" data-name="Path 2068" d="M3.357,10c.19-.063-.4-2.352-1.315-5.113S.227-.062.036,0s.4,2.354,1.315,5.114S3.167,10.062,3.357,10Z" fill="#fafafa"/>
          </g>
          <g id="Group_1189" data-name="Group 1189" transform="translate(74.166 154.851)">
            <path id="Path_2069" data-name="Path 2069" d="M0,1.488C.041,1.7,4.016,1.056,8.958.8,13.9.53,17.921.748,17.938.533,17.96.349,13.922-.2,8.919.076,3.917.333-.04,1.306,0,1.488Z" fill="#fafafa"/>
          </g>
          <g id="Group_1190" data-name="Group 1190" transform="translate(50.163 58.403)">
            <path id="Path_2070" data-name="Path 2070" d="M18.018,56.719a1.649,1.649,0,0,0,.038-.551,5.183,5.183,0,0,0-.225-1.586,3.51,3.51,0,0,0-1.519-2.08,4.883,4.883,0,0,0-3.412-.563l.285.166c-1.531-5.36-3.974-13.192-6.42-21.967C4.474,21.922,2.93,14.355,1.845,8.869l-1.28-6.5A15.71,15.71,0,0,0,.013,0,15.386,15.386,0,0,0,.287,2.418C.506,3.968.863,6.2,1.339,8.964A218.807,218.807,0,0,0,6.064,30.331c2.452,8.8,4.983,16.6,6.656,21.917l.066.207.221-.041a4.534,4.534,0,0,1,3.107.415,3.271,3.271,0,0,1,1.466,1.838A19.365,19.365,0,0,1,18.018,56.719Z" fill="#263238"/>
          </g>
          <g id="Group_1191" data-name="Group 1191" transform="translate(36.833 110.312)">
            <path id="Path_2071" data-name="Path 2071" d="M.007,24.25c.119.054.978-1.838,2.756-4.659A48.051,48.051,0,0,1,21.778,2.31c2.977-1.5,4.944-2.176,4.9-2.3a5.669,5.669,0,0,0-1.416.372,31.464,31.464,0,0,0-3.708,1.465A43.561,43.561,0,0,0,2.323,19.323,31.747,31.747,0,0,0,.51,22.875,5.648,5.648,0,0,0,.007,24.25Z" fill="#263238"/>
          </g>
          <g id="Group_1192" data-name="Group 1192" transform="translate(36.105 109.293)" opacity="0.2">
            <path id="Path_2072" data-name="Path 2072" d="M26.62,0C21.275.384,16.9.787,11.879,2.668S2.223,8.149.378,13.179c-.443,1.206-.653,2.728.261,3.631a2.588,2.588,0,0,0,2.649.426A7.009,7.009,0,0,0,5.6,15.645c3.082-2.85,6.274-5.367,9.456-8.106s7.8-5.619,11.952-6.253"/>
          </g>
          <g id="Group_1193" data-name="Group 1193" transform="translate(72.8 90.576)">
            <path id="Path_2073" data-name="Path 2073" d="M0,9.8a6.478,6.478,0,0,0,1.458.843,25.4,25.4,0,0,0,4.3,1.621,29.143,29.143,0,0,0,15.065.172A29.159,29.159,0,0,0,33.9,4.958a25.483,25.483,0,0,0,2.967-3.51A6.453,6.453,0,0,0,37.734,0c-.117-.088-1.389,1.964-4.188,4.583A30.362,30.362,0,0,1,20.64,11.734a30.363,30.363,0,0,1-14.75.035C2.17,10.842.059,9.67,0,9.8Z" fill="#263238"/>
          </g>
          <g id="Group_1194" data-name="Group 1194" transform="translate(79.134 91.658)" opacity="0.2">
            <path id="Path_2074" data-name="Path 2074" d="M30.641,0c-2.352,5.119-5.117,10.268-9.58,13.7-2.573,1.981-5.581,3.647-8.828,3.7C7.567,17.482,3.56,14.3,0,11.283,11.533,13.088,24.532,7.857,30.641,0"/>
          </g>
          <g id="Group_1195" data-name="Group 1195" transform="translate(57.655 1.941)">
            <path id="Path_2075" data-name="Path 2075" d="M.443,21.221c.222-.013-.046-4.8.53-10.656C1.52,4.7,2.691.055,2.476,0a11.491,11.491,0,0,0-.97,3A53.853,53.853,0,0,0,.06,18.093,11.529,11.529,0,0,0,.443,21.221Z" fill="#263238"/>
          </g>
        </g>
        <g id="Group_1204" data-name="Group 1204" transform="translate(211.473 314.496)">
          <path id="Path_2076" data-name="Path 2076" d="M12.422,0S27.614,3.283,41.176,1.25c12.715-1.907,41.186.066,41.176,16.825-.013,18.691-37.977,14.072-52.79,11.109S0,23.537,0,23.537Z" transform="translate(0 0)" fill="#1e1e1e"/>
          <g id="Group_1197" data-name="Group 1197" transform="translate(46.475 10.775)">
            <path id="Path_2077" data-name="Path 2077" d="M.042,13.17c.2.045,1.018-2.868,1.835-6.505S3.2.045,3,0,1.985,2.869,1.167,6.506-.153,13.127.042,13.17Z" fill="#e2be2d"/>
          </g>
          <g id="Group_1198" data-name="Group 1198" transform="translate(41.267 10.753)">
            <path id="Path_2078" data-name="Path 2078" d="M.068,13.438c.2.028.773-2.959,1.282-6.669S2.11.027,1.912,0,1.139,2.958.63,6.67-.13,13.411.068,13.438Z" fill="#e2be2d"/>
          </g>
          <g id="Group_1199" data-name="Group 1199" transform="translate(36.245 10.494)">
            <path id="Path_2079" data-name="Path 2079" d="M.086,11.743c.2.025.679-2.584,1.071-5.827S1.7.024,1.5,0,.824,2.585.433,5.829-.112,11.719.086,11.743Z" fill="#e2be2d"/>
          </g>
          <g id="Group_1200" data-name="Group 1200" transform="translate(28.442 9.93)">
            <path id="Path_2080" data-name="Path 2080" d="M.031,10.348c.176.076,1.255-2.1,1.954-5S2.734.013,2.543,0c-.208-.02-.57,2.333-1.265,5.172S-.163,10.269.031,10.348Z" fill="#e2be2d"/>
          </g>
          <g id="Group_1201" data-name="Group 1201" transform="translate(16.799 1.721)">
            <path id="Path_2081" data-name="Path 2081" d="M9.99,11.724A6.535,6.535,0,0,0,8,11.592a16.838,16.838,0,0,0-5.334,1.044,5.937,5.937,0,0,0-1.642.885A2.493,2.493,0,0,0,0,15.373a2.809,2.809,0,0,0,3.44,2.5,7.075,7.075,0,0,0,3.965-2.823,12.061,12.061,0,0,0,2.243-4.673A11.867,11.867,0,0,0,7.977.7,1.929,1.929,0,0,0,6.849.018,1.532,1.532,0,0,0,5.585.413a3.4,3.4,0,0,0-.951,2.039,10.372,10.372,0,0,0,.2,3.8A10.558,10.558,0,0,0,7.4,11.047a8.273,8.273,0,0,0,1.108.984c.278.194.429.285.444.266.042-.052-.53-.477-1.34-1.437A10.916,10.916,0,0,1,5.338,6.141a10.039,10.039,0,0,1-.106-3.6A2.833,2.833,0,0,1,6.008.895a.974.974,0,0,1,1.466.245,11.4,11.4,0,0,1,1.468,9.066,11.489,11.489,0,0,1-2.1,4.4,6.5,6.5,0,0,1-3.522,2.6A2.2,2.2,0,0,1,.6,15.387a1.926,1.926,0,0,1,.781-1.433,5.507,5.507,0,0,1,1.472-.839,18.508,18.508,0,0,1,5.165-1.24C9.281,11.759,9.988,11.783,9.99,11.724Z" fill="#e2be2d"/>
          </g>
          <g id="Group_1202" data-name="Group 1202" transform="translate(1.503 0.332)">
            <path id="Path_2082" data-name="Path 2082" d="M0,20.732a1.646,1.646,0,0,0,.383.122l1.139.284,4.4,1c3.833.843,9.39,2.025,16.295,3.359s15.156,2.839,24.4,4.1a65.9,65.9,0,0,0,14.662.731,31.5,31.5,0,0,0,7.679-1.468,21.088,21.088,0,0,0,3.686-1.638,11.382,11.382,0,0,0,3.237-2.607l-.056.061a7.709,7.709,0,0,0,1.321-1.585,9.885,9.885,0,0,0,.773-8.18,13.075,13.075,0,0,0-4.87-6.367,24.749,24.749,0,0,0-6.923-3.43c-1.212-.344-2.392-.759-3.592-1.032-1.206-.24-2.385-.561-3.574-.725-9.521-1.5-18.182-.739-25.376-.737-3.608.067-6.866-.031-9.721-.205A65.068,65.068,0,0,1,16.6,1.5L13.977.947,12.09.409,10.925.089A1.849,1.849,0,0,0,10.519,0,1.688,1.688,0,0,0,10.9.159l1.146.39q.784.256,1.876.608l2.618.618a60.78,60.78,0,0,0,7.3,1.048c2.867.215,6.142.349,9.755.316,7.211.06,15.866-.642,25.261.883,1.175.166,2.334.488,3.524.727,1.182.272,2.34.686,3.531,1.026a24.1,24.1,0,0,1,6.722,3.346,12.38,12.38,0,0,1,4.606,6.014,9.184,9.184,0,0,1-.7,7.57,7.018,7.018,0,0,1-1.191,1.43l-.024.024-.032.04a10.9,10.9,0,0,1-3,2.394,20.47,20.47,0,0,1-3.553,1.582,30.968,30.968,0,0,1-7.509,1.445,65.818,65.818,0,0,1-14.517-.684C37.48,27.719,29.23,26.258,22.315,25S9.832,22.626,5.984,21.867L1.553,21,.4,20.783A1.765,1.765,0,0,0,0,20.732Z" fill="#e2be2d"/>
          </g>
          <g id="Group_1203" data-name="Group 1203" transform="translate(56.896 3.762)">
            <path id="Path_2083" data-name="Path 2083" d="M.157,26.3A25.121,25.121,0,0,0,.525,22.42c.172-2.4.457-5.7.942-9.329S2.549,6.2,3.013,3.843A24.93,24.93,0,0,0,3.679,0,17.707,17.707,0,0,0,2.511,3.729,85.606,85.606,0,0,0,.01,22.4,17.668,17.668,0,0,0,.157,26.3Z" fill="#e2be2d"/>
          </g>
          <path id="Path_2084" data-name="Path 2084" d="M17.1.809,7.471,24.92,0,23.537,14.307,0Z" transform="translate(0)" fill="#1e1e1e" opacity="0.4"/>
        </g>
        <path id="Path_2085" data-name="Path 2085" d="M0,40.1c1.549.516,101.032-27.362,141.263-38.674a38.215,38.215,0,0,1,31.112,4.709l.485.313A38.221,38.221,0,0,1,189.317,47.2h0a38.2,38.2,0,0,1-17.252,23.922c-26.53,16.253-82.676,50.447-84.394,49.782-2.249-.872-72.368-2.691-72.368-2.691L99.658,57.542,59.527,83.478,0,40.1Z" transform="translate(103.111 209.115)" fill="#363636"/>
        <path id="Path_2086" data-name="Path 2086" d="M130.766,10.94,109.618,0,88.881,13,11.238,15.537,0,53.336,112.377,27.285s20.454,1.81,21.986-2.787S130.766,10.94,130.766,10.94Z" transform="translate(55.402 208.002)" fill="#ffbe9d"/>
        <path id="Path_2087" data-name="Path 2087" d="M82.265,28.283,92.717,62.608l-1.3,10.461h0a53.706,53.706,0,0,1-70.838,4.775h0A52.63,52.63,0,0,1,0,35.865L.157,0Z" transform="translate(40.293 251.234)" fill="#363636"/>
        <g id="Group_1205" data-name="Group 1205" transform="translate(184.804 239.64)">
          <path id="Path_2088" data-name="Path 2088" d="M0,40.1c.12.162,12.254-8.684,27.1-19.756S53.885.163,53.765,0s-12.253,8.683-27.1,19.758S-.119,39.94,0,40.1Z" fill="#455a64"/>
        </g>
        <g id="Group_1206" data-name="Group 1206" transform="translate(166.445 214.837)">
          <path id="Path_2089" data-name="Path 2089" d="M0,.018c-.062.192,4.571,1.846,10.345,3.7s10.5,3.194,10.566,3-4.569-1.846-10.345-3.7S.062-.173,0,.018Z" fill="#eb996e"/>
        </g>
        <g id="Group_1207" data-name="Group 1207" transform="translate(164.864 221.249)">
          <path id="Path_2090" data-name="Path 2090" d="M0,.05A22.123,22.123,0,0,0,3.6.727c2.227.363,5.293.91,8.644,1.679s6.349,1.619,8.511,2.266a21.912,21.912,0,0,0,3.535.963,15.8,15.8,0,0,0-3.374-1.452A75.1,75.1,0,0,0,12.409,1.7,75.2,75.2,0,0,0,3.671.217,15.8,15.8,0,0,0,0,.05Z" fill="#eb996e"/>
        </g>
        <g id="Group_1208" data-name="Group 1208" transform="translate(166.635 227.186)">
          <path id="Path_2091" data-name="Path 2091" d="M0,.028c-.039.2,5.177,1.4,11.65,2.681S23.405,4.874,23.445,4.675s-5.177-1.4-11.652-2.681S.039-.17,0,.028Z" fill="#eb996e"/>
        </g>
        <g id="Group_1209" data-name="Group 1209" transform="translate(118.047 166.914)">
          <path id="Path_2092" data-name="Path 2092" d="M76.023,1.319,56.516,65.5a1.861,1.861,0,0,1-1.64,1.314L1.719,70.807A1.858,1.858,0,0,0,0,72.661v3.318a1.859,1.859,0,0,0,1.894,1.859l145.31-2.73a1.863,1.863,0,0,0,1.7-1.2L174.46,6.963a1.858,1.858,0,0,0-1.649-2.52L77.889,0A1.858,1.858,0,0,0,76.023,1.319Z" fill="#455a64"/>
          <path id="Path_2093" data-name="Path 2093" d="M6.1.309A4.585,4.585,0,0,1,8.98,3.574a4.4,4.4,0,0,1-1.879,4,4.779,4.779,0,0,1-5.311.2A4.428,4.428,0,0,1,.341,2.407C.982.634,4.226-.605,6.1.309" transform="translate(110.865 28.666)" fill="#e0e0e0"/>
        </g>
        <g id="Group_1222" data-name="Group 1222" transform="translate(39.721 213.949)">
          <path id="Path_2094" data-name="Path 2094" d="M171.752,124.083l15.358-25.267L74.17,10.3A45.378,45.378,0,0,0,49.5.192h0A45.383,45.383,0,0,0,.162,49.166l1.8,21.6,74.966,24.09Z" fill="#363636"/>
          <g id="Group_1210" data-name="Group 1210" transform="translate(26.918 64.091)">
            <path id="Path_2095" data-name="Path 2095" d="M0,0A1.7,1.7,0,0,0,.3.279l.923.76,3.6,2.871Q6,4.843,7.431,5.972c.953.756,2.076,1.456,3.236,2.276l3.752,2.572c.667.452,1.342.932,2.056,1.394l2.242,1.35c3.069,1.831,6.381,3.931,10.136,5.827,1.862.974,3.761,2.037,5.768,3.029l6.241,2.958c8.6,3.919,18.228,7.862,28.552,11.372,20.629,7.109,39.7,12.226,53.36,16.368,3.426,1.008,6.512,1.95,9.215,2.805,2.709.837,5.043,1.558,6.931,2.2l4.372,1.42c.471.144.847.261,1.143.352a1.679,1.679,0,0,0,.4.1,1.7,1.7,0,0,0-.373-.166l-1.12-.421-4.33-1.551c-1.877-.684-4.2-1.445-6.9-2.319-2.693-.893-5.773-1.872-9.189-2.91-13.631-4.27-32.679-9.465-53.272-16.563-10.307-3.5-19.919-7.418-28.511-11.294L34.9,21.845c-2.007-.98-3.905-2.028-5.768-2.987-3.757-1.869-7.074-3.935-10.152-5.734q-1.151-.679-2.249-1.325c-.716-.451-1.394-.925-2.064-1.367L10.9,7.913c-1.169-.8-2.3-1.484-3.264-2.222S5.79,4.291,4.99,3.685C3.428,2.511,2.2,1.587,1.314.926L.347.222A1.728,1.728,0,0,0,0,0Z" fill="#455a64"/>
          </g>
          <g id="Group_1211" data-name="Group 1211" transform="translate(24.178 75.895)">
            <path id="Path_2096" data-name="Path 2096" d="M0,.011a4.367,4.367,0,0,0,1.139.6C1.89.952,3,1.4,4.38,1.916a82.156,82.156,0,0,0,11.076,3.2A82.177,82.177,0,0,0,26.871,6.75c1.472.1,2.666.143,3.492.137a4.4,4.4,0,0,0,1.283-.076,42.9,42.9,0,0,0-4.727-.574C24,5.911,19.984,5.345,15.608,4.409S7.342,2.332,4.548,1.43A43.123,43.123,0,0,0,0,.011Z" fill="#455a64"/>
          </g>
          <g id="Group_1212" data-name="Group 1212" transform="translate(78.69 14.547)">
            <path id="Path_2097" data-name="Path 2097" d="M0,0C-.122.159,24.05,19.154,53.984,42.42s54.312,42.008,54.436,41.85S84.376,65.12,54.431,41.845.124-.158,0,0Z" fill="#455a64"/>
          </g>
          <g id="Group_1221" data-name="Group 1221" transform="translate(79.81 95.976)">
            <g id="Group_1214" data-name="Group 1214" transform="translate(0)">
              <path id="Path_2098" data-name="Path 2098" d="M5.408,12.5c5.418-2.889,11.5-1.181,16.682.566,3.451,1.163,7.036,3.005,10.54,2.018,2.534-.714,4.418-2.768,6.354-4.553A39.938,39.938,0,0,1,68.178.073,11.889,11.889,0,0,1,76.2,3.7C81.516,9.46,77.5,16.96,72.748,21.806A52.539,52.539,0,0,1,41,37.121c-9.909,1.034-23.534-.334-33.584-4.636-6.195-2.653-9.375-9.962-6.124-15.864A10.179,10.179,0,0,1,5.408,12.5Z" fill="#1e1e1e"/>
              <g id="Group_1213" data-name="Group 1213" transform="translate(0.282 4.611)" opacity="0.4">
                <path id="Path_2099" data-name="Path 2099" d="M5.137,12.5c5.418-2.889,11.5-1.181,16.683.566,3.45,1.163,7.035,3.005,10.539,2.018,2.534-.714,4.42-2.767,6.354-4.552A39.942,39.942,0,0,1,67.908.073,11.893,11.893,0,0,1,75.925,3.7a9.246,9.246,0,0,1,2.234,4.039c-.788,3.465-3.12,6.846-5.68,9.457A52.543,52.543,0,0,1,40.73,32.51c-9.909,1.034-23.534-.334-33.582-4.636A12.255,12.255,0,0,1,0,19.355a10.346,10.346,0,0,1,1.025-2.733A10.177,10.177,0,0,1,5.137,12.5Z" fill="#e1e1e1"/>
              </g>
            </g>
            <g id="Group_1215" data-name="Group 1215" transform="translate(0.274 4.339)">
              <path id="Path_2100" data-name="Path 2100" d="M.008,19.627a9.408,9.408,0,0,1,1.328-3.209,10.506,10.506,0,0,1,2.9-2.835,11.58,11.58,0,0,1,4.98-1.907C13.238,11.2,17.9,12.9,23.075,14.3c2.559.676,5.355,1.714,8.414,1.329a11.155,11.155,0,0,0,4.329-1.5,26.907,26.907,0,0,0,3.721-2.8A40.5,40.5,0,0,1,61.726.814,23.193,23.193,0,0,1,68.282.776a14.286,14.286,0,0,1,5.072,1.77,12.934,12.934,0,0,1,3.107,2.633,31.441,31.441,0,0,1,2,2.888A11.241,11.241,0,0,0,76.68,5a12.69,12.69,0,0,0-3.113-2.8,14.493,14.493,0,0,0-5.2-1.932A23.352,23.352,0,0,0,61.653.216a38.606,38.606,0,0,0-7.51,1.673,43.462,43.462,0,0,0-7.777,3.433,32.407,32.407,0,0,0-3.785,2.464c-1.2.945-2.347,1.982-3.517,2.991a26.678,26.678,0,0,1-3.615,2.731A10.466,10.466,0,0,1,31.4,14.921c-2.835.375-5.553-.594-8.149-1.269-5.154-1.35-9.895-3.037-14.1-2.485a11.654,11.654,0,0,0-8.052,5.1,7.521,7.521,0,0,0-1,2.446A3.439,3.439,0,0,0,.008,19.627Z" fill="#263238"/>
            </g>
            <g id="Group_1216" data-name="Group 1216" transform="translate(0.274 4.339)">
              <path id="Path_2101" data-name="Path 2101" d="M.008,19.627a9.408,9.408,0,0,1,1.328-3.209,10.506,10.506,0,0,1,2.9-2.835,11.58,11.58,0,0,1,4.98-1.907C13.238,11.2,17.9,12.9,23.075,14.3c2.559.676,5.355,1.714,8.414,1.329a11.155,11.155,0,0,0,4.329-1.5,26.907,26.907,0,0,0,3.721-2.8A40.5,40.5,0,0,1,61.726.814,23.193,23.193,0,0,1,68.282.776a14.286,14.286,0,0,1,5.072,1.77,12.934,12.934,0,0,1,3.107,2.633,31.441,31.441,0,0,1,2,2.888A11.241,11.241,0,0,0,76.68,5a12.69,12.69,0,0,0-3.113-2.8,14.493,14.493,0,0,0-5.2-1.932A23.352,23.352,0,0,0,61.653.216a38.606,38.606,0,0,0-7.51,1.673,43.462,43.462,0,0,0-7.777,3.433,32.407,32.407,0,0,0-3.785,2.464c-1.2.945-2.347,1.982-3.517,2.991a26.678,26.678,0,0,1-3.615,2.731A10.466,10.466,0,0,1,31.4,14.921c-2.835.375-5.553-.594-8.149-1.269-5.154-1.35-9.895-3.037-14.1-2.485a11.654,11.654,0,0,0-8.052,5.1,7.521,7.521,0,0,0-1,2.446A3.439,3.439,0,0,0,.008,19.627Z" fill="#e2be2d"/>
            </g>
            <g id="Group_1217" data-name="Group 1217" transform="translate(46.74 12.901)">
              <path id="Path_2102" data-name="Path 2102" d="M20.732,9.761a13.9,13.9,0,0,0-2.775-1.922A78.375,78.375,0,0,0,10.78,4.008,78.4,78.4,0,0,0,3.249.925,13.889,13.889,0,0,0,0,.015,17.587,17.587,0,0,0,3.066,1.407c1.913.8,4.545,1.918,7.405,3.26s5.4,2.657,7.233,3.622A17.5,17.5,0,0,0,20.732,9.761Z" fill="#263238"/>
            </g>
            <g id="Group_1218" data-name="Group 1218" transform="translate(44.13 17.686)">
              <path id="Path_2103" data-name="Path 2103" d="M21.48,10.394c.088-.182-4.65-2.653-10.579-5.52S.089-.171,0,.011s4.65,2.652,10.582,5.52S21.393,10.575,21.48,10.394Z" fill="#263238"/>
            </g>
            <g id="Group_1219" data-name="Group 1219" transform="translate(43.165 14.423)">
              <path id="Path_2104" data-name="Path 2104" d="M0,16.007c.108.169,5.88-3.275,12.893-7.693S25.507.175,25.4.006,19.521,3.28,12.506,7.7-.1,15.837,0,16.007Z" fill="#263238"/>
            </g>
            <g id="Group_1220" data-name="Group 1220" transform="translate(39.915 11.614)">
              <path id="Path_2105" data-name="Path 2105" d="M0,13.194a17.257,17.257,0,0,0,2.826-1.888c1.7-1.224,4.041-2.917,6.663-4.736s5.03-3.417,6.772-4.579A17.168,17.168,0,0,0,19.025.008a14.566,14.566,0,0,0-3.032,1.547c-1.818,1.053-4.28,2.591-6.916,4.417S4.139,9.564,2.516,10.9A14.584,14.584,0,0,0,0,13.194Z" fill="#263238"/>
            </g>
          </g>
        </g>
      </g>
    </g>
    <path id="Path_2381" data-name="Path 2381" d="M2333.35,1554.373c4.4-29.484,31.6-66.627,37.352-73.228-35.785-4.373-44.582,51.031-42.964,77.851Z" transform="translate(-2173.143 -1073.072)" fill="#3db390" fill-rule="evenodd"/>
    <path id="Path_2382" data-name="Path 2382" d="M2232.072,1599.237c-7.527-28.1-33.568-45.818-38.751-51.762,35.191-10.179,45.263,31.772,43.806,55.925Z" transform="translate(-2081.456 -1117.477)" fill="#3db390" fill-rule="evenodd"/>
    <path id="Path_2383" data-name="Path 2383" d="M2279.11,1551.142c-2.046-28.583-16.758-72.985-21.51-78.689,33.2-.511,27.459,55.485,25.728,78.214Z" transform="translate(-2125.36 -1067.3)" fill="#84cdb3" fill-rule="evenodd"/>
    <path id="Path_2384" data-name="Path 2384" d="M2346.157,1614.66c5.85-23.423,31.377-48.277,46.836-57.221-37.331-9.681-51.693,34.406-52.353,60.748Z" transform="translate(-2182.079 -1124.418)" fill="#84cdb3" fill-rule="evenodd"/>
    <path id="Path_2385" data-name="Path 2385" d="M2313.76,1727.278h-47.073v37.373c0,20.555,4.689,37.372,15.65,37.372h17.043c10.961,0,14.38-16.816,14.38-37.372Z" transform="translate(-2131.566 -1235.386)" fill="#f6891f" fill-rule="evenodd"/>
    <rect id="Rectangle_443" data-name="Rectangle 443" width="47.073" height="7.622" transform="translate(135.12 487.649)" fill="#152b5d"/>
    <path id="Path_2386" data-name="Path 2386" d="M2308.137,1711.017h-45.7a2.986,2.986,0,0,0-2.978,2.978h0a2.986,2.986,0,0,0,2.978,2.978h45.7a2.986,2.986,0,0,0,2.977-2.978h0a2.986,2.986,0,0,0-2.977-2.978" transform="translate(-2126.631 -1227.184)" fill="#f6891f" fill-rule="evenodd"/>
  </g>
</svg>
