<svg xmlns="http://www.w3.org/2000/svg" width="17.563" height="17.563" viewBox="0 0 17.563 17.563">
  <defs>
    <style>
      .cls-1 {
        fill: #082b84;
      }
    </style>
  </defs>
  <path id="Icon_awesome-copyright" data-name="Icon awesome-copyright" class="cls-1" d="M9.344.563a8.781,8.781,0,1,0,8.781,8.781A8.781,8.781,0,0,0,9.344.563ZM13.491,12.84A5.286,5.286,0,0,1,9.6,14.46,4.988,4.988,0,0,1,4.486,9.305a4.986,4.986,0,0,1,5.09-5.078,5.1,5.1,0,0,1,3.662,1.378.425.425,0,0,1,.044.518L12.489,7.35a.425.425,0,0,1-.646.081,3.6,3.6,0,0,0-2.191-.846A2.534,2.534,0,0,0,7.036,9.28,2.65,2.65,0,0,0,9.666,12.1a3.471,3.471,0,0,0,2.321-1.014.425.425,0,0,1,.655.037l.869,1.189a.425.425,0,0,1-.02.526Z" transform="translate(-0.563 -0.563)"/>
</svg>
