<svg xmlns="http://www.w3.org/2000/svg" xmlns:xlink="http://www.w3.org/1999/xlink" width="539.358" height="405.934" viewBox="0 0 539.358 405.934">
  <defs>
    <filter id="Path_2406" x="16.896" y="208.936" width="133.493" height="56.5" filterUnits="userSpaceOnUse">
      <feOffset dy="3" input="SourceAlpha"/>
      <feGaussianBlur stdDeviation="3" result="blur"/>
      <feFlood flood-opacity="0.161"/>
      <feComposite operator="in" in2="blur"/>
      <feComposite in="SourceGraphic"/>
    </filter>
    <filter id="Rectangle_39" x="204.065" y="0" width="114.117" height="58" filterUnits="userSpaceOnUse">
      <feOffset dy="3" input="SourceAlpha"/>
      <feGaussianBlur stdDeviation="3" result="blur-2"/>
      <feFlood flood-opacity="0.161"/>
      <feComposite operator="in" in2="blur-2"/>
      <feComposite in="SourceGraphic"/>
    </filter>
    <filter id="Rectangle_39-2" x="413.219" y="194.436" width="97" height="57" filterUnits="userSpaceOnUse">
      <feOffset dy="3" input="SourceAlpha"/>
      <feGaussianBlur stdDeviation="3" result="blur-3"/>
      <feFlood flood-opacity="0.161"/>
      <feComposite operator="in" in2="blur-3"/>
      <feComposite in="SourceGraphic"/>
    </filter>
    <filter id="Path_2405" x="352.396" y="64.992" width="125.264" height="58.44" filterUnits="userSpaceOnUse">
      <feOffset dy="3" input="SourceAlpha"/>
      <feGaussianBlur stdDeviation="3" result="blur-4"/>
      <feFlood flood-opacity="0.161"/>
      <feComposite operator="in" in2="blur-4"/>
      <feComposite in="SourceGraphic"/>
    </filter>
    <filter id="Rectangle_39-3" x="48.688" y="92.002" width="105" height="57" filterUnits="userSpaceOnUse">
      <feOffset dy="3" input="SourceAlpha"/>
      <feGaussianBlur stdDeviation="3" result="blur-5"/>
      <feFlood flood-opacity="0.161"/>
      <feComposite operator="in" in2="blur-5"/>
      <feComposite in="SourceGraphic"/>
    </filter>
    <filter id="Rectangle_39-4" x="164.565" y="115.502" width="97" height="57" filterUnits="userSpaceOnUse">
      <feOffset dy="3" input="SourceAlpha"/>
      <feGaussianBlur stdDeviation="3" result="blur-6"/>
      <feFlood flood-opacity="0.161"/>
      <feComposite operator="in" in2="blur-6"/>
      <feComposite in="SourceGraphic"/>
    </filter>
  </defs>
  <g id="Group_2778" data-name="Group 2778" transform="translate(-738.312 -173.787)">
    <g id="Map" transform="translate(757.264 179.787)">
      <g id="Group_59" data-name="Group 59" transform="translate(0 0)" opacity="0.15">
        <path id="Path_17" data-name="Path 17" d="M140.236,132.108c4.692-3.442.906,5.774,0,0Zm-3.807.339a1.587,1.587,0,0,0,1.77-1.924C137.767,130.749,134.289,132.448,136.429,132.448Zm7.615-28.167c.988-.509,1.585-1.165,2.778-1.3-1.77-1.822-4.177-1.482-6.44-1.448C140.4,103.941,141.882,104.915,144.044,104.281ZM365.169,228.066c-.821,1.154-.246,7.539,1.934,5.344C368.338,232.208,365.582,228.541,365.169,228.066Zm90.158,81.8c.535,1.9,1.915,4.167,3.54,4.665a1.7,1.7,0,0,0,0-1.111h1.214c.062-1.607.474-1.948.474-3.465-1.111.342-5.351-.95-5.229-.09C455.39,310.142,455.308,309.78,455.327,309.871Zm4.529-2.309a1.559,1.559,0,0,0,1.256,1.494c-.021-1.222-.474-1.494-1.256-1.494C459.855,307.652,459.959,307.561,459.855,307.561Zm-5.33-.407c-.8.431-.288,1.131.287,1.358.042-.133.186-1.563-.287-1.358C454.4,307.2,454.608,307.109,454.526,307.154Zm35.045,13.2c2.367,0,2.924-4.869,5.785-5.5-1.257-2.9,3.5-2.444.082-4.732-2.717-1.787-1.627,1.269-3.233,3.216-1.418,1.743-4.094,2.175-5.123,4.189-.781,1.563-.535,3.26,2.488,2.831Zm-1.831.79a2.371,2.371,0,0,0-.514.612H488.4c.06-.431-.042-1.111-.66-.612C487.636,321.237,487.843,321.055,487.74,321.146Zm9.3-17.978c0,.794.063,2.855.063,3.035,0-.18-1.153-.09-1.174.86,0,1.222.842-.09,1.028.68-.04-.09,1.2,2.9,1.894,2.671.268-.091.967-1.54,1.4-1.992,2.18-2.265,3.683-4.98-.721-4.12-.021-1.314-.514-3.352-1.338-1.359-.9-.634-1.028-2.693-2.078-3.848C494.16,296.919,497.042,302.354,497.042,303.167Zm-14.488-28.55c1.113,1.88,2.08,3.42,4.446,3.69C486.815,277.175,483.5,274.571,482.554,274.617Zm-47.187-14.333c-1.853.364.946.792,1.6.726v-.636C436.537,260.331,434.81,260.331,435.367,260.284Zm16.526.816c-2.184,2.966.76,10.234-4.1,8.785.02,0-4.445-3.146-4.527-3.4-.845-2.016.886-3.079,1.44-4.665-2.471-.362-4.877-1.743-7.243-1.743.472.454.411.792,1.255,1.338-.434-.295-2.923,1.539-3.583,1.991-1.974,1.382,1.092,1.654-2.2,2.356-1.09.225-1.584-1.449-3.352-.726-1.462.589-1.648,2.74-3.315,2.74.249.589.311,1.54.6,2.106h-1.277V268.8c-1.935-.113-2.592,4.414-4.794,5.571-1.667.881-4.24,1.154-6.071,1.945-.8.317-1.339,3.215-2.285.792-.8,2.694-.988,4.28.371,6.928-2.923-1.449.247,3.51.844,5.277,1.234,3.577,2.427,5.91-.04,8.242,1.686,0,2.674,2.059,4.835,1.674,1.234-.181,1.852-1.811,3.232-2.128,1.09-.316,2.243.859,3.17.589.986-.318,1.007-1.179,1.832-1.54.781-.338,1.645-1.312,2.531-1.721.617-.294,1.152.7,1.892.408,2.615-1.087,5.578-2.763,8.644-1,1.832,1.087,3.6,8.785,5.557,1.857,1.4.52-.063,1.584.144,2.9,1.728-1.134,1.071.452.946,2.172,2.841-.589,1.564,2.152,3.663,4.032a15.2,15.2,0,0,0,3.355,1.132c1.441.043.988-1.563,1.894-1.609.9-.021.925,1.88,1.521,1.743,2.923-.679,5.989-1.9,7.059-4.889.7-1.948.865-3.963,1.974-6.044a14,14,0,0,0,.578-13.021,7.825,7.825,0,0,0-1.748-2.172c-.474-.565-.474-1.586-.8-2.014a12.829,12.829,0,0,1-1.977-.974c-.472-.5-.432-1.7-.946-2.266-.7-.723-2.427-1.268-2.963-1.991-1.318-1.791-1.688-5.3-2.677-7.018-.308-.545-1.214-.954-1.686-1.767-.556-1-.267-3.442-1.606-3.8A5.382,5.382,0,0,0,451.893,261.1Zm24.59-3.148c.413.7.866.477,1.4.25-.267-.792-1.833-1.268-1.4-.25C476.546,258.065,476.443,257.885,476.483,257.951Zm-7.161-5.411c0,.679,1.42,1.541,1.81,1.449-.349-.995-1.4-1.607-1.4-2.557a1.265,1.265,0,0,0-.575.067A3.128,3.128,0,0,1,469.322,252.54Zm-8.438-.95c.165,2.061,5.536,1.043,5.043-2.172-.267.043-5.043,2.941-5.043,2.172C460.9,251.84,460.884,251.455,460.884,251.59Zm-24.51,4.032c0,.315,2.1.679,1.092-1.54A1.182,1.182,0,0,0,436.374,255.622Zm-7.532-.974c.144.837.947.656,1.606.338C429.891,254.443,429.6,254.828,428.842,254.648Zm12.368-3.216a2.415,2.415,0,0,0-.885,1.787C440.325,254.534,443.084,250.05,441.21,251.432Zm-2.057-2.581c1.337-.658,3.024.633,4.32,1.29,1.092.565,2.162.227,2.923,1.7,1.028,1.968-.144,1.449.082,2.58.063.295-1.439.248-.8,1.564.288.612,1.977-.77,2.552-.613,1.831.566,2.552,2.379,4.836,1.609,1.4-.454,1.339-2.673,3.644-1.766.9.362,1.111,1.584,1.913,2.082,1.544,1,.782.679,2.881,1.224,3.17.79,2.12,1.041.556-1.359-.228-.364-1.771-.16-2.038-.408a11.657,11.657,0,0,0-.66-2.061c-.061-.248-1.974-1.787.5-1.539-.474-.974-2.738-2.785-3.869-3.487a24.5,24.5,0,0,0-6.2-2.6c-3.374-1.2-3.189-.475-5.865,0-1.667.317-3.477-.565-5.8.09.249,1,.6,1.948,1.031,1.7C439.235,248.828,439.089,248.9,439.153,248.851Zm-11.628-3.463c-1.275.315,1.153.656,1.606.565C429.131,245.024,428.225,245.251,427.525,245.388Zm15.147-1.224a7.577,7.577,0,0,1,.144,1.721h1.46c-.225-.77-.617-.406-.617-1.721h-.987C442.691,244.277,443.041,244.119,442.672,244.163Zm-6.153.09a1.064,1.064,0,0,0-.948.341c1.524.974,3.17,2.377,5.186,1.359C439.07,242.533,438.061,244.91,436.519,244.253Zm-.349-.542c2-2.219-3.437-.726,0,0C436.395,243.44,436.044,243.688,436.169,243.711Zm-1.481,1.991c.533.272.76,1.767.986-.135C434.934,245.7,434.852,245.773,434.688,245.7Zm-2.615,1.857c0,.589,3.066,1.132,3.951,1.132C435.839,246.88,432.341,247.379,432.072,247.56Zm-1.172.227c-.392-.09-.781-.2-1.194-.294.7,1.878,1.5.5,1.194.294C430.716,247.7,431,247.854,430.9,247.787Zm1.811-8.741c-1.049,1.586-1.792,1.811-1.709,4.077.146,3.192.866-.68,2.594-.385.1-1.065-.392-1.992-1.255-1.925a5.417,5.417,0,0,0,.371-1.766C432.568,239.273,432.711,239.206,432.711,239.046Zm-13.746,8.6s1.5,2.084,1.317,1.857a18.271,18.271,0,0,0,.286,2.082c1.049-.77.8-3.079.8-4.348h.885c.1.522,1.688,4.417,2.306,4.1,1.111-.543-.947-4.822-1.585-5.729C429.749,245.612,418.965,241.265,418.965,247.65Zm8.477-6.838c-1.132.453-7.614-.5-7.306,2.491,2.12-1.087,2.7-.86,4.961-1.359.7-.18.925.7,1.77.318.451-.228,2.16-2.176.575-1.45C427.36,240.857,427.731,240.677,427.443,240.812Zm-1.524,17.3c0,1.4,4.939-1.269,5.474-1.857C429.459,255.19,426.25,257.476,425.919,258.112Zm-.6,1.359c-.6.09-.739.338-.432.814h.864c.082-.406.063-.995-.432-.814C425.117,259.561,425.426,259.424,425.323,259.471Zm-4.609-3.283c1.275,1.4,5.269.248,6.729-.432C426.268,255.531,421.268,255.531,420.714,256.187Zm-.514,1.041c-1.833.612,1.521,1.607,2.118,1.563-.246-.317-1.481-1.7-2.118-1.563C419.973,257.3,420.282,257.2,420.2,257.228Zm-3.665-1.381c-1.049.09,2.634.341,3.377.341-.228.067-.268-.07-.146-.432a15.416,15.416,0,0,0-3.231.091C416.35,255.869,416.763,255.823,416.535,255.847Zm-15.866-2.718c1.667,1.449,4.033,1.881,6.893,2.2,2.265.272,5.085,1.56,7.512,1.175a2.965,2.965,0,0,0-3.644-1.56c.1-1.134.846-.589,1.606-1.087A56.216,56.216,0,0,0,400.669,253.129ZM396.2,250.8c-.311.747-.1,1.108,0,0Zm10.391-10.96c-1.935,1.494-.719,4.19.371,5.774,1.585,2.378,2.244,2.128,5.269,2.673,3.047.587,2.08,1.449,3.807-1.359a24.825,24.825,0,0,1,.721-2.988c.451-.816,2.12-1.179,2.634-2.4-1.935-1.38-1.4-1.744-1.832-4.8,1.481.09,1.028-1,2.488-1.563.125.385-3.519-2.785-3.209-2.829-1.153.091-2,2.264-2.9,3.146C411.926,237.462,408.407,241.332,406.6,239.839Zm-15.434,4.756c.081,1.065,1.687,3.692,2.633,3.916-.2-1.449-2.633-3.8-2.633-3.916C391.182,244.842,391.161,244.435,391.161,244.594Zm-2.346-3.554c.371.769,1.071.994,1.4,1.787a2,2,0,0,0-1.173-2.106C388.773,241.492,389.022,241.107,388.815,241.04Zm-1.092-2.108c0-.248-.451-.927-.451-.2a.96.96,0,0,0,.883,1.043C388.341,239.364,388.2,239.093,387.723,238.933Zm.514-3.689c-.821,0-1.274-.906-2.057-.792.351,1.879,3.045,3.735,3.952,5,1.42,1.924,2.592,4.776,4.094,6.928,1.031,1.426,3.458,5.344,4.836,5.367,3.047.091,1.318-3.148,3.726-3.962-.268-2.085-2.017-2.855-3.519-1.676-.165-2.377-8.149-10.506-11.032-10.868C388.115,235.243,388.569,235.288,388.238,235.243Zm37.827-5.571c-1.585.181-2.965,1.359-2.12,3.306,1.274-3.4,3.148.5,5.186,1.472-.721-1.7.575-2.061.6-2.106.041-.317.638-4.439-.66-4.439-1.317,0-1.543,2.854-3,1.766C425.837,229.719,426.167,229.763,426.065,229.672Zm-4.323-7.47c-.042.587,1.646,5.161,2.86,4.912-.618,1.494,1.565,2.514,1.031-.407-.249-1.245-2.655-4.28-3.891-4.505C421.721,222.427,421.825,222.246,421.742,222.2Zm2.12-.227c1.831,1.4,3.045,4.1,5.021,4.529,0-2.467-2.08-3.036-2.08-5.231-1.192,0-1.788.7-2.941.7C424.088,222.155,424.088,221.975,423.862,221.975Zm-2.78,1.449c-1.089,2.309-3.887,4.619-4.465,6.52,2.43,0,4.465-3.872,4.465-6.52C421.042,223.537,421.082,223.7,421.082,223.424Zm1.134-9.441c-2.162,1.289-1.627,6.134.844,6.995C422.956,219.439,426.084,213.983,422.216,213.983Zm1.419-10.167c0-.77-2.9,1.833-2.471,4.8h.867C422.032,206.623,423.635,205.649,423.635,203.816Zm37.331-36.024c-1.46.294-2.406,1.608-4.323,1.766-2.1.181-3.066-.272-5.267-1.63-.082.725-.947,6.227-1.832,4.211-.389.748-1.707,4.235.432,3.125v.815c-1.3.249-1.913,4.822-3.352,6.613,0-.5.04-.772,0-1.292a4.919,4.919,0,0,0-1.462,2.4c-.329-.5-.865.363-.658-1.041a4.281,4.281,0,0,0-1.441,3.306c-2.924-1.406-8.375,1.265-8.891,4.8.556.045,1.338,0,1.688,0,0,1.563-1.564,2.264.6,2.943,0-1.65,2.408-4.03,0-4.255.514-1.676,4.157-1.676,5.7-1.971-1.667,1.155-4.342.045-3.724,3.146a12.044,12.044,0,0,0,3.58-2.263c.678,1.721,2.552.385,2.263-1.111,5.783-.723,4.693-1.041,6.072-6.361.76-2.944,1.666-5.253-.865-7.562,1.709-.363,4.569,1.4,4.466-.657,1.255.294,7.017-3.215,7.017-4.981C460.863,167.792,460.966,167.882,460.966,167.792Zm2.717-1.539c-.618.112-.926.589-1.481.9.906.589,1.152-.045,1.481-.9C463.579,166.275,463.56,166.569,463.683,166.253Zm7.163-8.6a7.2,7.2,0,0,1-.886,1.856A1.589,1.589,0,0,0,470.846,157.649Zm17.491-8.468c-.144,0-.411-.816-.8-.476a2.781,2.781,0,0,0-.082.929C487.7,149.7,488.625,149.814,488.336,149.181Zm-1.974.248c-.289-.9-.207-1.471-.968-2.106,0,.861.165,1.608.226,2.446.516.158.885.18.742-.341C486.32,149.316,486.4,149.542,486.362,149.429Zm-3.827-8.74c.554,0,.925-.725.967-1.154-1.277-.543-1.4.317-1.894,1.154A2.1,2.1,0,0,0,482.535,140.689Zm33.812-11.207c1.233.226,2.943.815,4.177.634-1.049-2.265-3.312-.521-4.177-.634C516.572,129.5,516.223,129.436,516.346,129.482ZM503.4,109.739c1.585.4,3.541-.385,5.186-.385a3.783,3.783,0,0,0-2.88-1.7c-.392.011-3.54,1.743-2.306,2.083C503.483,109.761,503.258,109.7,503.4,109.739ZM457.674,97.432c1.44.623,6.193,2.525,6.193-.418-2.038-.114-5.144.2-5.989-1.359-.144.159-.658,1.563-.2,1.777C457.757,97.454,457.551,97.353,457.674,97.432Zm-8.788,5.151c1.771.306,3.356-.1,5.042.555C453.353,100.4,450.594,101.1,448.886,102.582Zm1.461-2.026c.967,0-.822-.906-1.379-.884C448.969,100.647,449.565,100.557,450.348,100.557Zm-5.476-3.623c1.585,2.546,10.518,1.856,11.115-1.359-1.421-.295-3.212-1.234-3.212,1.324a2.307,2.307,0,0,0-.883,0c1.542-3.555-1.834-1.528-2.966-1.563C446.664,95.258,446.089,94.047,444.872,96.934Zm-1.543-.646a1.285,1.285,0,0,1,0-.963c-1.625-.249-.8,1.63,0,.963C443.309,96.186,443.186,96.413,443.33,96.289Zm-.8,3.463c.5,1.313.432,2.107,1.894,1.891A10.124,10.124,0,0,0,442.527,99.752ZM403.591,87.923a1.866,1.866,0,0,0-2.47-.634c.2.26,2.82,1.607,2.47.634C403.529,87.786,403.632,88.035,403.591,87.923ZM386.553,91.7a4.406,4.406,0,0,1,1.542,0C387.909,89.677,387.127,91.273,386.553,91.7Zm6.357-2.9c.289,0,7.224-1.63,7.389-1.845,1.708-2.468-3.417-2.219-3.806-2.412.349-.4.493-.407.6-.894C394.063,83.077,392.581,88.805,392.91,88.805Zm-4.672-7.959c-5.1.815-4.383,3.973.311,4.448,3.559.374,3.807.465,3.623-1.879-.228-3.181-.021-1.608-2.7-1.608a2,2,0,0,0,.371-.95C389.289,80.847,388.773,80.836,388.238,80.847Zm-4.4.317c2.036,1.189,4.9-1.925,6.071-2.74-2.655-1.4-6.3-1.563-8.419,1.528a13.608,13.608,0,0,0,2.348,1.212C383.937,81.232,383.772,81.107,383.836,81.164Zm-.578.725c-.967,0-1.667-.612-2.674-.408C380.706,84.752,384.6,81.889,383.258,81.889Zm-3-5.242c-2.2,0-.493,1.007-.658,1.291C379.164,78.729,382.436,76.647,380.253,76.647ZM323.168,114.4c-1.278-.237-3.4-1.89-2.47,1.45.821,0,2.324-.465,2.47-1.45C323.086,114.391,323.147,114.5,323.168,114.4Zm5.637-11.66c-1.3-.136-3.971,3.589-3.971,5.548.761-.17,1.275-.7,1.707.316a.5.5,0,0,0,.289-.633c1.666.928.514,1.97,1.42,2.411,1.172.566,3.437.363,4.733.363-.165-1.959-2.141-2.581-2.264-4.393-.167-2.241,1.543-3.544,2.778-4.914a18.857,18.857,0,0,1,9.94-6.113c1.254-.339,6.565-1.55,6.009-3.056-.822-2.208-3.889.272-4.98.633-2.654.94-11.482,1.189-11.482,4.756a4.744,4.744,0,0,0-1.606,0c1.359,2.57-3.438,2.478-3,4.2.5-.114.638-.317,1.173-.249-.267.758.453,1.234-.741,1.132C328.6,102.719,329.032,102.764,328.805,102.742Zm22.021.725a3.378,3.378,0,0,0,2.1-.974C353.543,102.131,348.994,103.466,350.827,103.466ZM340.372,77.938c1.646,2.728,2.757.135,4.609-.238C343.274,76.636,341.975,78.525,340.372,77.938Zm-3.583,0c0,.939-.6.668-1.028,1.449a7.673,7.673,0,0,0,4.1.2C338.642,77.9,338.766,76.669,336.789,77.938Zm-.514,2.909a3.788,3.788,0,0,1-1.171.237c.2,1.11.864.487,1.685.317-.082-.441-.019-.69-.514-.554C336.153,80.88,336.379,80.824,336.275,80.847Zm-5.123-.487c.679.645.782,1.642,1.832.159,0,1.8,2.12.114,2.406-.159a1.371,1.371,0,0,0-.082-.644A9.515,9.515,0,0,0,331.152,80.359Zm-4.179.159a6.172,6.172,0,0,1,5.639-1.46c-.432-2.9,2.409,1.018,2.778-1.676a9.863,9.863,0,0,1-1.831,0c.246-.4.72-1.324.885-1.528-1.007,0-1.667.7-2.2.883a15.955,15.955,0,0,0-1.974.646c-.535.362-.721,1.177-1.462,1.766C327.777,79.963,327.284,79.33,326.973,80.519Zm-5.843-2.174c-2.162,0-2.7.838-4.754.4.1,1.732,2.8.565,4.033.565-2.552,2.038,1.75,2.547,3,.725C325.431,77.054,323.518,78.345,321.13,78.345Zm-41.922,2.739c.474,1.325,3.13-.452,3.644,1.042-.721-.045-1.462.035-2.2,0,1.339,4.088,8.643.442,10.33-.645-1.646-2-3.951-.339-5.411-.815.267-.6.639-.487.514-1.2-1.728.747-1.278.1-2.285,2.014-.638-1.833-5.35-2.253-4.59-.4C279.251,81.232,279.126,80.9,279.209,81.084ZM276.267,87.2c0,.442-3.911.181-4.384,1.936.947-.226,3.91-.974,4.3-.407-.6.43-3.787,1-3.828,1.29-.082.544,2.779,2.072,3.4,2.978,1.892-1.574,3.7-4.631,3.7-6.8a7.119,7.119,0,0,1,2.08,0c-.247,1.959.2.566.967,1.7.554.826-.6,1.528-.6,2.377,2.017-1.381,2.221.453,3,.317.8-.136,2.245-1.087,3.066-1.291-.885-1.29-1.788.193-1.788-1.686-.865.125-6.689-3.692-6.853-4.279a1.216,1.216,0,0,1-1.174,0,7.6,7.6,0,0,0,.535-1.28c-2.2-1.143-2.263.181-3.291.5.493-.159-.785,1.358-.928,1.4.329-.125-.555-1.913-.7-1.959a14.6,14.6,0,0,1-2.407,1.1c.287-.5.412-1.031.658-1.449-1.3.306-6.75,1.743-2.408,2.412a12.519,12.519,0,0,1-.082,2.66c-.8-.442-.7-1.211-1.686-1.449.391.86,1.953,3.69,1.953,1.132.928.091.989,1.608,2.285,1.121.514-.181.8-1.222,1.3-1.279.061-.011,2.736-.284,2.881.962C276.267,87.254,276.225,86.915,276.267,87.2ZM457.3,139.308c3.663,0,4.28-1.721,6.811-1.132,1.4.295-.268,1.359,1.174,1.766,2.078.543,1.4-1.721,3.209-.181.146-1.064.785-.226,1.606-.316-.453-2.016-1.153-.227-.432-2.333a11.185,11.185,0,0,1,2.88-3.419c2.367-1.449,4.365-.884,4.365,2.06,3.189-.656,3.991-5.433,7.017-4.777-2.017,1.811-2.716,4.664-4.96,6.7-2.841,2.581-6.443,4.008-7.45,7.381a19.729,19.729,0,0,0-.225,8.2c.6,3.1.286,3.6,2.385,2.377,2.245-1.291,2.43-6.883,5.95-5.887-.948-1.97-.228-4.641,1.81-3.215-.658-1.607-.1-3.1-.288-4.1-.122-.5-.967-.136-1.318,0a15,15,0,0,1,1.688-4.347c1.214-1.223,1.359-.521,2.88-.906.825-.181.514.634,1.071.589.761-.068.967-1.427,1.606-1.471a19.822,19.822,0,0,0,2.325.158c1.831-.226.331,1.223,1.77,1.54,0-3.827,8.273-6.181,10.62-6.929,2.119-.657,2.345,2.06,1.6-1.449-.659-3.125-2.119-1.88-3.951-3.215-1.049-.86,4.342-.657,4.323-.634,1.564-.69,2.057-1.629,1.317-3.384,1.09-.079,1.254,1.166,1.6,1.211a23.993,23.993,0,0,1,2.78.634c1.481.77,1.11,1.268,3,1.766,2.592.725.6.5,1.974-.091,1.132-.452.226-1.675.885-2.309.575-.578,4.526,1.256,2.924-1.867-.578-1.11-4.651-1.88-5.639-1.438.906.679,1.131,2.287-.372,1.121-.535-.418.228-2.027-.472-2.66-.371-.328-1.071-.057-1.38-.352a23.719,23.719,0,0,0-2.674-1.856c-1.524-.895-2.491-1.506-4.1-2.366-3.292-1.766-10.391-3.124-12.512-.736,3.684,1.642-5.782,3.113-.741-.487-1.521-1.256-2.8.464-4.32.7-1.852.272-5.1.521-6.731-.374a11.369,11.369,0,0,0,0,1.857c-2.324-2.842-2.2-6.124-7.017-5.808-1.792.125-3.519.748-5.351.341-2.366-.544-2.819-1.857-4.9-2.107.432-.588-.351-.362.72-.962-3.108-1.925-6.689,2.92-5.331-1.042-1.543,0-3.106-.939-4.733-.974-3.087-.068-2.366.475-5.207.974,0,1.392,1.462,1.313,1.462,2.808a17.591,17.591,0,0,0-3.437-.6c.267.418.988,1.041.72,1.732-1.4-.295-1.666-1.484-2.984-1.755.061,0-3.479-.046-3.665.023-1.913.554-1.583,2.614-3.066,2.614a30.456,30.456,0,0,1-2.941-3.215c-.246-.7.8-2.977,0-4.03-1.255-1.63-2.284.136-3.58-.238-2.9-.837-3.808-3.012-3.808,1.381-2.263.023-3.54.262-5.576-.657-.741-.339-1.173-1.426-2.1-1.686-1.767-.5-4.937.43-6.85.43v-1.245c-.681.238-1.771.985-2.388.317.165-.022,3.271-1.675,1.832-2.083-1.627-.475-2.531,2.333-4.672,1.936.309,2.106-2.9,1.924-4.63,1.924,1.852-.193,10-5.649,10.187-6.759.782-4.845-7.552-4.426-9.448-3.634.372-.5.66-.6.66-1.359a27.5,27.5,0,0,1-3.212-.248,10.743,10.743,0,0,1,1.257-1.755c-4.24-.363-4.4,1.245-7.038,2.728a1.293,1.293,0,0,1,.371.873c-2.9-.748-3.127,1.426-5.557,1.721-.886.09-2.488-1.076-3.806-.906-.246.035-2.965,1.856-4.179,2.185a27.591,27.591,0,0,0-3.7,1.031c-.472.2-3.045,1.2-3.312,1.664-1.214,1.981,2.244.646.1,2.366-2.346,1.891-6.729-.543-9.117,1.777.639,1.665,4.877,4.382,2.491,4.585-.68.057-1.565-1.37-1.977-1.517a7.258,7.258,0,0,0-4.9-.339c.679.362,1.542.283,1.542,1.37-5.453-.385.885,1,.639,2.9-.886-1.506-3.231-.521-4.3-2-.371-.509.061-3.067-.371-4.03a.624.624,0,0,1-.6.159c0,2.977-1.606,1.777-1.892,3.542,0,.012.451,4.937.554,5.117,1.564,2.808,1.131.272,3.045,1.087,2.368,1.029,2.244,2.388,2.244,4.1,0,.612,1.853.928,2.141.974-3.047,2.208-2.43-6.136-6.566-2.434a8.964,8.964,0,0,1-.165,2.751,4.6,4.6,0,0,1-2,1.891c-2.224,1.381-2.181.815-5.022.6.618-1,2.923-.827,4.095-1.925a5.205,5.205,0,0,0,1.812-3.916c-1.687.158-2.284-7.188-2.12-9.25h.947c.5-2.694-3.52-3.373-5.269-1.935-.226.2-3,5.128-3.066,5.354.474-1.46.5,3.5.082,2.6.371.86,1.091.646,1.6,1.822.329.77,1.893.737,1.606,1.936-.5,2.106-2.408-.77-2.491-.8-2.141-.634-3.786-1.495-5.843-2.254-1.071-.4-4.94-2.6-5.558-2.491-2.694.453,5.083,3.861-.124,6.114,0-4.484-8.478,3.249-6.915-1.845-2.243,1.448-4.794,1.5-7.059,3.17-.39.294-5.269,5.207-4.938.249,3.7.136-.617-2.6-2.715-2.6.925,1.007,1.585,6.124.657,6.748.228-.137-2.18-.748-2.859-.6-.535.114-2.017,1.959-3.066,2.05a6.169,6.169,0,0,1,1.028,2.513c-1.5-.86-3.273-.046-4.529-1.788-3.024,1.788,1.524,2.014,1.524,3.056,0,.815-2.285.431-2.47.317-2.264-1.177-1.132-.884-2.139-2.717-.846-1.6-2.655-3.611-4.014-5.57,1.213.249,14.034,5.842,12.513-.725-.371-1.574-3.847-3.034-5.186-3.578-2.1-.86-5.229-.237-6.153-.86,1.071-2.467-3.251-1.675-4.24-2.683,1.646,0,.8-.837-.039-1.324-2.12-1.233-1.257.317-2.759.317a10.456,10.456,0,0,0,.453-1.574,5.485,5.485,0,0,0-2.017,0c.04.816-.1,1.257,0,1.981-.371-1.007-.7-.815-1.42-1.539-.268,1.766-.988,2.513-.988.249a2.97,2.97,0,0,1,1.049-.011v-1.042c-.618.1-4.589,2.434-3.148.725-3.066-.339-2.8,1.494-1.172,2.491-.885-.385-2.059-.057-2.984-.4,0,.928.142,1.177-.453,1.7a2.531,2.531,0,0,0-2.552-2.093c.411,1.607-.968,4.1-1.235,1.765-1.791,1.97-.125.566-.742,2.661-1.5-.668-1.152-.2-1.6-1.856-.618.237-.968.962-1.916,1.449.268.532.228.283.228.8a3.361,3.361,0,0,0-2.923,1.766c1.524-.532,3.765-2.095,5.392-1.2-2.162.543-5.351,4.584-5.764,7.494a4.992,4.992,0,0,0-2.427,1.5h1.174c-.167,1.586-3.5,3.171-4.528,2.921a2.155,2.155,0,0,0,.145,1.2c-3.972.906-4.467,3.441-5.269,6.612,3.292-.114-1.173,2.174,1.832,2.445-.063.906-.474,1.042-.371,1.9,3.23,0,4.423.407,6.585-2.581,1.42.272,2.491,5.842,3.745,7.4.349.453-.8,1.245.1,1.608,2.1.906,1.193-.77,2.078-1.132A39.193,39.193,0,0,1,277.3,144.7a1.11,1.11,0,0,0,0-.816c-.782.091-1.009.068-1.46-.317.451-.792,2.345-3.4,2.489-3.8.474-1.336,2.265-2.491-.432-2.491,0-2.128-1.667-4.12.349-6.679,1.009-1.313,2.881-1.381,3.808-2.74.617-.883.638-3.43,2.078-4.426,1.112-.759,3.663.532,3.847,1.981.432,3.124-8.745,4.868-4.526,10.257,2.963,3.782,8.149-.815,11.628,1.381-1.934,2.174-4.713,1.223-7.019,1.539a39.7,39.7,0,0,0-4.116,1.359c.331.136.578.317.885.453a5.27,5.27,0,0,0-1.831.5c.8,2.309,2.326-.363,2.861-.091,1.007.543,1.09,1.133,1.974,1.788-2.51,3.51-2.345-.588-3.807,0-1.768.7-1.646,4.914-1.686,5.955-1.5,0-3.437-.906-2.184,1.359-2.263-2.536-3.517.18-6.008.43-.845.068-4.465-2.264-4.712.295a4.463,4.463,0,0,1-2.387-.884c.267-2.785,3.887,1.177,3.519-3.781a7.732,7.732,0,0,1-2.634.815,8.621,8.621,0,0,1,.432-1.721.966.966,0,0,1-.864,0c.328-2.626-.289-3.1-2.141-1.018-1.3,1.449-.349,3.01-.411,4.415-.146,3.623.821,1.629-1.731,3.26a11.176,11.176,0,0,1-5.019,1.676c1.871,2.649-1.771,2.377-3.151,3.532-.144.112-1.274,2.988-1.686,3.124-1.38.475-2.223-.906-3.128-.815,2.14,4.052-2.1,1.222-3.374,2.309-1.545,1.313.411.86.9,1.653.721,1.11,1.566,1.563,2.306,3.238,4.158,9.125-5.926,3.487-10.023,5.389.782,2.921-.371,6.34.289,9.171.6,2.536-.186.974,1.831,2.4,1.278.906,1.934.046,3.148,1.7.268-.341.228-.5-.144-.475,2.1-.817,4.712-1.767,6.379-3.467.679-.7,1.009.184,1.524-.61.307-.475-.618-1.268-.578-1.313.249-.385.434-1.992.948-2.672.679-.9,3.641-1.856,4.156-2.332.618-.566-.432-1.744.681-2.491.925-.634,2.613.792,3.642.589.392-.046,2.326-2.627,3.376-2.445,1.419.272,2.839,3.237,4.012,4.279,3.54,3.034,9.795,7.178.968,7.178,2.366,4.549,6.092-.184,7.1-2.877h-1.256a4.08,4.08,0,0,1,.063-.86,12.806,12.806,0,0,0,2.653.566,8.93,8.93,0,0,0-5.637-4.506c.225-1.517-2.059-3.419-3.087-3.328.307-5.073,3.272-.566,5.536,1.244,1.543,1.247,3.559,2.107,4.424,3.85.534,1.087,1.277,3.985,1.833,5.162-.6-.2-.763-.338-1.318-.225.473,1.379,1.132,2.038,1.975.95.885,4.98,3.89-.362,5.557-.656-.268-.522-.618-.953-1.174-.953a1.26,1.26,0,0,1,0,.953c-.864,0-2.674-2.967-2.406-3.6.883.543,1.378.86,2.345.385a.494.494,0,0,0-.514-.385c3.313-5.367,5.144,8.558,5.658,8.558.578,0,.453-1.812.453-2.059,1.278,1.244,2.306.994,3.313,1.154-1.05-.16,1.688-.769,1.627-.769,1.05-.047,1.521,1.4,3.23.95a10.763,10.763,0,0,1,0-1.406c3.21.726,3.459,1.948,2.285,5.706a8.192,8.192,0,0,1-2.923,3.94c-1.254.589-2.428-.815-3.6-.135,1.831.95,3.108,6.995,5.186,4.664,3.108,3.578,3.868,8.468,5.906,12.227,1.3,2.355,3.951,4.21,5.062,6.927,1.5,3.668-.493,5.887,3.726,5.978,1.892,0,4.137-1.991,6.008-2.851,2.141-.952,3.191-1.948,4.9-2.808,2.2-1.108,3.519-.633,5.04-2.581.721-.86,2.2-3.079,3.149-2.65,0-2.263.042-2.354,1.545-3.056-.165-1.087-1.831-2.309-2.573-2.988-1.317-1.245,0-2.536-1.892-.475-.207-.974-.474-3.1-1.174-3.692a3.9,3.9,0,0,0-1.174,2.9c-2.92-.272-7.489-.157-2.118-1.222-.083-.364-4.2-1.632-4.4-1.766-.639-.5-2.594-2.875-2.759-3.94-.556-3.714,1.071-2.492,3.066-.953,2.471,1.857,3.313,2.718,6.215,3.761.5.181,1.667-.183,2.348,0,.514.158.635,1.426,1.335,1.765,1.3.679,4.529,1,6.052,1.064,3.518.137,4.506-.2,7.325,1.563,1.524.95,1.667,2.151,3.951,2.626-4.033,0,.6,2.309,1.524,2.648,1.522.545.721-2.263,2.346.25.8,1.179.165,2.718.371,4.03a37.762,37.762,0,0,0,2.12,7.065c.575,1.629,1.625,6.974,3.066,7.9,1.521.929,3.045-.747,3.889-2.671a13.648,13.648,0,0,0,.72-4.234,17.787,17.787,0,0,1,.042-2.808c.761-2.151.6-.047,2.017-1.586,2.738-2.9,5.968-7.29,8.5-8.829a26.4,26.4,0,0,1,5.329-1.539c.825.587,2.717,5.274,2.717,6.338,2.512,0-.368,2.309,1.462,3.9,1.235,1.064,2.634-1.2,2.86-1.134,1.955.59,3.312,6.251,3.272,8.582-.021,1.246-1.748,2.56-.988,4.688.453,1.269,2.224,2.446,2.861,4.053.761,1.948,2.346,8.942,5.741,7.155-1.152-2.2-1.152-6.091-2.324-7.7-1.709-2.241-3.7-2.128-4.179-5.39-.1-.747-.761-4.008.349-5.027,1.792-1.607.311-.385,2.059.658,1.521.9,1.379.86,2.738,2.718.307.43,1.418.77,1.585,1.042.493.9-.146,1.7.575,3.078,1.46-2.265,3.684-2.854,4.836-4.6,2.141-3.213.8-5.907-.946-8.4-2.655-3.8-3.354-8.42,2.778-8.42.392,1.945-2.264,4.073-1.235,5.07,2.512,2.446,3.045-4.709,2.984-4.665,1.092-1.085,3.459-1.154,4.693-1.583a10.219,10.219,0,0,0,3.931-2.333c2.12-1.744,6.029-5.569,6.524-8.719.368-2.308-.742-.883-.948-2.445-.122-.86.639-.678.371-2.219-.328-1.855-2.674-4.165-2.634-5.5.082-2.557,2.45-1.7,3.294-3.056.739-1.2.739-1.131-1.441-2.014-.967-.362-.721,1.245-1.975,1.245.351-3.012-3.232-.907-1.647-3.714a21.778,21.778,0,0,0,3-1.313c3.212-1.336,2.264-1.765.946,1.948.948-.589,3.479-2.06,4.55-1.539,2.243,1.108.472,1.494.658,3.531,3.458-1.584,2.408,4.437,2.038,6.271,2.47.295,5.269-1.516,5.207-4.143-.042-2.353-2.759-2.627-2.2-5.909.122-.657,1.214-.159,1.318-.475a24.038,24.038,0,0,1,.6-2.921c.493-.747,1.318-2.264,2.243-2.717.535-.249,2.47.226,3.458-.091a5.43,5.43,0,0,0,2.7-1.766,35.02,35.02,0,0,0,4.919-6.361c1.317-2.151.946-3.872,1.831-6.091,2.84-7.336,1.566,7.133,1.566,9.147.533-.589.946-.272,1.418-1.449.66.68.082,1.223,1.481,1.291-.389-2.944-3.249-5.548.721-5.548.1,0-1.892-10.007-1.974-11.185h-.578c.1,2.4-.6,2.219-.6,4.438-1.667-1.087-1.338-3.442-4.383-4.438-.351,2.445-1.421,1.63-2.346,0a3.4,3.4,0,0,1,0,1.291c-1.3-.2.021-1.11-.946-2.016-2.059,2.264-.042-1.154.719-2.083,1.152-1.4,2.366-2.354,3.621-4.076C450.964,139.535,453.332,139.308,457.3,139.308ZM244,140.8a2.9,2.9,0,0,0-1.543,1.857c.617-.181,2.654-2.083,1.543-1.857C243.73,140.894,244.079,140.8,244,140.8Zm1.545,18.046c1.481,0,2.592-1.132,3.437-1.291,1.3-.226,3.127.453,4.177-.068a3.976,3.976,0,0,0,1.955-4.754c-.309-1.177-1.113.7-1.153.657-.5-.566-.413-1.495-.8-1.857-.66-.633-1.564-2.128-2.428-3.238-1.317-1.7-1.484-1.29-1.687-2.649-.125-.906,3.251-4.438-1.75-2.808.411-.792.472-1.449,1.254-1.946-1.646-1.812-2.367,1-2.984,1.539-.1.09-3.436,1.336-.822,1.834-.227.838-1.071,2.06-1.028,2.581.864.114,1.953.884,2.181-.158-.207,3.147,1.3,1.4,2.366,3.94,1.214,2.943-1.277.928-2.573,2.671a9.293,9.293,0,0,0,1.461.159c0,.883-1.975,1.245-1.318,2.083.413.52,2.47-.249,3.151.475C248.711,156.29,244.636,158.849,245.543,158.849Zm-1.256-8.287c3.252-.521-5.165-5.117-3.21-.816-1.545.317-3.623,2.694-1.092,2.559-3.293,5.253,1.3,1.766,4.094,2.445C244.183,153.482,244.307,152.124,244.286,150.562Zm78.3,122.607c0-3.1,2.017-9.488-1.318-10.937a9.626,9.626,0,0,1-1.892,4.212c-1.235,1.245-3.148.723-4.4,2.059-.967,1.042.121,4.28,0,5.141-.228,1.629-.865,1.834-1.174,3.872-.39,2.65.165,6.566,3.375,5.8,3.087-.747,2.1-1.79,2.634-4.822.04-.362.822-3.805.886-3.872C320.944,274.232,322.59,273.69,322.59,273.168Zm-24.3-76.825c-1.4-3.668-2.2-2.263-5.269-2.671-4.425-.589-7.841-2.151-12-3.192,0,4.414.081,3.6-2.634,3.644.554-.043-2.388-.95-2.1-.814h-2.139a3.644,3.644,0,0,1-.432-1.291c-1.3-.475-5.207-1.179-6.01-2.377-1.5-2.218,1.687-2.627-1.028-4.551.72-.659.638-.749,1.624-.974-1.378-2.583-5.165-.18-7.182-.137-2.139.047-4.423-1-7.161.317-1.852.86-3.108,2.061-5.557,1.992-2.963-.045-4.547-2.309-4.547,1.924h-2.2c.988,3.919-1.606,1.382-2.181,2.673-.927,2.059-.617,4.505-1.462,5.817-.514.77-2.448,1.813-3.23,2.9-.844,1.111-1.853,2.992-2.778,4.484-.906,1.5-4.611,5.3-4.094,7.563.144.633,2.221-.272,2.55.5.288.61-.411.9-.287,1.265.575,1.677-.392,4.441-.514,6.138-.145,2.061-.309,3.825,1.768,6.181a94.5,94.5,0,0,0,6.731,7.018c.842.816,1.254,2.673,3.066,3.078,2.038.408,2.3-.542,4.24-.814,1.686-.227,2.963.589,4.116.543,2.427-.09,2.263-1.108,4.238-1.857a11.886,11.886,0,0,1,5.989,0c1.462.726,1.092,1.9,3.252,2.446,3.746.907,3.54-1.132,3.623,3.216a9.618,9.618,0,0,1-1.749,5.8c4.691,1.629,7.778,12.181,7.017,17.208-.741,5.07-3.519,5.274-1.152,10.642a43.463,43.463,0,0,1,2.777,9.01c.845,3.8,3.54,6.385,4.529,9.828.844,2.941-.453,3.872.886,5.479,3.538,4.256,12.9-.77,15.659-4.03a24.157,24.157,0,0,0,3.5-4.983c.618-1.493-.206-3.621.144-4.528.308-.723,2.634-1.177,3.376-2.265,2-2.852-1.009-4.074-.434-7.063.454-2.423,4.53-3.668,5.7-4.846,2.9-2.854,3.066-6.047,2.346-10.348-.413-2.423-2.45-6.023-1.606-8.966,1.111-3.962,5.722-7.789,8.479-10.461a26.5,26.5,0,0,0,5.412-6.927c.925-1.791,1.524-1.948,1.748-4.347.372-3.782.926-2.878-2.038-2.9-4.116-.022-5.329,1.7-8.191-1.743-1.645-2.016-4.3-3.9-5.864-6.138-1.543-2.2-3.149-7.222-4.095-9.826-1.421-3.985-2.245-8.082-4.837-11.616C298.183,196.072,298.451,196.57,298.286,196.343ZM149.456,319.606c-.576-.135-.535-1.132-.946-1.132.185,0-1.318,1.9-1.318,1.881a19.53,19.53,0,0,0,2.923,2.714.94.94,0,0,0-.144.659c-4.693,0-.947,4.549-1.688,6.429a3.46,3.46,0,0,1,1.173,0,.646.646,0,0,1-.659.747c.762.884.371.364,1.112.565a34.265,34.265,0,0,0,3.643,4.983c2.8,1.9,5.453.974,8.129.747-.124-.95-3.478-2.015-4.178-3.848-.658-1.767-2.16-6.339.515-6.044,0-1.857,3.4-3.942,3.148-5.277-.268-1.584-3.664-.633-2.491-3.782.371-.995,2.223-.452,2.634-.995.351-.5-.124-1.314.371-1.9-.329.408,1.728-3.531,1.461-2.082.473-2.581-1.75.068-1.255-3.758,3.437,1.517,4.116.135,3.6-3.373,2.84.09,6.256.2,7.552-2.831,1.4-3.215-1.275-2.49-1.791-5.3,3.17.452,4.364,1.676,6.812-.726,1.153-1.132,2.058-5.683,3.354-5.479-.185.635-.288.7-.144,1.292,3.766-2.062,2.717-7.925,4.774-10.62a9.571,9.571,0,0,1,5.083-3.215c3-.952,3.827-.727,5.516-3.963,2-3.825,1.173-9.621,2.778-12.7,1.173-2.24,3.745-3.578,4.425-6.158a4.085,4.085,0,0,0-.021-3.193c-.864-3.441-.824-1.178-2.778-2.875a9.824,9.824,0,0,0-5.618-2.761c-1.42-.318-6.442.067-4.343-1.134a9.383,9.383,0,0,0-3.066-1.674c-2.573-.545-2,.09-3.807.95a23.111,23.111,0,0,0,.947-2.309,13.938,13.938,0,0,1-2.285-.68c-.659-.227-.288,1.63-1.667,1.45.268-.68,2.944-4.372.433-4.372.432-4.889-3.684-5.139-6.422-5.91-2.223-.589-7.141-3.078-7.141-5.82-1.255.475-3.5-.157-1.544-1.131-1.3-1.834-3.992.746-4.754.726-2.8-.114-4.136-2.7-6.811-3.24,0,1.586-.988,1.222-1.832,2.175-.124.135.247,2.309.145,2.671a3.649,3.649,0,0,1,.432-5.3c-2.47-.77-9.384,4.278-9.8,7.7-.226,1.9,1.585,3.9.412,6.523-.638,1.449-3.334,4.437-4.754,4.98.247,2.446-.679,2.9,1.606,3.078-.947,1.811-3.17,2.9-1.893,5.864.308.749,1.748.907,2.346,1.834A20.958,20.958,0,0,1,143.2,257.3c.8,2.175,1.544,5.8,2.819,7.425,1.75,2.219,3.849,2.855,6.03,4.732,3.684,3.193,2.326,9.986,1.728,14.967-.328,2.718-1.255,5.321-1.543,7.834-.329,2.989,0,6.114-1.092,8.922-1.214,3.125-1.132,4.959-1.893,8.467.041-.2-.02,2.309,0,1.676-.02.543-.987,1.087-.781,1.767,1.028,3.373,1.913-1.676,2.963-1.767a31.34,31.34,0,0,0-1.337,7.018c-.577-1.064-.721-.475-.927-1.945C148.489,316.8,149.518,319,149.456,319.606ZM153.12,215.68c2.552-.633,6.236-.158,8.787-1.132-1.132-1.539-4.61-1.041-6.75-1.359-1.358-.18-4.157-1.948-4.383.408a1.88,1.88,0,0,0,2.346,2.082C153.407,215.612,152.934,215.726,153.12,215.68Zm-6.873-.5a2.81,2.81,0,0,0-3.067-1.132c.762,1.132,2.182,2.106,3.067,1.132C146.123,215,146.019,215.453,146.246,215.182Zm2.633-3.6c-1.111-1.969-5.679-3.147-7.614-3.963-1.255-.5-4.117-1.787-5.68-.79-1.728,1.108-1.3,1.268.555,2.239.8.454,1.277-.927,2.058-.769,1.071.183,1.75,1.2,2.326,1.428A19.619,19.619,0,0,0,148.879,211.581Zm70.69-87.352c1.339-.238,1.813-.2,2.184,1.291a7.066,7.066,0,0,0-2.923,0c.039.316.1.657.142.973,2.984-.543.679,1.313,2.2,1.925.328.112,3.766.5,3.951.475,2.634-.136,2.862-.747,5.125-2.083,1.914-1.154,2.757.453,3.355-1.777.246-.883-1.153-.906-1.462-.962.638-4.008-4.323-.442-6.771-.792-.369-.035-2.552-.374-2.16-.328-1.05-.1.082-1.812-1.028-.328-2.677-.986-3.334,1.765-2.615,1.607C219.776,124.194,219.364,124.274,219.569,124.229Zm-45.088,32.2c-.577.407-3.972,6.43-3.725,6.883.514.95,2.325.046,3.313.362,1.5.5,1.832,1.177,3.333,1.948,2.285-3.8.145-5.117-3.21-6.295-.021.068,2.037-3.985.288-2.9C174.3,156.562,174.666,156.336,174.481,156.426Zm-7.9,3.555c-1.461-.521-2.1-1.2-3.519-.974,1.338.884,2.2,3.057,3.519.974C166.372,159.913,166.516,160.094,166.578,159.98Zm41.3-43.3c.412-.17.865.486,1.193.589,2.593.917,2.593-.169,4.713-1.087,1.893-.8,6.585-1.924,7.244-3.871-2.552,2.2-8.562-2.933-2.162-2.638-.267-.012,2.862,3.61,3.583.475.268-1.155-2.347-3.94-3.169-4.438.453-.441,3.333,1.869,2.47-1.121-.413-1.4-1.153-1.427-2.841-.8.329-.566.658-.521.865-1.042a3.455,3.455,0,0,1-.865-.42c.926-.011,3.58,1.416,4.816.5,2.84-2.083-1.75-1.336-1.75-2.343,0-.249,4.323-.476,4.611-1.042-.906-.985-3.293-2.683-.434-2.944.063-2.6-3.5-2.593-3.085-4.064.165-.6,1.893-.827,2.346-.646,1.873.792.328.963,1.173,2.819.514-3.34,1.686-4.143-1.977-4.143,1.009-1.234.042-.339,1.75-1.245-1.028-1.732-3.559-.068-3.58-.079-2.613-2.32,6.606-8.6,7.47-9.8-1.173.079-2.3-.147-3.458-.181,2.387-.543,3.747-.464,5.8-1.935.556-.4,3.519.011,2.181-2.162-.226-.385-3.292-.2-3.581-.17a40.829,40.829,0,0,0-5.864,1.2c-1.113.352-5.7,3.023-6.36,2.9,2.634-3.634,4.076-4.177-.72-4.958,0,2.106-1.379,1.891-3.231,2.23.309-1.709,1.379-1.031,2.491-1.607-2.717-2.22-7.7,1.222-10.681.712.8-2.638,13.006-2.852,15.806-3.2v-.736a27.215,27.215,0,0,1-6.216-.883c-3.252-.589-6.422.249-9.59-.114,2.325-1.755,7.058-.974,10.393-.974-.372-2.852-15-1.675-16.9-1.007-2.018.736-.206,1.471-2.738,1.777-1.481.181-2.717-.781-4.239-.849a16.409,16.409,0,0,0-5.742.895c.473,1.029,1.585.589,1.585,2.049-.6-.51-3.231-1.721-2.387.068-.206-.442,4.651,2.717,3.272,2.717-3.087,0-5.412-2.728-8.684-2.728,0,.769,2.017,2.093,2.3,3.249-1.955-.611-3.272-2.57-5.372-2.785.535,1.165.7,4-1.028,2.865,0-.012.824-2.333-.329-3.024-1.379-.86-5.763,2.118-6.689,1.608,1.009.431,2.717,1.029,3.5,1.97-1.4-.011-2.573-1.064-4.033-1.256-.947-.148-.7-.974-1.955-.317-1.214.622-.247,1.63-.576,1.834-1.152.736-3.539,1.031-5.72,2.309-.865.51-2.964.464-2.84,2.106,1.255.363,1.893,0,3.066,0,.844,0-.041,3.023-.206,3.193-.391.373-2.223.272-2.8.43-1.5.431-4.2.249-5.72,1.245-4.96,3.2,4.2,3.476,6.893,3.476-.534,2.456-6.071.646-6.071,2.049,0,.691,2.408,1.438,2.923,1.563-.412,0-.453,0-.577.328.741.657,2.161,2.016,3.252,1.574-.082-.17-.555-.645-.308-.816,1.646-1.121,8.725-.26,10.681,1.121a13.99,13.99,0,0,1,5.247,9.816h.7c-2.8,5.525,3.931.985,5.845,5.966-1.811.057-3.519-1.337-5.186-.566.412,1.37-1.091,3.6,1.461,3.668,2.223.057,2.943-1.687.349-2.128,3.685-.487,2.8,1.086,3.828,3.939-1.646-.09-2.943.227-2.9,2-3.664-.521.185,4.743.411,5.592-.082-.226,1.092-.554,1.318-.046.165.431-1.194.929-.824,1.3-.576-.589.659,2.265.515,1.856a5.172,5.172,0,0,1,1.687-.9c-1.132,2.535,0,6.814,2.49,8.876,1.112.928,6.585,3.26,7.47,2.717,1.215-.725.886-3.487,1.379-4.732.309-.747-.74-.974-.328-1.856.2-.475,1.3-.158,1.646-.884,1.481-2.988.576-5.842,4.28-6.192-.1-1.947.082-.554,1.029-1.211C199.978,127.376,207.84,116.689,207.881,116.678Zm-79.869-24.9c1.565,2.65,8.6,1.687,11.2,1.212.7,1.935,4.856.736,4.692-1.777-.392.2-.782.384-1.173.565-.124-.4-.247-.8-.371-1.2,1.667-.339,1.585-.815,1.173-2.423,2.1.634,3.869.295,2.407-1.834-.226-.328,2.2-.079,2.2-.407,0-2.23-3.725-1.506-4.672-.578-.1-.26-.206-.532-.288-.792,2.387-1.845,4.98.713,7.224-1.539-.432-.352-.865-.691-1.3-1.031a6.223,6.223,0,0,0,4.61.068c-.72-.611-.618-1.086-1.544-1.528,3.458.917,7.532-3.239,10.743-4.178-1.029-1.132-3.787-.033-5.557-.26,1.44-2.049,9.445-.068,9.961-2.9.329-1.924-6.956-2.264-8.705-1.766-.679-.747-3.458-1.574-5.207-1.777-.679,2.683-8.54-1.234-7.964,1.869-2.2-.906-7.058-1.416-8.725,1.2,1.852-.114,3.87.306,4.774,1.936-1.852-.533-4.321-1.823-5.926-2.175-1.688-.362-3.066.623-3.54.691-1.77.272-5.31,1.3-7.45,1.8-.02.238-.041.487-.061.737,1.811.622,1.934,1.777,3.951,2.445,2.881.974,2.984-.726,5.475-1.087-5,3.215,2.758,2.106,4.116,1.733,2.8-.759,4.733-2.547,7.676-2.446a5.7,5.7,0,0,0-3.231,1.6,15.556,15.556,0,0,1,3,.169c-1.481,1.212-6.195,1.608-8.335,1.755v.8c1.42.657,2.264,1.812,3.951,1.777-2.49.747-6.215-1.947-9.014-2.332.226,2.627,4.486,4.732,6.895,4.6-.556.712-.8,1.244-1.255,1.834-4.178-4.506-10.434,2.49-2.7.973-.411.249-.822.487-1.255.725.906,1.63,2.573,1.1,3.807-.316-1.42,4.166-5.618.215-8.19.576C130.482,90.322,129.473,91.069,128.012,91.783Zm.659-5.241c.412-.544,1.153-.2.947-1.687,4.671.781,3.58-2.389.679-4.393.165.125-9.447-5.2-9.219-3.646.679.159,1.3-.384,1.461.566a13.483,13.483,0,0,1-2.861.475c.6.442.782,1.1,1.029,1.37a16.176,16.176,0,0,0-1.975.079,9.256,9.256,0,0,0-.515,2.5c1.75,1.936,4.323.284,6.216,2.016-1.132.079-2.285.7-3.354.884C123.238,86.836,126.119,87.639,128.671,86.542Zm-3.807,2.75c-.206.374-.432.748-.659,1.132a3.8,3.8,0,0,0,3.293-.248C126.819,88.76,126.14,89.02,124.864,89.292Zm1.173,9.736c1.441-.328,17.617,1.133,15.229-2.966-1.42-2.467-7.8.181-9.755.125-4.1-.1-4.651-4.766-8.315-3.588C124.555,95.168,123.135,97.919,126.037,99.028Zm-10.167.328H116.9C116.446,98.145,116.446,99.108,115.87,99.356Zm2.265-2.014c.761.736,4.733,2.762,4.321-.079C122.127,94.941,118.814,96.051,118.135,97.342Zm3.6-3.465c1.626-1.867-.761-3.192-2.49-2.9C115.685,91.6,120.089,93.9,121.735,93.877Zm-3-3.861a15.45,15.45,0,0,0,3.869-.554v-.8C120.974,88.409,119.225,88.262,118.731,90.016ZM119.02,88c3.663-.985-2.45-2.808-3.581-2.412C115.932,87.5,117.125,88.67,119.02,88Zm-4.1-6.023c-.535-1.121-.906-1.732-2.264-1.46v.962A3.02,3.02,0,0,0,114.924,81.979Zm-.947,6.906c1.071-4.03-6.153-5.954-8.869-4.833a8.832,8.832,0,0,1,2.346,2.106h-1.235C107.289,87.786,111.9,88.013,113.977,88.884Zm-2.778.17c-.926-.4-1.214-.985-2.346-.646C109.285,89.79,110,89.337,111.2,89.055Zm-.679,7.007c1.5-.815,2.407-.18,2.717,1.687,1.954-.09,3.416-.838,3.19-3.136-.268-2.524-2.573-1.46-4.651-2.343a6.79,6.79,0,0,1,1.913,2.253,19.666,19.666,0,0,0-3.457-1.438c.144.679.165,1.313.371,2-1.359-1.143-1.955-3.01-3.869-3.226C106.507,94.3,108.524,95.519,110.52,96.062Zm-4.239.646c.165.125,1.6,1.948,1.6.068C107.886,95.711,106.486,96.707,106.281,96.707Zm.514-6.045a4.634,4.634,0,0,0-2.12-2.082C104.757,90.187,105.477,91.093,106.8,90.662Zm38.133,28.9c1.049.339,3.951-.068,2.923-1.891C146.945,116.055,143.673,117.277,144.928,119.565Zm-23.645-13.619c.432-.86,1.152-.543,1.111-1.845,2.038.8,2.881-1.189,3.951-2.808-1.5-.611-4.671-1.766-6.009-.713C119.143,101.531,118.628,106.771,121.283,105.946Zm-6.442,2.5c3.374,0,4.054-3.351.8-4.981,2.47-.871.535-2.525-.864-3.023-.247-.079-2.224,1.1-3.376.849,2.058,2.366.473,3.872-1.811,2.491C109.7,105.4,113.483,107.666,114.842,108.448Zm-8.191-5.072c.618-2.208-1.934-2.65-3.148-1.438C104.655,103.127,105.457,103.93,106.651,103.376Zm-4.836-1.845c.124.136.926,1.154,0,0Zm-7.1-14.649h5.206C99.016,84.741,96.136,85.364,94.715,86.881ZM96.2,90.424c1.461-.011,3.313-.191,2.038-1.765.617-.306.844-.023,1.255-.8a6.657,6.657,0,0,0-4.837.952C94.941,89.892,95.456,90.04,96.2,90.424Zm-2.573-1.448c-.452-1.042-.575-1.733-1.975-1.461C91.978,88.839,92.6,88.714,93.624,88.976Zm-1.46,4.019c-2.079.668-4.157,3.023-2.7,4.313,1.3,1.155,6.051-.033,7.677.125-.556.713-3.972.022-3.746,1.324.309,1.506,2.86.566,3.7.4,1.79-.362,8.5-1.324,8.005-4.064.185,1.054-4.4-2.785-4.013-2.66-2.14-.69-2.943.679-1.832,2.819.412.181,1.071-.1,1.214.453C100.683,96.571,93.254,93.413,92.164,92.995Zm.432-1.529c.473.227.618,1.076,1.77.8-.02-.26-.061-.544-.082-.8A3.04,3.04,0,0,1,92.6,91.465ZM86.75,94.93c-.246.317-.493.646-.74.963,1.6-.023,1.3.3,2.14-1.37C87.676,94.658,87.224,94.794,86.75,94.93ZM89.1,92.9a3.353,3.353,0,0,0,2.038-3.045c-4.425-1.189-5.844,3.283-9.878,3.769,1.893,3.17,4.733.295,6.442-1.438C88.129,93.594,88.623,92.6,89.1,92.9Zm1.009,21.012c3.169-.283,3.251,1.539,5.72,2.264,2.45.737,4.321-1.165,6.5-1.618,1.318-.26,10,1.3,6.956-1.359,1.214.023,1.606-.69,2.346-1.053-2.7-2.038-3.807-2.027-5.165-4.857-.514-1.1-2.8-6.43-4.651-3.894-.844,1.189,2.264,3.962-.061,3.769-1.173-.114-1.092-3.566-3.293-3.7.267.5.473,1.087.72,1.608a11.224,11.224,0,0,1-2.325.8,13.367,13.367,0,0,0,.493-1.6,4.308,4.308,0,0,0-4.094.306c.72-3.012-1.873-1.574-3.211-.928-2.407,1.177-2.49,1.766-3.58,3.826,1.6.691,3.333-.442,4.815.8a5.9,5.9,0,0,0-3.21,1.381c1.626.962,6.895-.5,7.758,1.12.309.6-5.783.906-6.73,1.518C89.426,112.851,89.776,113.383,90.106,113.915Zm12.223,3.147c1.318-.385,2.14-.691,2.428-1.924a10.8,10.8,0,0,0-3.89,1.607C101.362,116.848,101.856,116.96,102.329,117.063Zm-20.414-8.694c2.593.43,3.643-3.374,5.885-4.642,3.643-2.06,4.528-2.672-.144-3.725-1.193-.272-7.223-1.834-8.478-.679-.7.645-.906,5.389-2.45,7.28a4.487,4.487,0,0,1,3.951,2.9C81.091,109.126,81.5,108.741,81.915,108.368ZM20.959,137.519c-1.522-2.2-3.087.295,0,0Zm24.592-1.766c.349-2.558,3.458.589,5.063,1.11,2.079.68,4.054.181,6.071.906,3.56,1.268,6.009,4.846,9.59,5.525a7.639,7.639,0,0,0,1.152,2.265c.186.226,1.729,1,1.914,1.358,1.234,2.038,1.954,4.031,3.025,5.616,1.893,2.807,2.613,3.056,5.31,4.822,1.934,1.269,4.239,3.419,3.951,6.408-2.181-2.944-4.465-7-8.19-6.521,1.748,2.308,4.342,3.124,5.453,6.022,1.132,2.989-.329,5.887-.329,8.378-.041,4.641,2.1,11.117,4.98,14.582,1.667,2.014,4.239,2.1,5.762,4.709,1.235,2.061,2.285,4.688,3.437,6.817.392.679-.473,1.017.412,2.443.535.86,2.017,1.63,2.737,2.446.494.543,2.9,3.668,3.087,4.846,2.264-2.536-6.565-11.412-6.811-15.057,2.47-.341,5.289,5.864,7.1,8.015,2.326,2.739,4.425,6.453,6.812,9.442-3.458,2.58,10.269,8.2,12.512,8.557.68.114,1.441-.814,2.7-.406,1.44.453,2.078,2.129,3.231,2.876a12.837,12.837,0,0,0,5.042,1.291c2,1.539,3,4.549,4.054,5.659,1.522,1.54,4.98,2.718,7.141,3.758-.6-4.076,3.458-.362,3.623-1.719.329-2.671-5.083-1-6.585-2.084-3.623-2.671.247-5.66-1.606-8.625-1.584-2.514-5.618-.522-7.572-1.472,1.728-2.082,4.3-8.694.575-8.446-3.374.249-1.728,2.83-3.806,4.641-1.914,1.676-5,.589-6.5-.837-3.292-3.192-3.169-11.977-1.193-15.194,2.717-4.39,7.038-.134,10.042-1.177-.72-2.761,2.12-2.353,3.89-2.219-.165-.02,4.034.863,3.5.455,1.317,1.017,3.457,8.6,4.836,8.467,1.667-.158-1.275-10.234.967-13.065,1.441-1.834,4.466-2.287,5.331-4.462.74-1.854-.329-2.761-.8-5.071,1.235.362.6-.747,1.894.723.473-1.132,1.5-4.142,2.243-4.935.926-.906,3.313-1.087,4.857-1.563-2.243-4.664,6.277-8.015,9.447-7.2-.433-.091-3.067,1.042-3.437,1.856-1.112,2.491,1.975.362,2.078.339a8.3,8.3,0,0,0,6.4-5.139c-2.1,1.086-2.7,2.944-5.269,1.449-3.416-2.038-.124-3.85-.9-5.207-2.161-3.668-7.595,2.988-9.858,4.573a10.5,10.5,0,0,1,2.346-3.17c-.555-.136-1.132-.317-1.687-.475,2.86.7,4.507-3.239,6.956-4.008,1.626-.521,3.89.136,5.536,0,2.573-.272,2.3-.589,4.486-1.63,2-.906,5.166-1.245,4.219-4.053-.967-2.875-4.363-.838-6.4-.611.967-1.812,2.944-1.427,4.445-2.808a8.587,8.587,0,0,1-6.358-4.03c1.584-1.064-2.923-6.407-3.725-8.378-1.3,1.586-1.3,4.143-3.375,4.664-2.017.476-1.75-1.833-4.013-1.176,1.42-5.389-2.531-7.246-6.338-8.31-4.321-1.245-7.2,1.177-4.137,6.113h-1.028c-.329.838-.1,1.359-.577,2.265,4.054,1.856,3.128,8.626-1.544,8.445,1.338,1.585,2.532,7.494-.432,7.789-2.881.226-3.56-5.933-3.293-8.265a22.866,22.866,0,0,1-8.231-2.786c-1.277-.7-2.779-1.222-3.911-1.721-1.008-.475-1.255.544-2.119-.044-.659-.431-.762-2.038-1.194-2.627-1.481-2.016-2.243-.86-1.954-4.143a9.922,9.922,0,0,1,2.223-4.506c.946-1.042,3.169-1.336,2.943-2.854-.165-1-3.787-1.561-4.507-1.856,1.893.2,5.413,2.151,5.927-.475,2.223,1.471,3.272-.2,3.869-2.264-2.017.147-3.539-.94-5.269-1.845,1.318.056,8.891,2.082,5.783-1.54,3.376-.283,1.071,5.649-.432,6.284,1.234,1.449,1.708,1.811,3.58,1.788a11.939,11.939,0,0,1,2.264-1.064c.659-.114,1.379.747,1.914.657,4.2-.792-4.054-3.985-4.753-5.649,1.893-.08.74-.046,1.522-1.121,2.881-.238,4.2-2.921,2.264-5.559,3.931-.736-.926-3.555-2.325-4.268,2.407-.407,4.979.849,7.532-.169-.392-.4-.782-.792-1.174-1.212,2.675.86,4.529,2.649,6.873,4.585.988.8,2.82,2.038,2.881,3.668.082,2.2-3.684,2.106-2,4.879-1.4.351-6.38-.86-6.153,1.856.226,2.649,3.869-.249,4.794-.136,2.943.407,3.17,2.649,5.043,4.347,1.852,1.63,4.794,1.4,7,2.718.082-2.038-2.758-3.057-3.807-4.846,1.934,1.042,3.869,2.106,5.7,3.305a24.441,24.441,0,0,0,.8-2.74c-1.791-1.879-3.869-3.577-5.618-6.112,1.338-2.151,1.852-.658,3.416.248,2.511,1.461,1.42,2.287,3.417,1.687-.145.033,2.47-2.276,2.448-2.253.845-1.733.988-.442-.144-2.016-1.132-1.6-12.307-5-6.73-6.284-.555-.169-1.111-.328-1.687-.486a2.947,2.947,0,0,1,1.029-.725c-.865-.385-1.194-1.121-2.264-1.359.165-.3.328-.589.514-.894-2.058-.475-3.025-.985-4.9-1.528.329-.238.679-.487,1.008-.725-3.7-.1-3.931-2.412-6.5-3.307-1.975-.679-5.783,1.755-6.626,1.257-1.3-.747.328-1.517-.515-2.852-1.44-2.3-1.234-2-3.58-1.528-3.54.723-3.354,3.849-1.564,6.43-3.7.532-3.191-5.559-.535-7-2.82-.125-5.453.215-6.585,3.52-1.524,4.517,1.522,2.468,3,4.858-1.07-.295-1.708.191-2.7.147.9,1.426,4.98,1.9,6.729,2.491-1.07.475-1.625,8.388-4.465,6.77-1.277-.725.041-2.933,0-2.978-1.132-1.392-2.161-.849-2.552-1.086-.473-.295-2.634-1.064-3.478-2.457-1.173-1.9-1.481-7.154-5.063-4.4-3.376,2.582,3.623,7.234-.329,6.329.6,1.811,1.832,1.721,3.231.328-.041,2.762-3.333,1.822-2.346,4.993-1.646-1.234-1.255-.725-1.173-2.582-1.543-.464-.288-.079-1.091-1.369h.947a2.97,2.97,0,0,0-2.634-3.215c-.412.453-1.379,1.607-1.75,2.082.761.328,1.359,1.2,2.12,1.54-1.75,3.476-5.145,1.9-8.046,1.165-1.893-.475-2.12-1.29-3.951-.452-2.7,1.256-1.441,1.449-1.832,4.437-1.194-4.687-6.832-3.113-10.249-3.465.288-.18.618-.985,1.6-1.358-1.687-1.506-7.366-3.283-9.363-3.714-2.49-.521-4.918,2.3-5.844-1.029-.721,2.682-1.235.985-2.388.917-.369-.023-.781-1.823-1.646-1.936-1.152-.147-.432.8-1.07.939a37.682,37.682,0,0,0-6.318,3.374c1.338-1.936,3.519-1.665,4.816-3.386-2.47.011-5.392,1.495-7.862,2.061-4.157.95-5.824-.94-10.063-1.461-3.19-.385-6.112-1.11-9.425-1.4-3.5-.317-5.31-1.687-8.931-1.211.124-.295.247-.589.369-.884-2.221-.453-5.226,1.11-7.2,1.766-2.717.895-2.9,2.706-4.8,3.985-2.7,1.8-4.61-.114-2.448,3.023,1.358,1.981,4.3,2.253,5.289,4.822-1.544.565-3.211.475-3.293-1.438-1.748,1.37-3.725.884-5.185,2.808,1.893.849,1.872,2.559,3.5,3.012,1.873.52,4.343-.884,6.092-1.065.246,5.887-5.969,1.722-6.875,6.929-.226,1.4,2.717,7.291,4.61,3.848a3.667,3.667,0,0,1,.865,3.85c1.852-.407,3.931.294,4.836-.95.576,0,1.338.18,2.12.158-1.379,6.748-8.355,5.638-11.627,9.759,4.732,1.268,12.594-6.68,16.669-9.193-.371-.589-.721-1.177-1.092-1.766,2.491-.906,3.417-5.457,6.3-3.4-2.038.272-3.17,1.585-2.573,3.714a10.724,10.724,0,0,1,4.9-1.948C45.839,136.455,45.7,136.094,45.551,135.753Zm-5.989,6.59v-1.449c-1.481,1.177-3.643,1.494-2.428,3.623A5.579,5.579,0,0,0,39.562,142.343Z" transform="translate(-18.263 -67.622)" fill="#f6891f"/>
      </g>
    </g>
    <g id="Plant" transform="translate(738.312 477.4)">
      <g id="Group_62" data-name="Group 62" transform="translate(0 0)">
        <g id="Group_61" data-name="Group 61">
          <g id="Group_60" data-name="Group 60">
            <path id="Path_2404" data-name="Path 2404" d="M0,54.266.036,0" transform="translate(42.751 26.569)" fill="none" stroke="#8599a6" stroke-linecap="round" stroke-width="1"/>
            <path id="Path_18" data-name="Path 18" d="M27.644,370.745l23.9,18.828,16.736-21.248" transform="translate(-9.252 -331.278)" fill="none" stroke="#8599a6" stroke-linecap="round" stroke-linejoin="round" stroke-width="1"/>
            <path id="Path_19" data-name="Path 19" d="M50.039,369.922A28.322,28.322,0,0,1,42.153,357.2c-2.2-7.866,8.437-22.159,8.437-22.159s6.978,14.514,7.721,21.362S50.039,369.922,50.039,369.922Z" transform="translate(-7.647 -335.037)" fill="#69bd45"/>
            <path id="Path_20" data-name="Path 20" d="M58.732,377.128a92.208,92.208,0,0,1,.86-12.222c.812-4.37,7-7.137,11.493-8.231s13.124.193,13.124.193a23.188,23.188,0,0,1-8.052,14.2C69.056,376.743,58.732,377.128,58.732,377.128Z" transform="translate(-5.741 -332.643)" fill="#69bd45"/>
            <path id="Path_21" data-name="Path 21" d="M41.316,379.8s2.382-4.136-6.537-13.165-23.661-1.6-23.661-1.6,7.116,10.365,11.582,13.757S41.316,379.8,41.316,379.8Z" transform="translate(-11.118 -331.974)" fill="#69bd45"/>
            <path id="Path_22" data-name="Path 22" d="M51.77,398.338a24.71,24.71,0,0,0-13.744-8.947c-8.85-1.961-14.356-.536-14.356-.536s5.65,11.589,12.146,13.2S51.77,398.338,51.77,398.338Z" transform="translate(-9.7 -329.016)" fill="#69bd45"/>
            <path id="Path_23" data-name="Path 23" d="M48.919,398.122s1.025-2.574,4.741-4.907,13.592-2.946,13.592-2.946-.255,4.935-6.1,7.591S48.919,398.122,48.919,398.122Z" transform="translate(-6.849 -328.8)" fill="#69bd45"/>
          </g>
          <line id="Line_5" data-name="Line 5" x1="22.136" y1="13.54" transform="translate(8.062 34.283)" fill="none" stroke="#8599a6" stroke-linecap="round" stroke-miterlimit="10" stroke-width="1"/>
          <line id="Line_6" data-name="Line 6" y1="23.022" transform="translate(42.393 11.863)" fill="none" stroke="#8599a6" stroke-linecap="round" stroke-miterlimit="10" stroke-width="1"/>
          <line id="Line_7" data-name="Line 7" y1="13.405" x2="12.037" transform="translate(52.991 31.08)" fill="none" stroke="#8599a6" stroke-linecap="round" stroke-miterlimit="10" stroke-width="1"/>
          <path id="Path_24" data-name="Path 24" d="M36.863,395.26l13.417,2.324,8.088-2.552" transform="translate(-8.211 -328.262)" fill="none" stroke="#8599a6" stroke-linecap="round" stroke-miterlimit="10" stroke-width="1"/>
        </g>
        <path id="Path_25" data-name="Path 25" d="M66.223,402.785H32.8l2.785,23.252h27.85Z" transform="translate(-6.669 -324.614)" fill="#3e69b3"/>
      </g>
    </g>
    <g id="Character" transform="translate(892.073 307.432)">
      <g id="Group_70" data-name="Group 70" transform="translate(0)">
        <g id="Group_63" data-name="Group 63" transform="translate(66.915 100.686)">
          <path id="Path_26" data-name="Path 26" d="M265.545,276.433l2.918,14.592s-19.7,5.836-33.2,9.119-20.992,5.615-19.9,12.546,0,22.263,0,22.263L200.612,400.1l-1.094,4.743,30.642,5.106,5.471-18.239s3.283,5.836,3.283,9.848-3.647,42.064-3.647,42.064H349.081l12.768-79.637s9.12-41.587,9.849-47.788,4.013-13.133-1.459-17.875-55.448-7.66-56.542-8.025-4.012-1.459-4.012-1.459l-1.1-10.578a44.12,44.12,0,0,1-18.239,4.377c-9.849,0-24.441-9.849-24.441-9.849Z" transform="translate(-199.518 -272.785)" fill="#65c8c7"/>
          <path id="Path_27" data-name="Path 27" d="M263.033,379.888s20.525,8.642,34.567,10.443" transform="translate(-192.345 -260.69)" fill="none" stroke="#263238" stroke-miterlimit="10" stroke-width="1"/>
          <path id="Path_28" data-name="Path 28" d="M232.208,336.046s-6.566,27.359-5.472,35.748a22.113,22.113,0,0,0,5.836,12.769" transform="translate(-196.458 -265.641)" fill="none" stroke="#263238" stroke-miterlimit="10" stroke-width="1"/>
        </g>
        <g id="Group_64" data-name="Group 64" transform="translate(0 228.281)">
          <path id="Path_29" data-name="Path 29" d="M235.266,405.794s3.338-4.621-1.283-10.526-16.686-8.472-22.334-7.7-9.5,4.621-14.377,9.242-9.755,8.472-9.755,8.472-7.7-6.674-10.782-7.7-13.864,9.242-16.687,12.066-5.648,3.337.77,7.444,8.216,3.594,14.377,3.851,22.847-1.283,25.672-2.824,11.808-1.027,18.484-3.338C230.331,410.978,230.389,410.671,235.266,405.794Z" transform="translate(-137.413 -387.433)" fill="#fcbc92"/>
          <path id="Path_30" data-name="Path 30" d="M153.43,404.45s-7.1,1.183-9.169,2.662-6.211,5.324-4.437,7.394,6.8-2.662,7.691-2.662,10.352,2.071,10.352,2.071S156.981,405.928,153.43,404.45Z" transform="translate(-139.393 -385.512)" fill="#fff" stroke="#263238" stroke-miterlimit="10" stroke-width="1"/>
          <path id="Path_31" data-name="Path 31" d="M160.235,397.008s-9.171,1.774-10.058,4.436.3,16.269,1.183,18.044,3.549,1.775,4.733-.3,1.183-10.648,2.07-12.719S160.235,397.008,160.235,397.008Z" transform="translate(-138.21 -386.352)" fill="#fff" stroke="#263238" stroke-miterlimit="10" stroke-width="1"/>
          <path id="Path_32" data-name="Path 32" d="M170.494,396.125s-7.1-2.662-10.354-1.479-5.324,21.594-3.549,22.777a3.9,3.9,0,0,0,5.62-2.366c.887-2.662,2.662-9.171,2.662-9.171l4.436-3.549" transform="translate(-137.524 -386.653)" fill="#fff" stroke="#263238" stroke-miterlimit="10" stroke-width="1"/>
          <path id="Path_33" data-name="Path 33" d="M177.017,393.653s9.383,9.428,12.026,10.942a16.446,16.446,0,0,0,8.394,2.145c3.48-.129,6.476-3,9.951-1.187a3.391,3.391,0,0,1,1.9,2.278c.24,1.442-.883,2.739-2.026,3.649a18.911,18.911,0,0,1-16.909,3.279,2.6,2.6,0,0,0-1.132-.175,2.442,2.442,0,0,0-1.022.524,22.3,22.3,0,0,1-5.851,3.6c-4.16,1.424-9.469.171-9.469.171" transform="translate(-135.611 -386.731)" fill="#fff" stroke="#263238" stroke-miterlimit="10" stroke-width="1"/>
          <path id="Path_34" data-name="Path 34" d="M172.881,404.372s2.55,2.55,5.95-1.133" transform="translate(-135.611 -385.648)" fill="none" stroke="#263238" stroke-miterlimit="10" stroke-width="1"/>
          <path id="Path_35" data-name="Path 35" d="M174.836,399.964s-2.662,11.536-3.846,13.607-4.14,2.958-5.915.887,2.366-17.748,2.662-20.114a2.687,2.687,0,0,1,2.662-2.366s4.437-.592,6.211.3,4.733,6.8,4.733,6.8" transform="translate(-136.542 -386.942)" fill="#fff" stroke="#263238" stroke-miterlimit="10" stroke-width="1"/>
        </g>
        <g id="Group_66" data-name="Group 66" transform="translate(118.671 100.686)">
          <path id="Path_36" data-name="Path 36" d="M308.445,290.295c-1.094-.365-4.012-1.459-4.012-1.459l-1.1-10.578a44.12,44.12,0,0,1-18.239,4.377c-9.849,0-24.441-9.849-24.441-9.849l-.365,3.648,2.918,14.592s-7.939,2.352-17.189,4.909c4.313,9.6,16.09,32.8,31.051,37.407,14.7,4.522,36.183-27.309,45.115-41.873C314.514,290.816,308.807,290.416,308.445,290.295Z" transform="translate(-246.022 -272.785)" fill="#fcbc92"/>
          <g id="Group_65" data-name="Group 65" transform="translate(7.675 3.648)">
            <path id="Path_37" data-name="Path 37" d="M264.672,300.006l-11.754-8.195,9.515-2.638Z" transform="translate(-252.918 -274.582)" fill="#263238"/>
            <path id="Path_38" data-name="Path 38" d="M261.763,290.654,264,301.487l18.314-11.409-23.472-14.015Z" transform="translate(-252.249 -276.063)" fill="#263238"/>
          </g>
          <line id="Line_8" data-name="Line 8" x2="1.249" y2="8.818" transform="translate(58.41 16.051)" fill="none"/>
          <path id="Path_39" data-name="Path 39" d="M305.338,302.953s-17.714,4.8-20.716,5.7-5.7,2.1-6.3,3.6" transform="translate(-242.375 -269.378)" fill="none"/>
          <line id="Line_9" data-name="Line 9" x2="14.044" y2="6.33" transform="translate(12.523 36.578)" fill="none"/>
        </g>
        <g id="Group_68" data-name="Group 68" transform="translate(97.253)">
          <path id="Path_40" data-name="Path 40" d="M306.235,241.371s2.127-4.862,4.254-.911,3.647,8.812.911,13.371a23.512,23.512,0,0,1-5.165,6.382L303.8,240.46Z" transform="translate(-218.079 -175.924)" fill="#fff" stroke="#263238" stroke-miterlimit="10" stroke-width="1"/>
          <path id="Path_41" data-name="Path 41" d="M242.743,254.847a18.193,18.193,0,0,0,.3,12.762c2.734,6.989,10.635,6.382,10.635,6.382s7.293,11.548,12.763,16.714,21.271,13.674,27.653,11.547,15.5-15.194,18.232-26.436.3-27.653.3-27.653,1.216-10.029-2.127-18.233-7.6-11.548-15.194-10.636-27.045,3.647-37.68,10.94S244.566,243,244.566,246.338,242.743,254.847,242.743,254.847Z" transform="translate(-225.087 -178.156)" fill="#fcbc92"/>
          <path id="Path_42" data-name="Path 42" d="M296.086,230.542s3.038,6.685,5.774,8.508l2.734,1.823s1.519,6.685,2.127,9.117,2.736,1.519,3.039-1.52.3-6.989.3-6.989a20.008,20.008,0,0,0,6.382-9.116c2.127-6.078,4.254-14.586-2.431-21.575s-13.978-8.508-17.322-7.6S293.352,221.729,296.086,230.542Z" transform="translate(-219.174 -179.985)" fill="#263238" stroke="#263238" stroke-miterlimit="10" stroke-width="1"/>
          <g id="Group_67" data-name="Group 67">
            <path id="Path_43" data-name="Path 43" d="M244.434,259.007a3.316,3.316,0,0,1,4.557.608c2.127,2.431,1.215,5.773,2.432,6.989s3.95,2.127,4.254-1.52-2.127-9.42-.911-12.154,5.166-5.774,8.812-3.647,10.029,6.989,14.586,1.215,4.255-14.89,7.6-15.194,2.736,3.039,10.636,2.127,11.244-2.734,11.852-19.447-7.9-31-19.145-34.642-41.935,2.431-53.179,18.232-10.635,31.908-6.078,38.289S245.345,257.487,244.434,259.007Z" transform="translate(-226.777 -182.315)" fill="#263238" stroke="#263238" stroke-miterlimit="10" stroke-width="1"/>
            <path id="Path_44" data-name="Path 44" d="M295.4,205.44s-11.857-3.442-16.83,2.295-5.355,18.36-11.092,20.273-9.945-3.825-14.153,0-1.147,10.328-6.885,12.623-13.006-3.442-13.006-3.442" transform="translate(-226.025 -179.82)" fill="none" stroke="#737373" stroke-miterlimit="10" stroke-width="1"/>
            <path id="Path_45" data-name="Path 45" d="M260.906,214.987a13.4,13.4,0,0,0-11.092,2.678c-4.973,4.208-.383,10.328-7.267,11.475s-11.858-3.825-11.858-3.825" transform="translate(-226.336 -178.656)" fill="none" stroke="#737373" stroke-miterlimit="10" stroke-width="1"/>
          </g>
          <path id="Path_46" data-name="Path 46" d="M287.187,257.778l.913,7.6s5.773,6.989-.608,8.508-6.078-2.431-6.078-2.431" transform="translate(-220.607 -173.794)" fill="none" stroke="#263238" stroke-miterlimit="10" stroke-width="1"/>
          <path id="Path_47" data-name="Path 47" d="M275.953,276.473s7.293,4.254,12.763,3.342,8.812-7.293,8.812-7.293" transform="translate(-221.224 -172.129)" fill="none" stroke="#263238" stroke-miterlimit="10" stroke-width="1"/>
          <path id="Path_48" data-name="Path 48" d="M273.988,259.664c0,2.1-1.088,3.8-2.431,3.8s-2.431-1.7-2.431-3.8,1.088-3.8,2.431-3.8S273.988,257.567,273.988,259.664Z" transform="translate(-221.995 -174.009)" fill="#263238"/>
          <path id="Path_49" data-name="Path 49" d="M296.105,255.569c0,2.1-1.088,3.8-2.431,3.8s-2.432-1.7-2.432-3.8,1.088-3.8,2.432-3.8S296.105,253.472,296.105,255.569Z" transform="translate(-219.497 -174.472)" fill="#263238"/>
          <path id="Path_50" data-name="Path 50" d="M261.755,252.988s6.685-5.166,14.89-3.647" transform="translate(-222.827 -174.778)" fill="none" stroke="#263238" stroke-miterlimit="10" stroke-width="1"/>
          <path id="Path_51" data-name="Path 51" d="M288.513,247.16a10.814,10.814,0,0,1,10.939-2.431" transform="translate(-219.806 -175.331)" fill="none" stroke="#263238" stroke-miterlimit="10" stroke-width="1"/>
          <path id="Path_52" data-name="Path 52" d="M279.51,252.568l-17.231,3.239a2.872,2.872,0,0,0-2.284,3.392l1.223,6.024a3.163,3.163,0,0,0,3.763,2.465l16.032-3.436a3.165,3.165,0,0,0,2.484-3.422l-.6-5.739A2.871,2.871,0,0,0,279.51,252.568Z" transform="translate(-223.033 -174.388)" fill="none" stroke="#263238" stroke-miterlimit="10" stroke-width="1"/>
          <path id="Path_53" data-name="Path 53" d="M289.545,250.443l17.726-3.019a2.428,2.428,0,0,1,2.973,2.375l.058,6.07a3.794,3.794,0,0,1-3.2,3.629l-16.579,2.413a2.666,2.666,0,0,1-3.176-2.332l-.614-5.585A3.41,3.41,0,0,1,289.545,250.443Z" transform="translate(-220.009 -174.968)" fill="none" stroke="#263238" stroke-miterlimit="10" stroke-width="1"/>
          <path id="Path_54" data-name="Path 54" d="M281.214,256.114a5.536,5.536,0,0,1,6.268-1.045" transform="translate(-220.63 -174.156)" fill="none" stroke="#263238" stroke-miterlimit="10" stroke-width="1"/>
          <line id="Line_10" data-name="Line 10" x1="14.103" y1="7.138" transform="translate(23.326 80.042)" fill="none" stroke="#263238" stroke-miterlimit="10" stroke-width="1"/>
        </g>
        <path id="Path_55" data-name="Path 55" d="M325.377,332.15l-3.17,59.562s2.189,1.1,12.4,7.661,25.9,7.3,28.089,4.742-7.044-94.947-7.044-94.947" transform="translate(-118.748 -167.99)" fill="#65c8c7" stroke="#263238" stroke-miterlimit="10" stroke-width="1"/>
        <g id="Group_69" data-name="Group 69" transform="translate(52.235 220.043)">
          <path id="Path_56" data-name="Path 56" d="M201.653,405.693s-1.026,1.027-4.877,1.54-8.986-1.283-10.269,2.567,4.621,6.161,7.959,5.648a66.938,66.938,0,0,0,9.5-2.825s7.188.257,10.526,1.54,5.9,3.338,11.039,2.054,9.62-.405,11.228-2.513,5.972-4.418-6.865-7.756a49.969,49.969,0,0,0-22.848-.77Z" transform="translate(-186.327 -377.297)" fill="#fcbc92" stroke="#263238" stroke-miterlimit="10" stroke-width="1"/>
          <path id="Path_57" data-name="Path 57" d="M211.085,396.611s-4.621-1.54-7.188.257-6.161,15.146-7.188,19-1.026,7.959.77,8.729,3.851-.77,5.135-4.107,8.472-17.97,9.242-19.768S214.166,396.1,211.085,396.611Z" transform="translate(-185.233 -378.228)" fill="#fcbc92" stroke="#263238" stroke-miterlimit="10" stroke-width="1"/>
          <path id="Path_58" data-name="Path 58" d="M221.973,397.449s-9.135-1.649-11.445-.879-7.959,14.377-8.216,16.943-3.081,11.039.257,11.809,5.391-2.31,6.931-5.391,4.621-12.835,6.418-15.146a16.4,16.4,0,0,1,4.878-3.851S224.69,399.1,221.973,397.449Z" transform="translate(-184.676 -378.186)" fill="#fcbc92" stroke="#263238" stroke-miterlimit="10" stroke-width="1"/>
          <path id="Path_59" data-name="Path 59" d="M374.047,398.907s8.962-2.795-4.9-10.82-28.089-9.12-32.831-7.3-75.624,24.7-75.624,24.7-34.289-5.472-39.4-6.2-7.661,4.743-9.849,9.12-5.107,16.416-4.378,17.875,4.378.365,5.107-1.459,2.918-8.025,3.648-9.12,6.2-4.377,6.2-4.377l8.755,1.459s-5.784,7.7-10.4,10.525-2.824,5.905-.513,5.905,9.242-4.108,11.809-6.162,7.188-4.877,7.188-4.877a17.161,17.161,0,0,0,6.931,1.54,88.477,88.477,0,0,0,15.4-2.31c2.823-.77,65.18-4.121,73.4-5.919S363.526,406.624,374.047,398.907Z" transform="translate(-183.998 -380.031)" fill="#fcbc92"/>
        </g>
      </g>
    </g>
    <g id="Device" transform="translate(808.96 476.424)">
      <g id="Group_71" data-name="Group 71" transform="translate(0 0)">
        <path id="Path_2407" data-name="Path 2407" d="M0,0H207.36V3.79H0Z" transform="translate(16.615 98.155)" fill="#363636" stroke="#fff" stroke-width="1"/>
        <rect id="Rectangle_23" data-name="Rectangle 23" width="73.763" height="3.79" transform="translate(150.212 98.155)" fill="#363636" stroke="#fff" stroke-miterlimit="10" stroke-width="1"/>
        <path id="Path_60" data-name="Path 60" d="M216.52,432.316H82.568L66.021,339.234a4.318,4.318,0,0,1,4.251-5.074h125.18a4.318,4.318,0,0,1,4.251,3.562Z" transform="translate(-63.574 -334.16)" fill="#fff" stroke="#fff" stroke-miterlimit="10" stroke-width="1"/>
        <path id="Path_61" data-name="Path 61" d="M214.382,432.316H80.43L63.883,339.234a4.318,4.318,0,0,1,4.252-5.074H193.314a4.318,4.318,0,0,1,4.251,3.562Z" transform="translate(-63.815 -334.16)" fill="#363636" stroke="#ccc" stroke-miterlimit="10" stroke-width="1"/>
      </g>
    </g>
    <g id="Books" transform="translate(1045.966 541.834)">
      <g id="Group_72" data-name="Group 72" transform="translate(102.734 18.565)">
        <path id="Path_62" data-name="Path 62" d="M468.609,409.614H379.044a9.063,9.063,0,0,0-9.063,9.063h0a9.063,9.063,0,0,0,9.063,9.063h89.565Z" transform="translate(-369.981 -409.614)" fill="#fff" stroke="#263238" stroke-miterlimit="10" stroke-width="1"/>
        <path id="Path_63" data-name="Path 63" d="M377.466,418.677a9.063,9.063,0,0,1,9.063-9.063h-2.737a9.063,9.063,0,1,0,0,18.125h2.737A9.063,9.063,0,0,1,377.466,418.677Z" transform="translate(-369.445 -409.614)" fill="#fff" stroke="#263238" stroke-miterlimit="10" stroke-width="1"/>
        <path id="Path_64" data-name="Path 64" d="M401.444,418.677a9.062,9.062,0,0,1,9.063-9.063H407.77a9.063,9.063,0,1,0,0,18.125h2.737A9.062,9.062,0,0,1,401.444,418.677Z" transform="translate(-366.737 -409.614)" fill="#fff" stroke="#263238" stroke-miterlimit="10" stroke-width="1"/>
        <path id="Path_65" data-name="Path 65" d="M417.813,409.614l-7.926,3.828-1.585,5.813,2.114,4.756,5.254,3.728h48.613V409.614Z" transform="translate(-365.654 -409.614)" fill="#fff" stroke="#263238" stroke-miterlimit="10" stroke-width="1"/>
        <path id="Path_66" data-name="Path 66" d="M416.432,425a6.324,6.324,0,1,1,0-12.647h51.225v-2.739H415.841a9.063,9.063,0,0,0,0,18.125h51.816V425Z" transform="translate(-365.826 -409.614)" fill="#fff" stroke="#263238" stroke-miterlimit="10" stroke-width="1"/>
        <line id="Line_11" data-name="Line 11" x2="13.475" transform="translate(46.875 7.527)" fill="none" stroke="#263238" stroke-miterlimit="10" stroke-width="1"/>
        <line id="Line_12" data-name="Line 12" x2="9.776" transform="translate(56.122 10.698)" fill="none" stroke="#263238" stroke-miterlimit="10" stroke-width="1"/>
        <line id="Line_13" data-name="Line 13" x1="14.267" transform="translate(83.6 7.263)" fill="none" stroke="#263238" stroke-miterlimit="10" stroke-width="1"/>
        <line id="Line_14" data-name="Line 14" x1="14.003" transform="translate(75.145 11.491)" fill="none" stroke="#263238" stroke-miterlimit="10" stroke-width="1"/>
        <line id="Line_15" data-name="Line 15" x1="3.435" transform="translate(78.316 7.527)" fill="none" stroke="#263238" stroke-miterlimit="10" stroke-width="1"/>
      </g>
      <g id="Group_73" data-name="Group 73" transform="translate(102.734 0)">
        <path id="Path_67" data-name="Path 67" d="M468.609,392.933H379.044A9.063,9.063,0,0,0,369.981,402h0a9.062,9.062,0,0,0,9.063,9.063h89.565Z" transform="translate(-369.981 -392.933)" fill="#65c8c7" stroke="#263238" stroke-miterlimit="10" stroke-width="1"/>
        <path id="Path_68" data-name="Path 68" d="M377.466,402a9.063,9.063,0,0,1,9.063-9.063h-2.737a9.063,9.063,0,1,0,0,18.125h2.737A9.062,9.062,0,0,1,377.466,402Z" transform="translate(-369.445 -392.933)" fill="#f6891f" stroke="#263238" stroke-miterlimit="10" stroke-width="1"/>
        <path id="Path_69" data-name="Path 69" d="M401.444,402a9.062,9.062,0,0,1,9.063-9.063H407.77a9.063,9.063,0,1,0,0,18.125h2.737A9.062,9.062,0,0,1,401.444,402Z" transform="translate(-366.737 -392.933)" fill="#f6891f" stroke="#263238" stroke-miterlimit="10" stroke-width="1"/>
        <path id="Path_70" data-name="Path 70" d="M417.813,392.934l-7.926,3.828-1.585,5.813,2.114,4.756,5.254,3.728h48.613V392.934Z" transform="translate(-365.654 -392.933)" fill="#fff" stroke="#263238" stroke-miterlimit="10" stroke-width="1"/>
        <path id="Path_71" data-name="Path 71" d="M416.432,408.319a6.323,6.323,0,1,1,0-12.646h51.225v-2.74H415.841a9.063,9.063,0,0,0,0,18.125h51.816v-2.739Z" transform="translate(-365.826 -392.933)" fill="#263238" stroke="#263238" stroke-linecap="round" stroke-miterlimit="10" stroke-width="1"/>
        <line id="Line_16" data-name="Line 16" x2="13.475" transform="translate(46.875 7.528)" fill="none" stroke="#263238" stroke-miterlimit="10" stroke-width="1"/>
        <line id="Line_17" data-name="Line 17" x2="9.776" transform="translate(56.122 10.698)" fill="none" stroke="#263238" stroke-miterlimit="10" stroke-width="1"/>
        <line id="Line_18" data-name="Line 18" x1="14.267" transform="translate(83.6 7.264)" fill="none" stroke="#263238" stroke-miterlimit="10" stroke-width="1"/>
        <line id="Line_19" data-name="Line 19" x1="14.003" transform="translate(75.145 11.491)" fill="none" stroke="#263238" stroke-miterlimit="10" stroke-width="1"/>
        <line id="Line_20" data-name="Line 20" x1="3.435" transform="translate(78.316 7.528)" fill="none" stroke="#263238" stroke-miterlimit="10" stroke-width="1"/>
      </g>
      <g id="Group_74" data-name="Group 74" transform="translate(0 16.389)">
        <path id="Path_72" data-name="Path 72" d="M432.615,422.654H277.768v4.3h36.565l58.312-2.647,53.412,2.647h6.558Z" transform="translate(-277.66 -405.966)" fill="#bababa" stroke="#263238" stroke-miterlimit="10" stroke-width="1"/>
        <path id="Path_73" data-name="Path 73" d="M310.414,422.654v4.3l52.827-.686.817.686h9.8l1.143-.85,53.927.85v-4.3Z" transform="translate(-273.973 -405.966)" fill="#263238" stroke="#4b8040" stroke-miterlimit="10" stroke-width="1"/>
        <path id="Path_74" data-name="Path 74" d="M277.671,414.789s29.919-1.415,40.916-4.163,24.134-3.361,29.327-2.75a106.883,106.883,0,0,1,11.3,2.139s21.384-2.139,36.047-.917,16.191,14.969,16.191,14.969H281.012Z" transform="translate(-277.671 -407.66)" fill="#fff" stroke="#263238" stroke-miterlimit="10" stroke-width="1"/>
        <path id="Path_75" data-name="Path 75" d="M368.282,424.187v-9.08s-15.771-8.6-30.588-5.257-27.72,4.78-27.72,4.78v9.558Z" transform="translate(-274.023 -407.499)" fill="#fff" stroke="#263238" stroke-miterlimit="10" stroke-width="1"/>
        <path id="Path_76" data-name="Path 76" d="M362.366,424.187v-9.08s15.771-8.6,30.587-5.257,27.72,4.78,27.72,4.78v9.558Z" transform="translate(-268.107 -407.499)" fill="#fff" stroke="#263238" stroke-miterlimit="10" stroke-width="1"/>
        <rect id="Rectangle_24" data-name="Rectangle 24" width="35.952" height="9.558" transform="translate(0 7.129)" fill="#fff" stroke="#263238" stroke-miterlimit="10" stroke-width="1"/>
        <path id="Path_77" data-name="Path 77" d="M332.108,416.352c5.19-.545,10.587-1.084,14.169-1.395,7.359-.641,17.278,3.519,17.278,3.519" transform="translate(-271.524 -406.843)" fill="none" stroke="#263238" stroke-miterlimit="10" stroke-width="1"/>
        <path id="Path_78" data-name="Path 78" d="M320.112,417.637c1.844-.23,4.974-.585,8.568-.975" transform="translate(-272.878 -406.643)" fill="none" stroke="#263238" stroke-miterlimit="10" stroke-width="1"/>
        <path id="Path_79" data-name="Path 79" d="M360.356,420.567s-7.68-2.239-14.08-1.28" transform="translate(-269.924 -406.373)" fill="none" stroke="#263238" stroke-miterlimit="10" stroke-width="1"/>
        <path id="Path_80" data-name="Path 80" d="M349.907,412.654a60.122,60.122,0,0,0-13.119.96" transform="translate(-270.995 -407.099)" fill="none" stroke="#263238" stroke-miterlimit="10" stroke-width="1"/>
        <path id="Path_81" data-name="Path 81" d="M395.293,417.406c-5.407-.5-12-1.018-15.994-1.018a60.014,60.014,0,0,0-13.759,1.6" transform="translate(-267.748 -406.674)" fill="none" stroke="#263238" stroke-miterlimit="10" stroke-width="1"/>
        <path id="Path_82" data-name="Path 82" d="M400.724,418.155s-1.536-.17-3.9-.41" transform="translate(-264.215 -406.521)" fill="none" stroke="#263238" stroke-miterlimit="10" stroke-width="1"/>
        <path id="Path_83" data-name="Path 83" d="M369.852,415.077a28.344,28.344,0,0,1,15.68-.321" transform="translate(-267.261 -406.962)" fill="none" stroke="#263238" stroke-miterlimit="10" stroke-width="1"/>
        <path id="Path_84" data-name="Path 84" d="M370.14,420.835a59.211,59.211,0,0,1,13.119-1.28c5.759.319,20.479,1.6,20.479,1.6" transform="translate(-267.229 -406.321)" fill="none" stroke="#263238" stroke-miterlimit="10" stroke-width="1"/>
      </g>
    </g>
    <g id="Table" transform="translate(744.989 578.953)">
      <line id="Line_21" data-name="Line 21" x2="532.681" transform="translate(0 0)" fill="none" stroke="#263238" stroke-miterlimit="10" stroke-width="1"/>
    </g>
    <g id="Group_951" data-name="Group 951" transform="translate(778.438 383.369)">
      <g transform="matrix(1, 0, 0, 1, -40.13, -209.58)" filter="url(#Path_2406)">
        <path id="Path_2406-2" data-name="Path 2406" d="M30.426,0H85.068c16.8,0,30.426,8.619,30.426,19.25S101.871,38.5,85.068,38.5H30.426C13.622,38.5,0,29.881,0,19.25S13.622,0,30.426,0Z" transform="translate(25.9 214.94)" fill="#69bd45"/>
      </g>
      <text id="Portuguese" transform="translate(-4.69 32.102)" fill="#fff" font-size="20" font-family="SegoeUI, Segoe UI"><tspan x="0" y="0">Portuguese</tspan></text>
    </g>
    <g id="Group_952" data-name="Group 952" transform="translate(951.542 180.066)">
      <g transform="matrix(1, 0, 0, 1, -213.23, -6.28)" filter="url(#Rectangle_39)">
        <rect id="Rectangle_39-5" data-name="Rectangle 39" width="96.117" height="40" rx="20" transform="translate(213.06 6)" fill="#69bd45"/>
      </g>
      <text id="Russian" transform="translate(12.435 28.921)" fill="#fff" font-size="21" font-family="SegoeUI, Segoe UI"><tspan x="0" y="0">Russian</tspan></text>
    </g>
    <g id="Group_953" data-name="Group 953" transform="translate(1159.368 366.616)">
      <g transform="matrix(1, 0, 0, 1, -421.06, -192.83)" filter="url(#Rectangle_39-2)">
        <rect id="Rectangle_39-6" data-name="Rectangle 39" width="79" height="39" rx="19.5" transform="translate(422.22 200.44)" fill="#3e69b3"/>
      </g>
      <text id="Malay" transform="translate(13.163 36.572)" fill="#fff" font-size="21" font-family="SegoeUI, Segoe UI"><tspan x="0" y="0">Malay</tspan></text>
    </g>
    <g id="Group_3076" data-name="Group 3076" transform="translate(1120.837 236.928)">
      <g transform="matrix(1, 0, 0, 1, -382.52, -63.14)" filter="url(#Path_2405)">
        <path id="Path_2405-2" data-name="Path 2405" d="M28.258,0H79.006c15.606,0,28.258,9.053,28.258,20.22S94.613,40.44,79.006,40.44H28.258C12.651,40.44,0,31.387,0,20.22S12.651,0,28.258,0Z" transform="translate(361.4 70.99)" fill="#65c8c7"/>
      </g>
      <text id="Mandarin" transform="translate(-11.837 36.572)" fill="#fff" font-size="21" font-family="SegoeUI, Segoe UI"><tspan x="0" y="0">Mandarin</tspan></text>
    </g>
    <g id="Group_3077" data-name="Group 3077" transform="translate(792.837 266.217)">
      <g transform="matrix(1, 0, 0, 1, -54.52, -92.43)" filter="url(#Rectangle_39-3)">
        <rect id="Rectangle_39-7" data-name="Rectangle 39" width="87" height="39" rx="19.5" transform="translate(57.69 98)" fill="#65c8c7"/>
      </g>
      <text id="Spanish" transform="translate(12.163 33.572)" fill="#fff" font-size="20" font-family="SegoeUI, Segoe UI"><tspan x="0" y="0">Spanish</tspan></text>
    </g>
    <ellipse id="Ellipse_573" data-name="Ellipse 573" cx="10" cy="9.5" rx="10" ry="9.5" transform="translate(866 516)" fill="#69bd45"/>
    <g id="Group_3080" data-name="Group 3080" transform="translate(910.714 287.682)">
      <g transform="matrix(1, 0, 0, 1, -172.4, -113.89)" filter="url(#Rectangle_39-4)">
        <rect id="Rectangle_39-8" data-name="Rectangle 39" width="79" height="39" rx="19.5" transform="translate(173.56 121.5)" fill="#3e69b3"/>
      </g>
      <text id="Yoruba" transform="translate(10.163 36.572)" fill="#fff" font-size="21" font-family="SegoeUI, Segoe UI"><tspan x="0" y="0">Yoruba</tspan></text>
    </g>
  </g>
</svg>
