<svg xmlns="http://www.w3.org/2000/svg" width="38.92" height="38.92" viewBox="0 0 38.92 38.92">
  <defs>
    <style>
      .cls-1 {
        fill: #082b84;
      }
    </style>
  </defs>
  <g id="interpreter" transform="translate(-1 -1)">
    <path id="Path_2391" data-name="Path 2391" class="cls-1" d="M38.664,9.788H36.153V2.255A1.257,1.257,0,0,0,34.9,1H23.6a1.257,1.257,0,0,0-1.255,1.255V5.2a6.9,6.9,0,0,0-5.65-2.947H14.447a8.144,8.144,0,0,0-6.79,3.634L5.851,8.6a6.453,6.453,0,0,0-.4,6.466l.407.815A1.575,1.575,0,0,1,5.15,18l-.28.14A2.455,2.455,0,0,0,3.511,20.36a2.364,2.364,0,0,0,.63,1.6A5.67,5.67,0,0,0,1,27.019v6.623a3.77,3.77,0,0,0,3.766,3.766H5.885A8.144,8.144,0,0,1,5.6,38.572l-.45,1.348H20.7l-.449-1.348a8.216,8.216,0,0,1,.167-5.65l.2-.51a6.506,6.506,0,0,0,.316-1.055l4.3,4.711a4.111,4.111,0,0,0,7.149-2.77V23.6a2.485,2.485,0,0,0-.349-1.255h1.844l.868,1.736a1.4,1.4,0,0,0,2.658-.628V22.343h1.255a1.257,1.257,0,0,0,1.255-1.255V11.044A1.257,1.257,0,0,0,38.664,9.788ZM23.6,2.255H34.9v8.788H27.6l-1.214,2.429a.154.154,0,0,1-.281-.065V11.044H23.6Zm3.139,24.114.628.628v2.689l-4.006-6.01.49-.326a2.269,2.269,0,0,0,1.006-1.907,2.207,2.207,0,0,0-1.227-1.984l-.5-.25a1.418,1.418,0,0,1-.546-2.054,6.042,6.042,0,0,0,1.018-3.36V12.3h1.255v1.107A1.4,1.4,0,0,0,26.109,14.8v6.292a1.257,1.257,0,0,0,1.255,1.255h.343a2.476,2.476,0,0,0-.284.716,1.887,1.887,0,0,0-1.314,1.8A2.128,2.128,0,0,0,26.737,26.369ZM5.1,21.159a1.137,1.137,0,0,1-.331-.822,1.2,1.2,0,0,1,.665-1.076l.28-.14a2.833,2.833,0,0,0,1.266-3.8L6.571,14.5A5.2,5.2,0,0,1,6.9,9.3L8.7,6.586a6.889,6.889,0,0,1,5.745-3.075h2.246a5.656,5.656,0,0,1,5.65,5.65v4.633a4.788,4.788,0,0,1-.807,2.664,2.673,2.673,0,0,0,1.029,3.873l.5.25a.967.967,0,0,1,.533.884,1.008,1.008,0,0,1-.447.841l-.589.393a4.375,4.375,0,0,0-2.556-1.157l-3.94-.394V19.832a3.772,3.772,0,0,0,3.746-3.368l1.276-.638v-.388A13.342,13.342,0,0,0,19.806,10.2a2.513,2.513,0,0,0-.443-4.577l-.588-.2-.4,1.191.588.2a1.268,1.268,0,0,1-.316,2.467l-5.8.387a3.132,3.132,0,0,0-2.837,2.37l-.082.33a1.886,1.886,0,0,0-1.375,1.814A2.126,2.126,0,0,0,9.181,15.7l.626.627L9.79,21.13l-3.544.254a5.535,5.535,0,0,0-.8.122Zm13.479,5.579a.628.628,0,0,1-.628.628,3.889,3.889,0,0,1-2.282-.738,1.843,1.843,0,0,0,0-2.291,3.889,3.889,0,0,1,2.282-.738.628.628,0,0,1,.628.628ZM12.3,36.153V33.274l.628-.628a.883.883,0,0,1,.628-.26.628.628,0,0,1,.628.628v.628h.628a1.255,1.255,0,1,1,0,2.511Zm6.285-25.61a12.76,12.76,0,0,1,1.239,4.512l-1.246.623v.388a2.473,2.473,0,0,1-.089.628H17.469A1.635,1.635,0,0,1,16,15.785l-1.123.562a2.886,2.886,0,0,0,2.593,1.6h.239a2.487,2.487,0,0,1-1.643.628H13.554v1.255H14.81v1.807l-.493,1.973c-.045,0-.088-.014-.134-.014a1.882,1.882,0,0,0-.355.036,5.119,5.119,0,0,0-2.513-1.21l-.27-.81.021-5.808-1-1a.879.879,0,0,1-.26-.628.628.628,0,0,1,.628-.628h.49l.3-1.212a1.88,1.88,0,0,1,1.7-1.423ZM14.81,25.482a.628.628,0,1,1-.628-.628A.628.628,0,0,1,14.81,25.482ZM10.416,23.6a3.874,3.874,0,0,1,2.28.74,1.844,1.844,0,0,0,0,2.289,3.889,3.889,0,0,1-2.282.738.628.628,0,0,1-.628-.628V24.226A.628.628,0,0,1,10.416,23.6Zm5.395-.787.1-.417.866.087A5.014,5.014,0,0,0,15.811,22.812ZM2.255,33.642V27.019a4.409,4.409,0,0,1,4.081-4.383l3.638-.26.008.022a1.883,1.883,0,0,0-1.449,1.828v2.511a1.886,1.886,0,0,0,1.883,1.883,5.132,5.132,0,0,0,3.139-1.067v3.577a2.128,2.128,0,0,0-1.515.628l-.628.628H6.572L6.4,31.946a5.236,5.236,0,0,1,.178-4.282l.306-.613a3.774,3.774,0,0,0,.4-1.683v-.514H6.022v.514a2.519,2.519,0,0,1-.266,1.123l-.305.611a6.483,6.483,0,0,0-.23,5.285H3.511v1.255h7.533v2.511H4.766A2.513,2.513,0,0,1,2.255,33.642Zm4.9,3.766h6.4v1.255H6.888A9.611,9.611,0,0,0,7.157,37.409Zm12.3-5.463-.2.51a9.478,9.478,0,0,0-.288,6.209H14.81V37.409a2.511,2.511,0,0,0,.54-4.964,1.885,1.885,0,0,0-.54-.825V27.554a5.132,5.132,0,0,0,3.139,1.067,1.872,1.872,0,0,0,1.445-.691A5.257,5.257,0,0,1,19.832,30a5.2,5.2,0,0,1-.374,1.942Zm8.817,4.208a2.86,2.86,0,0,1-2.11-.932l-5.1-5.591A6.521,6.521,0,0,0,20.4,27.1l-.305-.611a2.518,2.518,0,0,1-.265-1.122V24.226a1.878,1.878,0,0,0-.779-1.518l.829.083a3.13,3.13,0,0,1,2.3,1.382l5.184,7.777v1.693H28.62V27.365h2.511V33.3a2.859,2.859,0,0,1-2.856,2.856ZM31.131,23.6v2.511H28.253l-.628-.628a.883.883,0,0,1-.26-.628.628.628,0,0,1,.628-.628h.628V23.6a1.255,1.255,0,1,1,2.511,0Zm7.533-2.511H36.153V23.45a.153.153,0,0,1-.281.066l-1.215-2.429H27.365V14.25a1.392,1.392,0,0,0,.148-.215l.868-1.736h4.006v1.255H29.876V14.81h1.255v.811a4.369,4.369,0,0,0,.939,2.711c-.055.031-.105.067-.163.1l-1.685.842.562,1.123,1.685-.842a4.491,4.491,0,0,0,.546-.324,4.412,4.412,0,0,0,.546.324l1.685.842.562-1.123-1.685-.842c-.057-.028-.108-.065-.163-.1a4.376,4.376,0,0,0,.938-2.711V14.81h1.255V13.555H33.642V12.3H34.9a1.257,1.257,0,0,0,1.255-1.255h2.511ZM33.015,17.5a3.121,3.121,0,0,1-.628-1.877V14.81h1.255v.811A3.121,3.121,0,0,1,33.015,17.5Z"/>
    <path id="Path_2392" data-name="Path 2392" class="cls-1" d="M44.255,10.022h1.255v1.255h1.255V6.883a1.883,1.883,0,0,0-3.766,0v4.394h1.255Zm.628-3.766a.628.628,0,0,1,.628.628V8.766H44.255V6.883A.628.628,0,0,1,44.883,6.255Z" transform="translate(-15.635 -1.489)"/>
    <path id="Path_2393" data-name="Path 2393" class="cls-1" d="M24.883,20.883A1.886,1.886,0,0,0,26.766,19H25.511a.628.628,0,1,1-1.255,0H23A1.886,1.886,0,0,0,24.883,20.883Z" transform="translate(-8.19 -6.701)"/>
  </g>
</svg>
