<svg xmlns="http://www.w3.org/2000/svg" width="63.511" height="38.147" viewBox="0 0 63.511 38.147">
  <defs>
    <style>
      .cls-1 {
        opacity: 0.25;
      }

      .cls-2 {
        fill: #082b84;
        fill-rule: evenodd;
      }
    </style>
  </defs>
  <g id="Group_106" data-name="Group 106" class="cls-1">
    <path id="Path_86" data-name="Path 86" class="cls-2" d="M14.447,0A14.447,14.447,0,0,1,28.9,14.447c0,11.325-7.78,17.785-16.254,23.5a1.118,1.118,0,0,1-1.605-1.458,19.55,19.55,0,0,0,2.468-7.63A14.447,14.447,0,0,1,14.447,0Z" transform="translate(0 0)"/>
    <path id="Path_87" data-name="Path 87" class="cls-2" d="M219.338,0a14.447,14.447,0,0,1,14.447,14.447c0,11.325-7.778,17.785-16.253,23.5a1.119,1.119,0,0,1-1.607-1.458,19.523,19.523,0,0,0,2.468-7.63A14.447,14.447,0,0,1,219.338,0Z" transform="translate(-170.274 0)"/>
  </g>
</svg>
