<svg xmlns="http://www.w3.org/2000/svg" width="38.155" height="28.177" viewBox="0 0 38.155 28.177">
  <defs>
    <style>
      .cls-1 {
        fill: #e2be2d;
        fill-rule: evenodd;
      }
    </style>
  </defs>
  <g id="noun_translate_2792385" transform="translate(-10.749 -145.436)">
    <g id="Group_56" data-name="Group 56" transform="translate(10.749 145.436)">
      <path id="Path_1" data-name="Path 1" class="cls-1" d="M44.405,139.53H71.85v16.256H44.405ZM39.05,167.707H77.2L71.85,157.475H44.405Zm15.757-19.4a3.532,3.532,0,0,1-.973,2.32,2.359,2.359,0,0,0,1.414.713l-.125.712a3.058,3.058,0,0,1-1.855-.975,3.215,3.215,0,0,1-1.2.429l-.124-.712a2.511,2.511,0,0,0,.9-.306,3.808,3.808,0,0,1-.466-1.851l.72-.018a3.151,3.151,0,0,0,.314,1.4,2.848,2.848,0,0,0,.672-1.714H51.867v-.73h1.288v-.452h.882v.452h1.288v.73Zm-1.637-5.142L56,141.53v.817l2.127.307,2.127-.307v-.817l2.831,1.634L60.255,144.8v-.817l-2.127-.307L56,143.981v.817Zm4.569,2.281v8.285H49.454v-8.285Zm-1.086,1.087H50.541v6.112h6.112ZM66.8,145.5v8.285H58.516V145.5Zm-1.086,1.086H59.6V152.7h6.112Zm-3.5.766H63l1.865,4.58h-.894l-.5-1.322H61.776l-.473,1.322h-.847Zm-.187,2.572H63.2c-.2-.535-.416-1.069-.6-1.613C62.449,148.861,62.23,149.394,62.026,149.926Z" transform="translate(-39.05 -139.53)"/>
    </g>
  </g>
</svg>
