<svg id="translation" xmlns="http://www.w3.org/2000/svg" width="37.398" height="37.398" viewBox="0 0 37.398 37.398">
  <defs>
    <style>
      .cls-1 {
        fill: #082b84;
      }
    </style>
  </defs>
  <path id="Path_2394" data-name="Path 2394" class="cls-1" d="M21.454,24.35a.779.779,0,0,1-.779-.779V18.117a1.558,1.558,0,0,0-3.117,0V23.57a.779.779,0,1,1-1.558,0V18.117a3.117,3.117,0,0,1,6.233,0V23.57A.779.779,0,0,1,21.454,24.35Z" transform="translate(8.932 8.374)"/>
  <path id="Path_2395" data-name="Path 2395" class="cls-1" d="M21.454,19.558H16.779a.779.779,0,1,1,0-1.558h4.675a.779.779,0,0,1,0,1.558Z" transform="translate(8.932 10.049)"/>
  <path id="Path_2396" data-name="Path 2396" class="cls-1" d="M26.8,30.7H15.9A3.9,3.9,0,0,1,12,26.8V15.9A3.9,3.9,0,0,1,15.9,12H26.8a3.9,3.9,0,0,1,3.9,3.9V26.8A3.9,3.9,0,0,1,26.8,30.7ZM15.9,13.558A2.34,2.34,0,0,0,13.558,15.9V26.8A2.34,2.34,0,0,0,15.9,29.141H26.8A2.34,2.34,0,0,0,29.141,26.8V15.9A2.34,2.34,0,0,0,26.8,13.558Z" transform="translate(6.699 6.699)"/>
  <path id="Path_2397" data-name="Path 2397" class="cls-1" d="M22.012,11.791a.779.779,0,0,1-.779-.779V7.9A2.34,2.34,0,0,0,18.9,5.558H15.779a.779.779,0,0,1,0-1.558H18.9a3.9,3.9,0,0,1,3.9,3.9v3.117A.779.779,0,0,1,22.012,11.791Z" transform="translate(8.374 2.233)"/>
  <path id="Path_2398" data-name="Path 2398" class="cls-1" d="M11.012,22.791H7.9A3.9,3.9,0,0,1,4,18.9V15.779a.779.779,0,0,1,1.558,0V18.9A2.34,2.34,0,0,0,7.9,21.233h3.117a.779.779,0,1,1,0,1.558Z" transform="translate(2.233 8.374)"/>
  <path id="Path_2399" data-name="Path 2399" class="cls-1" d="M14.8,18.7H3.9A3.9,3.9,0,0,1,0,14.8V3.9A3.9,3.9,0,0,1,3.9,0H14.8a3.9,3.9,0,0,1,3.9,3.9V14.8A3.9,3.9,0,0,1,14.8,18.7ZM3.9,1.558A2.34,2.34,0,0,0,1.558,3.9V14.8A2.34,2.34,0,0,0,3.9,17.141H14.8A2.34,2.34,0,0,0,17.141,14.8V3.9A2.34,2.34,0,0,0,14.8,1.558Z"/>
  <path id="Path_2400" data-name="Path 2400" class="cls-1" d="M11.57,5.558H3.779A.779.779,0,0,1,3.779,4H11.57a.779.779,0,1,1,0,1.558Z" transform="translate(1.675 2.233)"/>
  <path id="Path_2401" data-name="Path 2401" class="cls-1" d="M6.279,6.117A.779.779,0,0,1,5.5,5.337V3.779a.779.779,0,0,1,1.558,0V5.337A.779.779,0,0,1,6.279,6.117Z" transform="translate(3.07 1.675)"/>
  <path id="Path_2402" data-name="Path 2402" class="cls-1" d="M11.012,11.793a.764.764,0,0,1-.176-.02C6.414,10.743,4.114,8.4,4,4.806A.781.781,0,0,1,4.754,4a.755.755,0,0,1,.8.754c.09,2.839,1.932,4.637,5.632,5.5a.779.779,0,0,1-.178,1.538Z" transform="translate(2.233 2.231)"/>
  <path id="Path_2403" data-name="Path 2403" class="cls-1" d="M3.779,11.793A.779.779,0,0,1,3.6,10.255c3.7-.862,5.541-2.66,5.63-5.5a.761.761,0,0,1,.8-.754.781.781,0,0,1,.754.8c-.114,3.593-2.414,5.937-6.836,6.967a.764.764,0,0,1-.176.02Z" transform="translate(1.675 2.231)"/>
</svg>
